<svg width="100" height="23" viewBox="0 0 100 23" fill="none" xmlns="http://www.w3.org/2000/svg">
<path d="M4.296 9.048L4.488 7.824C4.488 7.648 4.432 7.488 4.32 7.344C4.208 7.2 4.064 7.128 3.888 7.128C3.296 7.128 2.784 7.576 2.352 8.472C1.92 9.352 1.704 10.2 1.704 11.016C1.704 11.832 1.872 12.496 2.208 13.008C2.544 13.504 2.952 13.752 3.432 13.752C3.928 13.752 4.368 13.64 4.752 13.416C5.136 13.192 5.488 12.872 5.808 12.456C6.48 11.576 7.056 10.576 7.536 9.456C7.664 9.168 7.76 8.96 7.824 8.832C7.904 8.704 7.984 8.64 8.064 8.64C8.16 8.64 8.208 8.704 8.208 8.832C8.208 9.36 8.024 9.992 7.656 10.728C7.288 11.464 6.976 12.032 6.72 12.432C6.48 12.816 6.168 13.224 5.784 13.656C4.984 14.552 3.984 15 2.784 15C1.872 15 1.176 14.68 0.696 14.04C0.232 13.384 0 12.688 0 11.952C0 10.128 0.392 8.744 1.176 7.8C1.976 6.84 2.984 6.36 4.2 6.36C4.712 6.36 5.112 6.496 5.4 6.768C5.704 7.024 5.856 7.32 5.856 7.656C5.856 8.28 5.744 8.744 5.52 9.048C5.296 9.352 5.024 9.504 4.704 9.504C4.432 9.504 4.296 9.352 4.296 9.048Z" fill="url(#paint0_linear)"/>
<path d="M8.95519 8.616L10.2752 8.472C10.4032 8.472 10.5152 8.544 10.6112 8.688C10.7072 8.832 10.7552 8.984 10.7552 9.144C10.7552 9.304 10.6992 9.848 10.5872 10.776C10.4912 11.704 10.4432 12.44 10.4432 12.984C10.4432 13.512 10.4912 13.776 10.5872 13.776C10.8592 13.76 11.2352 13.424 11.7152 12.768C12.1952 12.096 12.6672 11.24 13.1312 10.2C13.6112 9.16 13.8992 8.64 13.9952 8.64C14.1072 8.64 14.1632 8.704 14.1632 8.832C14.1632 9.28 13.9312 9.992 13.4672 10.968C12.2032 13.656 11.1392 15 10.2752 15C9.65119 15 9.17919 14.872 8.85919 14.616C8.74719 14.504 8.69119 13.808 8.69119 12.528C8.69119 11.248 8.82719 10.152 9.09919 9.24C8.17119 9.24 7.52319 8.944 7.15519 8.352C6.96319 8.048 6.86719 7.704 6.86719 7.32C6.86719 6.936 6.94719 6.6 7.10719 6.312C7.26719 6.024 7.49119 5.88 7.77919 5.88C8.08319 5.88 8.35519 6.04 8.59519 6.36C8.85119 6.664 8.97919 7.008 8.97919 7.392C8.97919 7.776 8.86719 8.16 8.64319 8.544C8.70719 8.592 8.81119 8.616 8.95519 8.616Z" fill="url(#paint1_linear)"/>
<path d="M19.7284 15C19.1044 15 18.6324 14.872 18.3124 14.616C18.2004 14.504 18.1444 14.224 18.1444 13.776C18.1444 13.312 18.1604 12.696 18.1924 11.928C17.7764 12.968 17.3604 13.744 16.9444 14.256C16.5444 14.752 16.0244 15 15.3844 15C14.7444 15 14.1844 14.704 13.7044 14.112C13.2244 13.504 12.9844 12.56 12.9844 11.28C12.9844 9.984 13.3444 8.84 14.0644 7.848C14.8004 6.856 15.7604 6.36 16.9444 6.36C17.4564 6.36 18.0324 6.696 18.6724 7.368C18.8004 7.192 19.0244 6.984 19.3444 6.744C19.6804 6.488 19.9604 6.36 20.1844 6.36C20.4244 6.36 20.5444 6.664 20.5444 7.272C20.5444 7.432 20.4964 7.744 20.4004 8.208C20.3204 8.672 20.2244 9.008 20.1124 9.216C19.9684 9.584 19.8964 10.888 19.8964 13.128C19.8964 13.56 19.9444 13.776 20.0404 13.776C20.3124 13.76 20.6884 13.424 21.1684 12.768C21.6484 12.096 22.1204 11.24 22.5844 10.2C23.0644 9.16 23.3524 8.64 23.4484 8.64C23.5604 8.64 23.6164 8.704 23.6164 8.832C23.6164 9.28 23.3844 9.992 22.9204 10.968C21.6564 13.656 20.5924 15 19.7284 15ZM16.8004 7.32C16.3524 7.32 15.8724 7.656 15.3604 8.328C14.8644 8.984 14.6164 9.76 14.6164 10.656C14.6164 11.552 14.7444 12.288 15.0004 12.864C15.2724 13.44 15.6244 13.728 16.0564 13.728C16.5844 13.728 17.3604 12.408 18.3844 9.768C18.4004 9.64 18.4164 9.424 18.4324 9.12C18.4644 8.8 18.4884 8.56 18.5044 8.4C18.3604 8.144 18.1044 7.904 17.7364 7.68C17.3844 7.44 17.0724 7.32 16.8004 7.32Z" fill="url(#paint2_linear)"/>
<path d="M25.7479 9.816C26.6119 9.608 27.3319 9.344 27.9079 9.024C28.4999 8.704 28.8119 8.544 28.8439 8.544C28.9399 8.544 28.9879 8.624 28.9879 8.784C28.9879 8.944 28.8279 9.144 28.5079 9.384C27.8359 9.88 26.9959 10.304 25.9879 10.656C26.4039 12.24 26.6119 13.92 26.6119 15.696C26.6119 17.184 26.4439 18.608 26.1079 19.968C25.9159 20.736 25.6119 21.36 25.1959 21.84C24.7959 22.32 24.2999 22.56 23.7079 22.56C23.1959 22.56 22.8439 22.336 22.6519 21.888C22.4119 21.36 22.2759 20.856 22.2439 20.376C22.1959 19.624 22.1719 18.4 22.1719 16.704C22.1719 15.008 22.2999 12.96 22.5559 10.56C21.9799 10.144 21.6919 9.64 21.6919 9.048C21.6919 8.44 21.8199 7.976 22.0759 7.656C22.3319 7.32 22.6519 7.104 23.0359 7.008C23.2599 5.616 23.4759 4.416 23.6839 3.408C23.9079 2.4 24.2439 1.584 24.6919 0.959999C25.1399 0.32 25.5879 0 26.0359 0C26.5479 0 26.8039 0.568 26.8039 1.704C26.8039 3.496 26.1399 5.512 24.8119 7.752C25.1479 8.232 25.4599 8.92 25.7479 9.816ZM24.0679 11.016C23.9239 12.984 23.8519 15.24 23.8519 17.784C23.8519 20.344 23.9879 21.624 24.2599 21.624C24.7399 21.624 25.1399 20.992 25.4599 19.728C25.7799 18.48 25.9399 17.072 25.9399 15.504C25.9399 13.952 25.7639 12.392 25.4119 10.824C24.9319 10.952 24.4839 11.016 24.0679 11.016ZM24.4279 7.416C24.8919 6.648 25.3159 5.744 25.6999 4.704C26.0839 3.648 26.2759 2.768 26.2759 2.064C26.2759 1.36 26.2039 1.008 26.0599 1.008C25.8039 1.008 25.5239 1.592 25.2199 2.76C24.9319 3.928 24.6679 5.48 24.4279 7.416ZM24.4279 8.376L24.2839 8.616L24.1639 9.84C24.3719 9.904 24.5559 9.936 24.7159 9.936C24.8919 9.936 25.0359 9.928 25.1479 9.912C24.9399 9.288 24.6999 8.776 24.4279 8.376ZM22.9399 7.608C22.6999 7.688 22.5799 7.872 22.5799 8.16C22.5799 8.448 22.6439 8.696 22.7719 8.904C22.8359 8.328 22.8919 7.896 22.9399 7.608Z" fill="url(#paint3_linear)"/>
<path d="M32.9854 10.968C31.7214 13.656 30.6494 15 29.7694 15C28.9054 15 28.3934 14.896 28.2334 14.688C28.0894 14.48 28.0174 13.792 28.0174 12.624C28.0174 11.456 28.1294 9.768 28.3534 7.56C27.5534 7.4 27.1294 7.072 27.0814 6.576C27.0814 6.32 27.2494 6.192 27.5854 6.192C27.9214 6.192 28.2174 6.256 28.4734 6.384C28.6174 5.232 28.7854 4.064 28.9774 2.88C29.0254 2.576 29.1774 2.288 29.4334 2.016C29.6894 1.744 29.9374 1.608 30.1774 1.608C30.3854 1.608 30.4894 1.936 30.4894 2.592C30.4894 2.896 30.3774 4.296 30.1534 6.792C30.5854 6.712 31.0574 6.552 31.5694 6.312C32.0974 6.072 32.4094 5.952 32.5054 5.952C32.7934 5.952 32.9374 6.04 32.9374 6.216C32.9534 6.376 32.6574 6.6 32.0494 6.888C31.4414 7.16 30.7854 7.368 30.0814 7.512C29.8894 9.848 29.7934 11.616 29.7934 12.816C29.7934 13.456 29.8894 13.776 30.0814 13.776C30.3694 13.76 30.7534 13.424 31.2334 12.768C31.7134 12.112 32.1854 11.264 32.6494 10.224C33.1294 9.168 33.4174 8.64 33.5134 8.64C33.6254 8.64 33.6814 8.704 33.6814 8.832C33.6814 9.28 33.4494 9.992 32.9854 10.968Z" fill="url(#paint4_linear)"/>
<path d="M35.3655 15C34.4695 15 33.7575 14.664 33.2295 13.992C32.7015 13.304 32.4375 12.528 32.4375 11.664C32.4375 9.92 32.8055 8.6 33.5415 7.704C34.2775 6.808 35.2295 6.36 36.3975 6.36C36.9415 6.36 37.3895 6.512 37.7415 6.816C38.0935 7.104 38.2695 7.504 38.2695 8.016C38.2695 8.976 37.8615 9.784 37.0455 10.44C36.2455 11.08 35.2615 11.416 34.0935 11.448C34.1575 12.072 34.3655 12.616 34.7175 13.08C35.0855 13.528 35.5095 13.752 35.9895 13.752C36.4695 13.752 36.9015 13.64 37.2855 13.416C37.6695 13.192 38.0215 12.872 38.3415 12.456C39.0135 11.576 39.5895 10.576 40.0695 9.456C40.1975 9.168 40.2935 8.96 40.3575 8.832C40.4375 8.704 40.5175 8.64 40.5975 8.64C40.6935 8.64 40.7415 8.704 40.7415 8.832C40.7415 9.632 40.2535 10.832 39.2775 12.432C38.2215 14.144 36.9175 15 35.3655 15ZM34.0935 10.872C35.0375 10.712 35.7255 10.408 36.1575 9.96C36.6055 9.512 36.8295 8.928 36.8295 8.208C36.8295 7.488 36.5975 7.128 36.1335 7.128C35.5735 7.128 35.1015 7.52 34.7175 8.304C34.3335 9.072 34.1255 9.928 34.0935 10.872Z" fill="url(#paint5_linear)"/>
<path d="M46.3088 15C45.7648 15 45.3408 14.88 45.0368 14.64C44.9088 14.512 44.8447 14.176 44.8447 13.632C44.8447 13.088 44.8688 12.376 44.9168 11.496C44.4848 12.648 44.0447 13.52 43.5967 14.112C43.1488 14.704 42.5807 15 41.8927 15C41.2207 15 40.6447 14.704 40.1647 14.112C39.7007 13.52 39.4688 12.576 39.4688 11.28C39.4688 9.984 39.8288 8.84 40.5488 7.848C41.2848 6.856 42.2448 6.36 43.4287 6.36C44.0047 6.36 44.6048 6.584 45.2288 7.032C45.4848 3.912 45.7168 2.152 45.9248 1.752C46.0208 1.576 46.2448 1.32 46.5968 0.983999C46.9648 0.647999 47.2688 0.48 47.5088 0.48C47.7488 0.48 47.8688 0.855999 47.8688 1.608C47.8688 2.488 47.7887 3.248 47.6287 3.888C47.1968 5.536 46.9248 6.584 46.8128 7.032C46.5888 8.76 46.4767 10.792 46.4767 13.128C46.4767 13.56 46.5247 13.776 46.6208 13.776C46.9088 13.76 47.2928 13.424 47.7728 12.768C48.2528 12.112 48.7248 11.264 49.1888 10.224C49.6688 9.168 49.9567 8.64 50.0527 8.64C50.1647 8.64 50.2207 8.704 50.2207 8.832C50.2207 9.28 49.9888 9.992 49.5247 10.968C48.2607 13.656 47.1888 15 46.3088 15ZM43.2848 7.224C42.8528 7.224 42.4207 7.568 41.9888 8.256C41.5568 8.944 41.3408 9.744 41.3408 10.656C41.3408 11.552 41.4528 12.288 41.6768 12.864C41.9168 13.44 42.2127 13.728 42.5648 13.728C43.2848 13.728 44.1087 12.288 45.0368 9.408C45.1168 8.528 45.1567 8.008 45.1567 7.848C44.6927 7.432 44.0688 7.224 43.2848 7.224Z" fill="url(#paint6_linear)"/>
<path d="M62.0286 7.536L62.0766 7.176C62.0766 6.888 61.9086 6.744 61.5726 6.744C61.2526 6.744 60.9406 6.96 60.6366 7.392C60.3326 7.808 60.1806 8.152 60.1806 8.424C60.1806 8.696 60.1966 8.912 60.2286 9.072C60.2606 9.232 60.2926 9.368 60.3246 9.48C60.3726 9.576 60.4446 9.696 60.5406 9.84C60.6366 9.984 60.7086 10.088 60.7566 10.152L61.0206 10.488C61.1326 10.648 61.2126 10.752 61.2606 10.8C62.0926 10.112 63.0846 9.344 64.2366 8.496C64.3006 8.448 64.3726 8.424 64.4526 8.424C64.6126 8.424 64.6926 8.512 64.6926 8.688C64.6926 8.864 64.6206 9 64.4766 9.096C63.4526 9.752 62.4846 10.464 61.5726 11.232C61.9246 11.744 62.1006 12.304 62.1006 12.912C62.1006 13.52 61.8686 14.04 61.4046 14.472C60.9406 14.904 60.3486 15.12 59.6286 15.12C58.9086 15.12 58.5486 14.776 58.5486 14.088C58.5486 13.592 59.0766 12.832 60.1326 11.808C60.0526 11.712 59.9086 11.56 59.7006 11.352C59.4926 11.128 59.3326 10.952 59.2206 10.824C59.1246 10.696 59.0046 10.528 58.8606 10.32C58.6046 9.92 58.4766 9.488 58.4766 9.024C58.4766 8.08 58.7806 7.32 59.3886 6.744C59.9966 6.152 60.6446 5.856 61.3326 5.856C61.7646 5.856 62.1006 5.976 62.3406 6.216C62.5806 6.44 62.7006 6.672 62.7006 6.912C62.7006 7.456 62.5726 7.728 62.3166 7.728C62.1246 7.728 62.0286 7.664 62.0286 7.536ZM60.4926 12.264C59.8526 12.904 59.5326 13.424 59.5326 13.824C59.5326 14.208 59.7326 14.4 60.1326 14.4C60.3726 14.4 60.5726 14.304 60.7326 14.112C61.0846 13.632 61.0046 13.016 60.4926 12.264Z" fill="url(#paint7_linear)"/>
<path d="M73.4528 9.912C74.1247 9.912 74.7488 9.624 75.3248 9.048C75.6128 8.76 75.8047 8.616 75.9007 8.616C76.0127 8.616 76.0687 8.696 76.0687 8.856C76.0687 9.016 75.9648 9.208 75.7568 9.432C74.9088 10.376 73.8447 10.848 72.5648 10.848C72.3088 12.032 71.9088 13.024 71.3648 13.824C70.8208 14.608 70.1328 15 69.3008 15C68.4688 15 67.8687 14.512 67.5007 13.536C66.8447 14.512 66.1647 15 65.4607 15C64.1327 15 63.4688 13.72 63.4688 11.16C63.4688 9.384 63.6447 8.176 63.9967 7.536C64.0608 7.424 64.3008 7.24 64.7168 6.984C65.1328 6.728 65.4207 6.6 65.5807 6.6C65.8207 6.6 65.9408 6.744 65.9408 7.032C65.9088 7.784 65.6848 8.672 65.2688 9.696C65.1728 9.888 65.1247 10.352 65.1247 11.088C65.1247 11.808 65.2048 12.448 65.3648 13.008C65.5408 13.552 65.7887 13.824 66.1087 13.824C66.4287 13.824 66.8208 13.44 67.2848 12.672C67.2048 12.272 67.1647 11.848 67.1647 11.4C67.1647 10.936 67.2128 10.448 67.3088 9.936C67.4048 9.408 67.5967 8.88 67.8848 8.352C68.1728 7.824 68.5167 7.56 68.9167 7.56C69.0447 7.56 69.1328 7.6 69.1807 7.68C69.2448 7.76 69.2767 7.952 69.2767 8.256C69.2767 9.072 69.0608 10.088 68.6288 11.304C68.6928 12.008 68.8528 12.608 69.1087 13.104C69.3808 13.584 69.6768 13.824 69.9967 13.824C70.4607 13.824 70.8528 13.528 71.1728 12.936C71.4928 12.328 71.7407 11.592 71.9167 10.728C71.3247 10.568 70.8688 10.264 70.5488 9.816C70.2288 9.368 70.0687 8.856 70.0687 8.28C70.0687 7.688 70.2048 7.184 70.4768 6.768C70.7648 6.336 71.1807 6.12 71.7247 6.12C72.4607 6.12 72.8288 6.912 72.8288 8.496C72.8288 8.912 72.8047 9.344 72.7568 9.792C72.9967 9.872 73.2288 9.912 73.4528 9.912ZM71.5567 7.032C71.4128 7.032 71.3408 7.304 71.3408 7.848C71.3408 8.392 71.5887 8.896 72.0847 9.36C72.1007 9.28 72.1087 9.16 72.1087 9C72.1087 7.688 71.9247 7.032 71.5567 7.032Z" fill="url(#paint8_linear)"/>
<path d="M77.553 15C76.657 15 75.945 14.664 75.417 13.992C74.889 13.304 74.625 12.528 74.625 11.664C74.625 9.92 74.993 8.6 75.729 7.704C76.465 6.808 77.417 6.36 78.585 6.36C79.129 6.36 79.577 6.512 79.929 6.816C80.281 7.104 80.457 7.504 80.457 8.016C80.457 8.976 80.049 9.784 79.233 10.44C78.433 11.08 77.449 11.416 76.281 11.448C76.345 12.072 76.553 12.616 76.905 13.08C77.273 13.528 77.697 13.752 78.177 13.752C78.657 13.752 79.089 13.64 79.473 13.416C79.857 13.192 80.209 12.872 80.529 12.456C81.201 11.576 81.777 10.576 82.257 9.456C82.385 9.168 82.481 8.96 82.545 8.832C82.625 8.704 82.705 8.64 82.785 8.64C82.881 8.64 82.929 8.704 82.929 8.832C82.929 9.632 82.441 10.832 81.465 12.432C80.409 14.144 79.105 15 77.553 15ZM76.281 10.872C77.225 10.712 77.913 10.408 78.345 9.96C78.793 9.512 79.017 8.928 79.017 8.208C79.017 7.488 78.785 7.128 78.321 7.128C77.761 7.128 77.289 7.52 76.905 8.304C76.521 9.072 76.313 9.928 76.281 10.872Z" fill="url(#paint9_linear)"/>
<path d="M84.5843 15C83.6882 15 82.9762 14.664 82.4482 13.992C81.9202 13.304 81.6562 12.528 81.6562 11.664C81.6562 9.92 82.0243 8.6 82.7603 7.704C83.4963 6.808 84.4482 6.36 85.6162 6.36C86.1602 6.36 86.6083 6.512 86.9603 6.816C87.3122 7.104 87.4883 7.504 87.4883 8.016C87.4883 8.976 87.0803 9.784 86.2643 10.44C85.4642 11.08 84.4802 11.416 83.3122 11.448C83.3763 12.072 83.5843 12.616 83.9362 13.08C84.3042 13.528 84.7282 13.752 85.2083 13.752C85.6883 13.752 86.1202 13.64 86.5042 13.416C86.8883 13.192 87.2402 12.872 87.5602 12.456C88.2322 11.576 88.8083 10.576 89.2883 9.456C89.4163 9.168 89.5122 8.96 89.5762 8.832C89.6562 8.704 89.7363 8.64 89.8163 8.64C89.9123 8.64 89.9603 8.704 89.9603 8.832C89.9603 9.632 89.4723 10.832 88.4963 12.432C87.4403 14.144 86.1363 15 84.5843 15ZM83.3122 10.872C84.2562 10.712 84.9443 10.408 85.3763 9.96C85.8242 9.512 86.0482 8.928 86.0482 8.208C86.0482 7.488 85.8162 7.128 85.3522 7.128C84.7923 7.128 84.3203 7.52 83.9362 8.304C83.5522 9.072 83.3442 9.928 83.3122 10.872Z" fill="url(#paint10_linear)"/>
<path d="M94.0635 10.968C92.7995 13.656 91.7275 15 90.8475 15C89.9835 15 89.4715 14.896 89.3115 14.688C89.1675 14.48 89.0955 13.792 89.0955 12.624C89.0955 11.456 89.2075 9.768 89.4315 7.56C88.6315 7.4 88.2075 7.072 88.1595 6.576C88.1595 6.32 88.3275 6.192 88.6635 6.192C88.9995 6.192 89.2955 6.256 89.5515 6.384C89.6955 5.232 89.8635 4.064 90.0555 2.88C90.1035 2.576 90.2555 2.288 90.5115 2.016C90.7675 1.744 91.0155 1.608 91.2555 1.608C91.4635 1.608 91.5675 1.936 91.5675 2.592C91.5675 2.896 91.4555 4.296 91.2315 6.792C91.6635 6.712 92.1355 6.552 92.6475 6.312C93.1755 6.072 93.4875 5.952 93.5835 5.952C93.8715 5.952 94.0155 6.04 94.0155 6.216C94.0315 6.376 93.7355 6.6 93.1275 6.888C92.5195 7.16 91.8635 7.368 91.1595 7.512C90.9675 9.848 90.8715 11.616 90.8715 12.816C90.8715 13.456 90.9675 13.776 91.1595 13.776C91.4475 13.76 91.8315 13.424 92.3115 12.768C92.7915 12.112 93.2635 11.264 93.7275 10.224C94.2075 9.168 94.4955 8.64 94.5915 8.64C94.7035 8.64 94.7595 8.704 94.7595 8.832C94.7595 9.28 94.5275 9.992 94.0635 10.968Z" fill="url(#paint11_linear)"/>
<path d="M97.0676 7.536L97.1156 7.176C97.1156 6.888 96.9476 6.744 96.6116 6.744C96.2916 6.744 95.9796 6.96 95.6756 7.392C95.3716 7.808 95.2196 8.152 95.2196 8.424C95.2196 8.696 95.2356 8.912 95.2676 9.072C95.2996 9.232 95.3316 9.368 95.3636 9.48C95.4116 9.576 95.4836 9.696 95.5796 9.84C95.6756 9.984 95.7476 10.088 95.7956 10.152L96.0596 10.488C96.1716 10.648 96.2516 10.752 96.2996 10.8C97.1316 10.112 98.1236 9.344 99.2756 8.496C99.3396 8.448 99.4116 8.424 99.4916 8.424C99.6516 8.424 99.7316 8.512 99.7316 8.688C99.7316 8.864 99.6596 9 99.5156 9.096C98.4916 9.752 97.5236 10.464 96.6116 11.232C96.9636 11.744 97.1396 12.304 97.1396 12.912C97.1396 13.52 96.9076 14.04 96.4436 14.472C95.9796 14.904 95.3876 15.12 94.6676 15.12C93.9476 15.12 93.5876 14.776 93.5876 14.088C93.5876 13.592 94.1156 12.832 95.1716 11.808C95.0916 11.712 94.9476 11.56 94.7396 11.352C94.5316 11.128 94.3716 10.952 94.2596 10.824C94.1636 10.696 94.0436 10.528 93.8996 10.32C93.6436 9.92 93.5156 9.488 93.5156 9.024C93.5156 8.08 93.8196 7.32 94.4276 6.744C95.0356 6.152 95.6836 5.856 96.3716 5.856C96.8036 5.856 97.1396 5.976 97.3796 6.216C97.6196 6.44 97.7396 6.672 97.7396 6.912C97.7396 7.456 97.6116 7.728 97.3556 7.728C97.1636 7.728 97.0676 7.664 97.0676 7.536ZM95.5316 12.264C94.8916 12.904 94.5716 13.424 94.5716 13.824C94.5716 14.208 94.7716 14.4 95.1716 14.4C95.4116 14.4 95.6116 14.304 95.7716 14.112C96.1236 13.632 96.0436 13.016 95.5316 12.264Z" fill="url(#paint12_linear)"/>
<defs>
<linearGradient id="paint0_linear" x1="4.40472e-09" y1="13.0848" x2="99.7313" y2="13.3808" gradientUnits="userSpaceOnUse">
<stop stop-color="#FF5777"/>
<stop offset="0.484375" stop-color="#894252"/>
<stop offset="1" stop-color="#C54D65"/>
</linearGradient>
<linearGradient id="paint1_linear" x1="4.40472e-09" y1="13.0848" x2="99.7313" y2="13.3808" gradientUnits="userSpaceOnUse">
<stop stop-color="#FF5777"/>
<stop offset="0.484375" stop-color="#894252"/>
<stop offset="1" stop-color="#C54D65"/>
</linearGradient>
<linearGradient id="paint2_linear" x1="4.40472e-09" y1="13.0848" x2="99.7313" y2="13.3808" gradientUnits="userSpaceOnUse">
<stop stop-color="#FF5777"/>
<stop offset="0.484375" stop-color="#894252"/>
<stop offset="1" stop-color="#C54D65"/>
</linearGradient>
<linearGradient id="paint3_linear" x1="4.40472e-09" y1="13.0848" x2="99.7313" y2="13.3808" gradientUnits="userSpaceOnUse">
<stop stop-color="#FF5777"/>
<stop offset="0.484375" stop-color="#894252"/>
<stop offset="1" stop-color="#C54D65"/>
</linearGradient>
<linearGradient id="paint4_linear" x1="4.40472e-09" y1="13.0848" x2="99.7313" y2="13.3808" gradientUnits="userSpaceOnUse">
<stop stop-color="#FF5777"/>
<stop offset="0.484375" stop-color="#894252"/>
<stop offset="1" stop-color="#C54D65"/>
</linearGradient>
<linearGradient id="paint5_linear" x1="4.40472e-09" y1="13.0848" x2="99.7313" y2="13.3808" gradientUnits="userSpaceOnUse">
<stop stop-color="#FF5777"/>
<stop offset="0.484375" stop-color="#894252"/>
<stop offset="1" stop-color="#C54D65"/>
</linearGradient>
<linearGradient id="paint6_linear" x1="4.40472e-09" y1="13.0848" x2="99.7313" y2="13.3808" gradientUnits="userSpaceOnUse">
<stop stop-color="#FF5777"/>
<stop offset="0.484375" stop-color="#894252"/>
<stop offset="1" stop-color="#C54D65"/>
</linearGradient>
<linearGradient id="paint7_linear" x1="4.40472e-09" y1="13.0848" x2="99.7313" y2="13.3808" gradientUnits="userSpaceOnUse">
<stop stop-color="#FF5777"/>
<stop offset="0.484375" stop-color="#894252"/>
<stop offset="1" stop-color="#C54D65"/>
</linearGradient>
<linearGradient id="paint8_linear" x1="4.40472e-09" y1="13.0848" x2="99.7313" y2="13.3808" gradientUnits="userSpaceOnUse">
<stop stop-color="#FF5777"/>
<stop offset="0.484375" stop-color="#894252"/>
<stop offset="1" stop-color="#C54D65"/>
</linearGradient>
<linearGradient id="paint9_linear" x1="4.40472e-09" y1="13.0848" x2="99.7313" y2="13.3808" gradientUnits="userSpaceOnUse">
<stop stop-color="#FF5777"/>
<stop offset="0.484375" stop-color="#894252"/>
<stop offset="1" stop-color="#C54D65"/>
</linearGradient>
<linearGradient id="paint10_linear" x1="4.40472e-09" y1="13.0848" x2="99.7313" y2="13.3808" gradientUnits="userSpaceOnUse">
<stop stop-color="#FF5777"/>
<stop offset="0.484375" stop-color="#894252"/>
<stop offset="1" stop-color="#C54D65"/>
</linearGradient>
<linearGradient id="paint11_linear" x1="4.40472e-09" y1="13.0848" x2="99.7313" y2="13.3808" gradientUnits="userSpaceOnUse">
<stop stop-color="#FF5777"/>
<stop offset="0.484375" stop-color="#894252"/>
<stop offset="1" stop-color="#C54D65"/>
</linearGradient>
<linearGradient id="paint12_linear" x1="4.40472e-09" y1="13.0848" x2="99.7313" y2="13.3808" gradientUnits="userSpaceOnUse">
<stop stop-color="#FF5777"/>
<stop offset="0.484375" stop-color="#894252"/>
<stop offset="1" stop-color="#C54D65"/>
</linearGradient>
</defs>
</svg>
