<svg width="178" height="29" viewBox="0 0 178 29" fill="none" xmlns="http://www.w3.org/2000/svg">
<path d="M75.6356 20.4604C73.2639 25.3154 71.2524 27.7429 69.6012 27.7429C67.98 27.7429 67.0194 27.5551 66.7191 27.1794C66.4489 26.8037 66.3138 25.561 66.3138 23.4514C66.3138 23.2678 66.3154 23.077 66.3186 22.8791C66.3293 22.2182 66.3577 21.4778 66.4038 20.6581C66.5026 18.904 66.6828 16.7862 66.9443 14.3049C65.4432 14.0159 64.6476 13.4235 64.5576 12.5277C64.5576 12.0653 64.8728 11.8341 65.5033 11.8341C66.1337 11.8341 66.6891 11.9497 67.1695 12.1809C67.4397 10.1002 67.7549 7.99053 68.1151 5.85202C68.2052 5.30294 68.4904 4.78276 68.9708 4.29148C69.4511 3.8002 69.9164 3.55456 70.3668 3.55456C70.757 3.55456 70.9522 4.14699 70.9522 5.33184C70.9522 5.88092 70.742 8.40957 70.3217 12.9178C71.1323 12.7733 72.018 12.4843 72.9786 12.0508C73.9694 11.6173 74.5548 11.4006 74.7349 11.4006C75.2753 11.4006 75.5455 11.5595 75.5455 11.8774C75.5755 12.1664 75.0201 12.571 73.8793 13.0912C72.7385 13.5825 71.5076 13.9581 70.1866 14.2182C69.8264 18.4375 69.6462 21.6308 69.6462 23.7982C69.6462 24.9542 69.8264 25.5321 70.1866 25.5321C70.727 25.5032 71.4475 24.8964 72.3482 23.7115C73.2488 22.5267 74.1345 20.995 75.0051 19.1166C75.9058 17.2093 76.4461 16.2556 76.6263 16.2556C76.8364 16.2556 76.9415 16.3712 76.9415 16.6024C76.9415 17.4116 76.5062 18.6976 75.6356 20.4604Z" fill="url(#paint0_linear)"/>
<path d="M77.4446 11.9641L77.7148 14.7384C77.7148 15.0274 77.5497 15.2586 77.2194 15.432C76.9192 15.6054 76.664 15.6921 76.4539 15.6921C76.0336 15.6921 75.6583 15.3742 75.3281 14.7384C75.0279 14.0737 74.8777 13.4669 74.8777 12.9178C74.8777 10.7793 75.6433 8.9731 77.1744 7.49925C78.7355 5.99651 80.7019 4.86946 83.0736 4.11809C83.0736 3.13553 83.2838 2.21076 83.7041 1.3438C84.1544 0.447932 84.8449 0 85.7756 0C86.1658 0 86.361 0.534629 86.361 1.60389V3.42451C87.3217 3.30892 88.0272 3.25112 88.4775 3.25112C92.4704 3.25112 95.6227 4.33483 97.9343 6.50224C100.276 8.64076 101.447 11.3428 101.447 14.6084C101.447 16.8625 101.027 18.8565 100.186 20.5904C99.3453 22.3244 98.2045 23.6971 96.7635 24.7085C93.8814 26.7314 90.4289 27.7429 86.406 27.7429H85.4603C85.3703 28.581 85.2502 29 85.1001 29C83.689 29 82.7434 28.8122 82.2631 28.4365C82.0529 28.2342 81.9328 27.8874 81.9028 27.3961C79.2309 26.6736 77.8949 25.8789 77.8949 25.012C77.8949 24.723 78 24.5062 78.2101 24.3617C78.4203 24.1883 78.6455 24.1016 78.8856 24.1016C79.1558 24.1016 80.1616 24.4484 81.9028 25.142C82.173 17.5705 82.5182 11.0683 82.9385 5.63528C81.2873 6.18436 79.9514 7.00797 78.9307 8.10613C77.94 9.20429 77.4446 10.4903 77.4446 11.9641ZM87.2616 4.9417C86.8413 4.9417 86.5261 4.95615 86.3159 4.98505C86.1959 10.0424 86.0458 14.2905 85.8656 17.7294C85.7155 22.2088 85.6104 25.0264 85.5504 26.1824C86.1508 26.2691 86.7813 26.3124 87.4418 26.3124C90.2938 26.3124 92.7706 25.3009 94.8721 23.278C96.9736 21.2262 98.0244 18.712 98.0244 15.7354C98.0244 12.7588 97.0187 10.2157 95.0072 8.10613C92.9958 5.99651 90.4139 4.9417 87.2616 4.9417Z" fill="url(#paint1_linear)"/>
<path d="M106.639 16.2123L109.116 15.9522C109.356 15.9522 109.566 16.0822 109.746 16.3423C109.926 16.6024 110.016 16.8769 110.016 17.1659C110.016 17.4549 109.911 18.4375 109.701 20.1136C109.521 21.7897 109.431 23.1191 109.431 24.1016C109.431 25.0553 109.521 25.5321 109.701 25.5321C110.212 25.5032 110.917 24.8964 111.818 23.7115C112.718 22.4978 113.604 20.9517 114.475 19.0732C115.375 17.1948 115.916 16.2556 116.096 16.2556C116.306 16.2556 116.411 16.3712 116.411 16.6024C116.411 17.4116 115.976 18.6976 115.105 20.4604C112.733 25.3154 110.737 27.7429 109.116 27.7429C107.945 27.7429 107.059 27.5117 106.459 27.0493C106.249 26.847 106.144 25.5899 106.144 23.278C106.144 20.9661 106.399 18.9865 106.909 17.3393C105.168 17.3393 103.952 16.8047 103.262 15.7354C102.901 15.1863 102.721 14.565 102.721 13.8715C102.721 13.1779 102.871 12.571 103.171 12.0508C103.472 11.5306 103.892 11.2706 104.432 11.2706C105.003 11.2706 105.513 11.5595 105.963 12.1375C106.444 12.6866 106.684 13.3079 106.684 14.0015C106.684 14.6951 106.474 15.3886 106.054 16.0822C106.174 16.1689 106.369 16.2123 106.639 16.2123Z" fill="url(#paint2_linear)"/>
<path d="M119.018 27.7429C117.336 27.7429 116 27.136 115.01 25.9223C114.019 24.6796 113.524 23.278 113.524 21.7175C113.524 18.5675 114.214 16.1834 115.595 14.565C116.976 12.9467 118.762 12.1375 120.954 12.1375C121.975 12.1375 122.815 12.4121 123.476 12.9611C124.136 13.4813 124.467 14.2038 124.467 15.1286C124.467 16.8625 123.701 18.3219 122.17 19.5067C120.669 20.6627 118.822 21.2696 116.631 21.3274C116.751 22.4544 117.141 23.437 117.802 24.275C118.492 25.0842 119.288 25.4888 120.188 25.4888C121.089 25.4888 121.9 25.2865 122.62 24.8819C123.341 24.4773 124.001 23.8994 124.602 23.148C125.863 21.5585 126.943 19.7524 127.844 17.7294C128.084 17.2093 128.264 16.8336 128.384 16.6024C128.534 16.3712 128.685 16.2556 128.835 16.2556C129.015 16.2556 129.105 16.3712 129.105 16.6024C129.105 18.0473 128.189 20.2147 126.358 23.1046C124.376 26.1968 121.93 27.7429 119.018 27.7429ZM116.631 20.287C118.402 19.998 119.693 19.4489 120.504 18.6398C121.344 17.8306 121.765 16.7758 121.765 15.4753C121.765 14.1749 121.329 13.5247 120.459 13.5247C119.408 13.5247 118.522 14.2327 117.802 15.6487C117.081 17.0359 116.691 18.582 116.631 20.287Z" fill="url(#paint3_linear)"/>
<path d="M138.695 27.7429C137.525 27.7429 136.639 27.5117 136.038 27.0493C135.828 26.847 135.723 26.3413 135.723 25.5321C135.723 24.6941 135.753 23.5815 135.813 22.1943C135.033 24.0727 134.252 25.4743 133.472 26.3991C132.721 27.295 131.745 27.7429 130.544 27.7429C129.344 27.7429 128.293 27.2083 127.392 26.139C126.492 25.0409 126.041 23.3358 126.041 21.0239C126.041 18.6831 126.717 16.6168 128.068 14.8251C129.449 13.0334 131.25 12.1375 133.472 12.1375C134.432 12.1375 135.513 12.7444 136.714 13.9581C136.954 13.6403 137.374 13.2646 137.975 12.8311C138.605 12.3687 139.131 12.1375 139.551 12.1375C140.001 12.1375 140.226 12.6866 140.226 13.7848C140.226 14.0737 140.136 14.6373 139.956 15.4753C139.806 16.3134 139.626 16.9203 139.416 17.296C139.146 17.9606 139.011 20.3159 139.011 24.3617C139.011 25.142 139.101 25.5321 139.281 25.5321C139.791 25.5032 140.497 24.8964 141.397 23.7115C142.298 22.4978 143.184 20.9517 144.054 19.0732C144.955 17.1948 145.495 16.2556 145.675 16.2556C145.886 16.2556 145.991 16.3712 145.991 16.6024C145.991 17.4116 145.555 18.6976 144.685 20.4604C142.313 25.3154 140.317 27.7429 138.695 27.7429ZM133.201 13.8715C132.361 13.8715 131.46 14.4783 130.499 15.6921C129.569 16.8769 129.103 18.2785 129.103 19.8969C129.103 21.5152 129.344 22.8445 129.824 23.8849C130.334 24.9253 130.995 25.4454 131.805 25.4454C132.796 25.4454 134.252 23.0613 136.174 18.293C136.204 18.0618 136.234 17.6716 136.264 17.1226C136.324 16.5446 136.369 16.1111 136.399 15.8221C136.129 15.3597 135.648 14.9263 134.958 14.5217C134.297 14.0882 133.712 13.8715 133.201 13.8715Z" fill="url(#paint4_linear)"/>
<path d="M146.342 25.1854L146.387 26.5292C146.387 27.3383 146.147 27.7429 145.667 27.7429C144.946 27.7429 144.256 27.6562 143.595 27.4828C142.935 27.2805 142.605 27.0204 142.605 26.7025C142.605 26.3558 142.68 25.2143 142.83 23.278C143.01 21.3129 143.1 19.8391 143.1 18.8565V16.299C143.1 14.9118 143.25 14.0737 143.55 13.7848C143.851 13.4958 144.376 13.0767 145.127 12.5277C145.907 11.9786 146.463 11.704 146.793 11.704C147.153 11.704 147.378 11.7618 147.468 11.8774C147.558 11.993 147.603 12.2098 147.603 12.5277C147.603 14.0593 147.303 15.5042 146.703 16.8625C146.553 18.5097 146.478 19.6512 146.478 20.287C148.069 17.426 149.179 15.5476 149.81 14.6517C150.921 12.9756 151.926 12.1375 152.827 12.1375C153.398 12.1375 153.923 12.3543 154.403 12.7877C154.914 13.2212 155.169 13.7559 155.169 14.3916C155.169 15.0274 155.154 15.6343 155.124 16.2123C155.124 16.7613 155.109 17.1948 155.079 17.5127C155.049 17.8306 155.034 18.0329 155.034 18.1196C155.154 17.8884 155.664 17.2382 156.565 16.1689C157.465 15.0997 158.066 14.4061 158.366 14.0882C158.696 13.7703 159.042 13.4524 159.402 13.1345C160.092 12.4699 160.708 12.1375 161.248 12.1375C161.819 12.1375 162.344 12.3398 162.824 12.7444C163.335 13.149 163.59 13.6547 163.59 14.2616C163.59 15.5331 163.44 17.4116 163.14 19.8969C162.869 22.3533 162.734 23.9138 162.734 24.5785C162.734 25.2143 162.824 25.5321 163.004 25.5321C163.515 25.5032 164.22 24.8964 165.121 23.7115C166.022 22.4978 166.907 20.9517 167.778 19.0732C168.679 17.1948 169.219 16.2556 169.399 16.2556C169.609 16.2556 169.714 16.3712 169.714 16.6024C169.714 17.4116 169.279 18.6976 168.408 20.4604C166.037 25.3154 164.04 27.7429 162.419 27.7429C161.398 27.7429 160.588 27.5117 159.987 27.0493C159.777 26.847 159.672 26.3269 159.672 25.4888C159.672 24.6218 159.747 23.2347 159.897 21.3274C160.077 19.3911 160.167 17.9462 160.167 16.9925C160.167 16.0389 160.002 15.562 159.672 15.562C159.282 15.562 158.426 16.1978 157.105 17.4694C155.814 18.7409 155.124 19.6368 155.034 20.157C154.854 21.1395 154.764 23.2636 154.764 26.5292C154.764 27.3383 154.538 27.7429 154.088 27.7429C153.398 27.7429 152.737 27.6562 152.107 27.4828C151.506 27.2805 151.206 27.0204 151.206 26.7025C151.206 26.3558 151.296 24.9253 151.476 22.4111C151.656 19.8969 151.746 18.134 151.746 17.1226C151.746 16.0822 151.566 15.562 151.206 15.562C150.876 15.562 150.05 16.559 148.729 18.5531C147.408 20.5182 146.673 21.8909 146.523 22.6712C146.402 23.4514 146.342 24.2895 146.342 25.1854Z" fill="url(#paint5_linear)"/>
<path d="M173.001 14.2616L173.091 13.6114C173.091 13.0912 172.776 12.8311 172.146 12.8311C171.545 12.8311 170.96 13.2212 170.39 14.0015C169.819 14.7529 169.534 15.3742 169.534 15.8655C169.534 16.3568 169.564 16.7469 169.624 17.0359C169.684 17.3249 169.744 17.5705 169.804 17.7728C169.894 17.9462 170.029 18.1629 170.209 18.423C170.39 18.6831 170.525 18.871 170.615 18.9865L171.11 19.5934C171.32 19.8824 171.47 20.0703 171.56 20.157C173.121 18.9143 174.983 17.5272 177.144 15.9955C177.264 15.9088 177.4 15.8655 177.55 15.8655C177.85 15.8655 178 16.0244 178 16.3423C178 16.6602 177.865 16.9058 177.595 17.0792C175.673 18.2641 173.857 19.5501 172.146 20.9372C172.806 21.862 173.137 22.8734 173.137 23.9716C173.137 25.0698 172.701 26.009 171.831 26.7892C170.96 27.5695 169.849 27.9596 168.498 27.9596C167.147 27.9596 166.472 27.3383 166.472 26.0957C166.472 25.1998 167.462 23.8271 169.444 21.9776C169.294 21.8042 169.024 21.5296 168.633 21.154C168.243 20.7494 167.943 20.4315 167.733 20.2003C167.552 19.9691 167.327 19.6657 167.057 19.29C166.577 18.5675 166.337 17.7872 166.337 16.9492C166.337 15.2441 166.907 13.8715 168.048 12.8311C169.189 11.7618 170.405 11.2272 171.695 11.2272C172.506 11.2272 173.136 11.4439 173.587 11.8774C174.037 12.282 174.262 12.701 174.262 13.1345C174.262 14.1171 174.022 14.6084 173.542 14.6084C173.182 14.6084 173.001 14.4928 173.001 14.2616ZM170.119 22.8012C168.918 23.9572 168.318 24.8964 168.318 25.6188C168.318 26.3124 168.693 26.6592 169.444 26.6592C169.894 26.6592 170.269 26.4858 170.57 26.139C171.23 25.272 171.08 24.1594 170.119 22.8012Z" fill="url(#paint6_linear)"/>
<path fill-rule="evenodd" clip-rule="evenodd" d="M15.5939 6.50224L15.3687 7.6293C15.3987 8.06278 15.7139 8.27952 16.3144 8.27952C16.9448 8.27952 17.4402 8.04833 17.8004 7.58595C18.1607 7.12357 18.3408 6.54559 18.3408 5.85202C18.3108 4.66717 17.6954 3.78575 16.4945 3.20777C15.2936 2.6298 13.9577 2.34081 12.4866 2.34081C10.295 2.34081 8.32861 2.91879 6.58736 4.07474C4.87612 5.23069 4.02051 6.77678 4.02051 8.71301C4.02051 9.81116 4.4258 10.7937 5.23638 11.6607C6.04697 12.5277 7.02267 13.2646 8.16349 13.8715C9.33434 14.4783 10.4902 15.0852 11.631 15.6921C11.8881 15.8224 12.1369 15.9593 12.3773 16.1027C7.58453 17.618 3.77634 18.1629 0.990739 20.6338C0.330263 21.3852 2.50776e-05 22.2232 2.50776e-05 23.148C2.50776e-05 24.8819 1.72385 25.8356 3.34502 26.7025C4.96619 27.5406 6.99265 27.9596 9.4244 27.9596C11.8562 27.9596 14.1228 27.2227 16.2243 25.7489C18.3258 24.275 19.3766 22.2521 19.3766 19.6801C19.1645 17.1535 16.9129 15.1409 16.9129 15.1409C19.9687 13.5928 22.5417 13.2832 22.5417 13.2832C19.9687 14.9861 21.6211 27.7429 23.9932 27.7429C25.3141 27.7429 26.5901 26.8615 27.821 25.0987C28.5115 26.8615 29.6373 27.7429 31.1984 27.7429C32.7595 27.7429 34.0504 27.0349 35.0712 25.6188C36.0919 24.1739 36.8425 22.3822 37.3228 20.2436L40.5054 21.1787C40.5053 21.3549 40.5079 21.5345 40.5131 21.7175C40.5131 23.278 41.0084 24.6796 41.9991 25.9223C42.9899 27.136 44.3258 27.7429 46.007 27.7429C48.2456 27.7429 51.6139 26.0596 54.2942 24.5777C54.3545 25.0118 54.313 25.4281 54.5168 25.9223C55.1552 27.4708 56.8434 27.7429 58.5246 27.7429C61.4367 27.7429 63.9847 26.5436 65.9661 23.4514C66.0881 23.2589 66.2056 23.0681 66.3186 22.8791C66.3293 22.2182 66.3577 21.4778 66.4038 20.6581C66.124 21.6264 65.8017 22.5397 65.162 23.3461C64.5615 24.0975 63.1484 24.9542 62.4279 25.3587C61.7073 25.7633 60.5944 26.2876 59.6938 26.2876C58.7931 26.2876 57.4413 26.3826 56.638 25.5321C56.0354 24.8942 56.3163 23.3461 56.3163 23.3461C58.2463 22.5721 60.1008 21.4477 61.6769 19.5067C62.9023 17.9977 63.9736 16.8625 63.9736 15.1286C63.9736 14.2038 63.6433 13.4813 62.9829 12.9611C62.3224 12.4121 61.4818 12.1375 60.461 12.1375C58.4147 12.1375 53.211 14.7561 54.2075 23.8799C52.5352 24.9199 49.9599 26.042 47.1779 25.4888C46.2772 25.4888 45.4816 25.0842 44.7911 24.275C44.1307 23.437 43.7404 22.4544 43.6203 21.3274C45.8119 21.2696 47.6582 20.6627 49.1593 19.5067C50.6904 18.3219 51.456 16.8625 51.456 15.1286C51.456 14.2038 51.1257 13.4813 50.4652 12.9611C49.8048 12.4121 48.9642 12.1375 47.9434 12.1375C45.9039 12.1375 41.0172 13.1297 40.5426 20.0651C39.3982 19.8201 38.625 19.6306 37.66 18.6398C37.7501 17.8306 37.8182 16.7469 37.8182 15.9955C37.8182 13.1345 37.1277 11.704 35.7467 11.704C34.7259 11.704 33.9454 12.0942 33.405 12.8744C32.8946 13.6258 32.6394 14.5361 32.6394 15.6054C32.6394 16.6457 32.9396 17.5705 33.5401 18.3797C34.1405 19.1888 34.9961 19.7379 36.1069 20.0269C35.7767 21.5874 35.3114 22.9168 34.7109 24.0149C34.1105 25.0842 33.375 25.6188 32.5043 25.6188C31.9039 25.6188 31.3485 25.1854 30.8381 24.3184C30.3578 23.4225 30.0576 22.3388 29.9375 21.0673C30.7481 18.871 31.1534 17.0359 31.1534 15.562C31.1534 15.013 31.0933 14.6662 30.9732 14.5217C30.8832 14.3772 30.718 14.3049 30.4779 14.3049C29.7273 14.3049 29.0819 14.7818 28.5415 15.7354C28.0011 16.6891 27.6408 17.6428 27.4607 18.5964C27.2806 19.5212 27.1905 20.4026 27.1905 21.2407C27.1905 22.0498 27.2656 22.8156 27.4157 23.5381C26.545 24.9253 25.8095 25.6188 25.2091 25.6188C24.6086 25.6188 24.1433 25.1276 23.8131 24.145C23.5128 23.1335 23.3627 21.9776 23.3627 20.6771C23.3627 19.3478 23.3521 18.7919 23.507 17.8161C23.8111 15.9005 24.8338 14.7095 24.8938 13.3513C24.8938 12.8311 24.6687 12.571 24.2184 12.571C23.9181 12.571 23.1928 12.7385 22.5417 12.8744C20.1332 13.3772 16.5439 14.7635 16.5439 14.7635C16.1501 14.4658 15.7284 14.1974 15.2786 13.9581C14.1678 13.3224 13.042 12.7444 11.9012 12.2242C10.7904 11.6751 9.82969 11.0683 9.01911 10.4036C8.23855 9.71002 7.84826 8.9153 7.84826 8.01943C7.84826 7.09467 8.28358 6.2277 9.15421 5.41854C10.0549 4.58047 11.1056 4.16144 12.3065 4.16144C14.378 4.16144 15.4738 4.94171 15.5939 6.50224ZM5.8218 25.0987C4.92116 24.3184 4.23711 23.2161 4.20709 22.2624C4.68983 19.7854 5.97623 18.5469 13.0114 16.5101C13.5806 16.9032 14.0962 17.3385 14.5581 17.8161C15.3687 18.6542 15.774 19.5934 15.774 20.6338C15.774 22.1943 15.1735 23.5237 13.9727 24.6218C12.8018 25.72 11.3758 26.2691 9.6946 26.2691C8.04341 26.2691 6.75248 25.8789 5.8218 25.0987ZM35.0261 14.8251C35.0261 13.8426 35.1612 13.3513 35.4314 13.3513C36.1219 13.3513 36.4672 14.5361 36.4672 16.9058C36.4672 17.1948 36.4522 17.4116 36.4221 17.5561C35.4915 16.718 35.0261 15.8077 35.0261 14.8251ZM47.4931 18.6398C46.6825 19.4489 45.3916 19.998 43.6203 20.287C43.6803 18.582 44.0706 17.0359 44.7911 15.6487C45.5117 14.2327 46.3973 13.5247 47.4481 13.5247C48.3187 13.5247 48.754 14.1749 48.754 15.4753C48.754 16.7758 48.3337 17.8306 47.4931 18.6398ZM60.4979 18.6398C59.4954 20.4857 56.1555 22.4173 56.1555 22.4173C56.1555 22.4173 55.8338 19.0113 57.3088 15.6487C58.0293 14.2327 58.9149 13.5247 59.9657 13.5247C60.8363 13.5247 61.2716 14.1749 61.2716 15.4753C61.2716 16.7758 61.1089 17.5147 60.4979 18.6398Z" fill="url(#paint7_linear)"/>
<defs>
<linearGradient id="paint0_linear" x1="7.8615e-09" y1="16.82" x2="177.998" y2="17.5535" gradientUnits="userSpaceOnUse">
<stop stop-color="#FF5777"/>
<stop offset="0.484375" stop-color="#894252"/>
<stop offset="1" stop-color="#C54D65"/>
</linearGradient>
<linearGradient id="paint1_linear" x1="7.8615e-09" y1="16.82" x2="177.998" y2="17.5535" gradientUnits="userSpaceOnUse">
<stop stop-color="#FF5777"/>
<stop offset="0.484375" stop-color="#894252"/>
<stop offset="1" stop-color="#C54D65"/>
</linearGradient>
<linearGradient id="paint2_linear" x1="7.8615e-09" y1="16.82" x2="177.998" y2="17.5535" gradientUnits="userSpaceOnUse">
<stop stop-color="#FF5777"/>
<stop offset="0.484375" stop-color="#894252"/>
<stop offset="1" stop-color="#C54D65"/>
</linearGradient>
<linearGradient id="paint3_linear" x1="7.8615e-09" y1="16.82" x2="177.998" y2="17.5535" gradientUnits="userSpaceOnUse">
<stop stop-color="#FF5777"/>
<stop offset="0.484375" stop-color="#894252"/>
<stop offset="1" stop-color="#C54D65"/>
</linearGradient>
<linearGradient id="paint4_linear" x1="7.8615e-09" y1="16.82" x2="177.998" y2="17.5535" gradientUnits="userSpaceOnUse">
<stop stop-color="#FF5777"/>
<stop offset="0.484375" stop-color="#894252"/>
<stop offset="1" stop-color="#C54D65"/>
</linearGradient>
<linearGradient id="paint5_linear" x1="7.8615e-09" y1="16.82" x2="177.998" y2="17.5535" gradientUnits="userSpaceOnUse">
<stop stop-color="#FF5777"/>
<stop offset="0.484375" stop-color="#894252"/>
<stop offset="1" stop-color="#C54D65"/>
</linearGradient>
<linearGradient id="paint6_linear" x1="7.8615e-09" y1="16.82" x2="177.998" y2="17.5535" gradientUnits="userSpaceOnUse">
<stop stop-color="#FF5777"/>
<stop offset="0.484375" stop-color="#894252"/>
<stop offset="1" stop-color="#C54D65"/>
</linearGradient>
<linearGradient id="paint7_linear" x1="7.8615e-09" y1="16.82" x2="177.998" y2="17.5535" gradientUnits="userSpaceOnUse">
<stop stop-color="#FF5777"/>
<stop offset="0.484375" stop-color="#894252"/>
<stop offset="1" stop-color="#C54D65"/>
</linearGradient>
</defs>
</svg>
