<svg width="178" height="50" viewBox="0 0 178 50" fill="none" xmlns="http://www.w3.org/2000/svg">
<path d="M33.296 36.048L33.488 34.824C33.488 34.648 33.432 34.488 33.32 34.344C33.208 34.2 33.064 34.128 32.888 34.128C32.296 34.128 31.784 34.576 31.352 35.472C30.92 36.352 30.704 37.2 30.704 38.016C30.704 38.832 30.872 39.496 31.208 40.008C31.544 40.504 31.952 40.752 32.432 40.752C32.928 40.752 33.368 40.64 33.752 40.416C34.136 40.192 34.488 39.872 34.808 39.456C35.48 38.576 36.056 37.576 36.536 36.456C36.664 36.168 36.76 35.96 36.824 35.832C36.904 35.704 36.984 35.64 37.064 35.64C37.16 35.64 37.208 35.704 37.208 35.832C37.208 36.36 37.024 36.992 36.656 37.728C36.288 38.464 35.976 39.032 35.72 39.432C35.48 39.816 35.168 40.224 34.784 40.656C33.984 41.552 32.984 42 31.784 42C30.872 42 30.176 41.68 29.696 41.04C29.232 40.384 29 39.688 29 38.952C29 37.128 29.392 35.744 30.176 34.8C30.976 33.84 31.984 33.36 33.2 33.36C33.712 33.36 34.112 33.496 34.4 33.768C34.704 34.024 34.856 34.32 34.856 34.656C34.856 35.28 34.744 35.744 34.52 36.048C34.296 36.352 34.024 36.504 33.704 36.504C33.432 36.504 33.296 36.352 33.296 36.048Z" fill="url(#paint0_linear)"/>
<path d="M37.9552 35.616L39.2752 35.472C39.4032 35.472 39.5152 35.544 39.6112 35.688C39.7072 35.832 39.7552 35.984 39.7552 36.144C39.7552 36.304 39.6992 36.848 39.5872 37.776C39.4912 38.704 39.4432 39.44 39.4432 39.984C39.4432 40.512 39.4912 40.776 39.5872 40.776C39.8592 40.76 40.2352 40.424 40.7152 39.768C41.1952 39.096 41.6672 38.24 42.1312 37.2C42.6112 36.16 42.8992 35.64 42.9952 35.64C43.1072 35.64 43.1632 35.704 43.1632 35.832C43.1632 36.28 42.9312 36.992 42.4672 37.968C41.2032 40.656 40.1392 42 39.2752 42C38.6512 42 38.1792 41.872 37.8592 41.616C37.7472 41.504 37.6912 40.808 37.6912 39.528C37.6912 38.248 37.8272 37.152 38.0992 36.24C37.1712 36.24 36.5232 35.944 36.1552 35.352C35.9632 35.048 35.8672 34.704 35.8672 34.32C35.8672 33.936 35.9472 33.6 36.1072 33.312C36.2672 33.024 36.4912 32.88 36.7792 32.88C37.0832 32.88 37.3552 33.04 37.5952 33.36C37.8512 33.664 37.9792 34.008 37.9792 34.392C37.9792 34.776 37.8672 35.16 37.6432 35.544C37.7072 35.592 37.8112 35.616 37.9552 35.616Z" fill="url(#paint1_linear)"/>
<path d="M48.7284 42C48.1044 42 47.6324 41.872 47.3124 41.616C47.2004 41.504 47.1444 41.224 47.1444 40.776C47.1444 40.312 47.1604 39.696 47.1924 38.928C46.7764 39.968 46.3604 40.744 45.9444 41.256C45.5444 41.752 45.0244 42 44.3844 42C43.7444 42 43.1844 41.704 42.7044 41.112C42.2244 40.504 41.9844 39.56 41.9844 38.28C41.9844 36.984 42.3444 35.84 43.0644 34.848C43.8004 33.856 44.7604 33.36 45.9444 33.36C46.4564 33.36 47.0324 33.696 47.6724 34.368C47.8004 34.192 48.0244 33.984 48.3444 33.744C48.6804 33.488 48.9604 33.36 49.1844 33.36C49.4244 33.36 49.5444 33.664 49.5444 34.272C49.5444 34.432 49.4964 34.744 49.4004 35.208C49.3204 35.672 49.2244 36.008 49.1124 36.216C48.9684 36.584 48.8964 37.888 48.8964 40.128C48.8964 40.56 48.9444 40.776 49.0404 40.776C49.3124 40.76 49.6884 40.424 50.1684 39.768C50.6484 39.096 51.1204 38.24 51.5844 37.2C52.0644 36.16 52.3524 35.64 52.4484 35.64C52.5604 35.64 52.6164 35.704 52.6164 35.832C52.6164 36.28 52.3844 36.992 51.9204 37.968C50.6564 40.656 49.5924 42 48.7284 42ZM45.8004 34.32C45.3524 34.32 44.8724 34.656 44.3604 35.328C43.8644 35.984 43.6164 36.76 43.6164 37.656C43.6164 38.552 43.7444 39.288 44.0004 39.864C44.2724 40.44 44.6244 40.728 45.0564 40.728C45.5844 40.728 46.3604 39.408 47.3844 36.768C47.4004 36.64 47.4164 36.424 47.4324 36.12C47.4644 35.8 47.4884 35.56 47.5044 35.4C47.3604 35.144 47.1044 34.904 46.7364 34.68C46.3844 34.44 46.0724 34.32 45.8004 34.32Z" fill="url(#paint2_linear)"/>
<path d="M54.7479 36.816C55.6119 36.608 56.3319 36.344 56.9079 36.024C57.4999 35.704 57.8119 35.544 57.8439 35.544C57.9399 35.544 57.9879 35.624 57.9879 35.784C57.9879 35.944 57.8279 36.144 57.5079 36.384C56.8359 36.88 55.9959 37.304 54.9879 37.656C55.4039 39.24 55.6119 40.92 55.6119 42.696C55.6119 44.184 55.4439 45.608 55.1079 46.968C54.9159 47.736 54.6119 48.36 54.1959 48.84C53.7959 49.32 53.2999 49.56 52.7079 49.56C52.1959 49.56 51.8439 49.336 51.6519 48.888C51.4119 48.36 51.2759 47.856 51.2439 47.376C51.1959 46.624 51.1719 45.4 51.1719 43.704C51.1719 42.008 51.2999 39.96 51.5559 37.56C50.9799 37.144 50.6919 36.64 50.6919 36.048C50.6919 35.44 50.8199 34.976 51.0759 34.656C51.3319 34.32 51.6519 34.104 52.0359 34.008C52.2599 32.616 52.4759 31.416 52.6839 30.408C52.9079 29.4 53.2439 28.584 53.6919 27.96C54.1399 27.32 54.5879 27 55.0359 27C55.5479 27 55.8039 27.568 55.8039 28.704C55.8039 30.496 55.1399 32.512 53.8119 34.752C54.1479 35.232 54.4599 35.92 54.7479 36.816ZM53.0679 38.016C52.9239 39.984 52.8519 42.24 52.8519 44.784C52.8519 47.344 52.9879 48.624 53.2599 48.624C53.7399 48.624 54.1399 47.992 54.4599 46.728C54.7799 45.48 54.9399 44.072 54.9399 42.504C54.9399 40.952 54.7639 39.392 54.4119 37.824C53.9319 37.952 53.4839 38.016 53.0679 38.016ZM53.4279 34.416C53.8919 33.648 54.3159 32.744 54.6999 31.704C55.0839 30.648 55.2759 29.768 55.2759 29.064C55.2759 28.36 55.2039 28.008 55.0599 28.008C54.8039 28.008 54.5239 28.592 54.2199 29.76C53.9319 30.928 53.6679 32.48 53.4279 34.416ZM53.4279 35.376L53.2839 35.616L53.1639 36.84C53.3719 36.904 53.5559 36.936 53.7159 36.936C53.8919 36.936 54.0359 36.928 54.1479 36.912C53.9399 36.288 53.6999 35.776 53.4279 35.376ZM51.9399 34.608C51.6999 34.688 51.5799 34.872 51.5799 35.16C51.5799 35.448 51.6439 35.696 51.7719 35.904C51.8359 35.328 51.8919 34.896 51.9399 34.608Z" fill="url(#paint3_linear)"/>
<path d="M61.9854 37.968C60.7214 40.656 59.6494 42 58.7694 42C57.9054 42 57.3934 41.896 57.2334 41.688C57.0894 41.48 57.0174 40.792 57.0174 39.624C57.0174 38.456 57.1294 36.768 57.3534 34.56C56.5534 34.4 56.1294 34.072 56.0814 33.576C56.0814 33.32 56.2494 33.192 56.5854 33.192C56.9214 33.192 57.2174 33.256 57.4734 33.384C57.6174 32.232 57.7854 31.064 57.9774 29.88C58.0254 29.576 58.1774 29.288 58.4334 29.016C58.6894 28.744 58.9374 28.608 59.1774 28.608C59.3854 28.608 59.4894 28.936 59.4894 29.592C59.4894 29.896 59.3774 31.296 59.1534 33.792C59.5854 33.712 60.0574 33.552 60.5694 33.312C61.0974 33.072 61.4094 32.952 61.5054 32.952C61.7934 32.952 61.9374 33.04 61.9374 33.216C61.9534 33.376 61.6574 33.6 61.0494 33.888C60.4414 34.16 59.7854 34.368 59.0814 34.512C58.8894 36.848 58.7934 38.616 58.7934 39.816C58.7934 40.456 58.8894 40.776 59.0814 40.776C59.3694 40.76 59.7534 40.424 60.2334 39.768C60.7134 39.112 61.1854 38.264 61.6494 37.224C62.1294 36.168 62.4174 35.64 62.5134 35.64C62.6254 35.64 62.6814 35.704 62.6814 35.832C62.6814 36.28 62.4494 36.992 61.9854 37.968Z" fill="url(#paint4_linear)"/>
<path d="M64.3655 42C63.4695 42 62.7575 41.664 62.2295 40.992C61.7015 40.304 61.4375 39.528 61.4375 38.664C61.4375 36.92 61.8055 35.6 62.5415 34.704C63.2775 33.808 64.2295 33.36 65.3975 33.36C65.9415 33.36 66.3895 33.512 66.7415 33.816C67.0935 34.104 67.2695 34.504 67.2695 35.016C67.2695 35.976 66.8615 36.784 66.0455 37.44C65.2455 38.08 64.2615 38.416 63.0935 38.448C63.1575 39.072 63.3655 39.616 63.7175 40.08C64.0855 40.528 64.5095 40.752 64.9895 40.752C65.4695 40.752 65.9015 40.64 66.2855 40.416C66.6695 40.192 67.0215 39.872 67.3415 39.456C68.0135 38.576 68.5895 37.576 69.0695 36.456C69.1975 36.168 69.2935 35.96 69.3575 35.832C69.4375 35.704 69.5175 35.64 69.5975 35.64C69.6935 35.64 69.7415 35.704 69.7415 35.832C69.7415 36.632 69.2535 37.832 68.2775 39.432C67.2215 41.144 65.9175 42 64.3655 42ZM63.0935 37.872C64.0375 37.712 64.7255 37.408 65.1575 36.96C65.6055 36.512 65.8295 35.928 65.8295 35.208C65.8295 34.488 65.5975 34.128 65.1335 34.128C64.5735 34.128 64.1015 34.52 63.7175 35.304C63.3335 36.072 63.1255 36.928 63.0935 37.872Z" fill="url(#paint5_linear)"/>
<path d="M75.3088 42C74.7648 42 74.3408 41.88 74.0368 41.64C73.9088 41.512 73.8447 41.176 73.8447 40.632C73.8447 40.088 73.8688 39.376 73.9168 38.496C73.4848 39.648 73.0447 40.52 72.5967 41.112C72.1488 41.704 71.5807 42 70.8927 42C70.2207 42 69.6447 41.704 69.1647 41.112C68.7007 40.52 68.4688 39.576 68.4688 38.28C68.4688 36.984 68.8288 35.84 69.5488 34.848C70.2848 33.856 71.2448 33.36 72.4287 33.36C73.0047 33.36 73.6048 33.584 74.2288 34.032C74.4848 30.912 74.7168 29.152 74.9248 28.752C75.0208 28.576 75.2448 28.32 75.5968 27.984C75.9648 27.648 76.2688 27.48 76.5088 27.48C76.7488 27.48 76.8688 27.856 76.8688 28.608C76.8688 29.488 76.7887 30.248 76.6287 30.888C76.1968 32.536 75.9248 33.584 75.8128 34.032C75.5888 35.76 75.4767 37.792 75.4767 40.128C75.4767 40.56 75.5247 40.776 75.6208 40.776C75.9088 40.76 76.2928 40.424 76.7728 39.768C77.2528 39.112 77.7248 38.264 78.1888 37.224C78.6688 36.168 78.9567 35.64 79.0527 35.64C79.1647 35.64 79.2207 35.704 79.2207 35.832C79.2207 36.28 78.9888 36.992 78.5247 37.968C77.2607 40.656 76.1888 42 75.3088 42ZM72.2848 34.224C71.8528 34.224 71.4207 34.568 70.9888 35.256C70.5568 35.944 70.3408 36.744 70.3408 37.656C70.3408 38.552 70.4528 39.288 70.6768 39.864C70.9168 40.44 71.2127 40.728 71.5648 40.728C72.2848 40.728 73.1087 39.288 74.0368 36.408C74.1168 35.528 74.1567 35.008 74.1567 34.848C73.6927 34.432 73.0688 34.224 72.2848 34.224Z" fill="url(#paint6_linear)"/>
<path d="M86.9913 36.048L87.1833 34.824C87.1833 34.648 87.1273 34.488 87.0153 34.344C86.9033 34.2 86.7593 34.128 86.5833 34.128C85.9913 34.128 85.4793 34.576 85.0473 35.472C84.6153 36.352 84.3993 37.2 84.3993 38.016C84.3993 38.832 84.5673 39.496 84.9033 40.008C85.2393 40.504 85.6473 40.752 86.1273 40.752C86.6233 40.752 87.0633 40.64 87.4473 40.416C87.8313 40.192 88.1833 39.872 88.5033 39.456C89.1753 38.576 89.7513 37.576 90.2313 36.456C90.3593 36.168 90.4553 35.96 90.5193 35.832C90.5993 35.704 90.6793 35.64 90.7593 35.64C90.8553 35.64 90.9033 35.704 90.9033 35.832C90.9033 36.36 90.7193 36.992 90.3513 37.728C89.9833 38.464 89.6713 39.032 89.4153 39.432C89.1753 39.816 88.8633 40.224 88.4793 40.656C87.6793 41.552 86.6793 42 85.4793 42C84.5673 42 83.8713 41.68 83.3913 41.04C82.9273 40.384 82.6953 39.688 82.6953 38.952C82.6953 37.128 83.0873 35.744 83.8713 34.8C84.6713 33.84 85.6793 33.36 86.8953 33.36C87.4073 33.36 87.8073 33.496 88.0953 33.768C88.3993 34.024 88.5513 34.32 88.5513 34.656C88.5513 35.28 88.4393 35.744 88.2153 36.048C87.9913 36.352 87.7193 36.504 87.3993 36.504C87.1273 36.504 86.9913 36.352 86.9913 36.048Z" fill="url(#paint7_linear)"/>
<path d="M91.5545 40.584L91.5785 41.328C91.5785 41.776 91.4505 42 91.1945 42C90.8105 42 90.4425 41.952 90.0905 41.856C89.7385 41.744 89.5625 41.6 89.5625 41.424C89.5625 41.232 89.6025 40.6 89.6825 39.528C89.7785 38.44 89.8265 37.624 89.8265 37.08V35.688C89.8265 31.592 90.5545 28.984 92.0105 27.864C92.3465 27.608 92.6905 27.48 93.0425 27.48C93.2025 27.48 93.3625 27.656 93.5225 28.008C93.6825 28.36 93.7625 28.816 93.7625 29.376C93.7625 30.752 93.5305 32.04 93.0665 33.24C92.6025 34.44 92.1305 35.36 91.6505 36C91.6345 36.4 91.6265 37.024 91.6265 37.872C91.6905 37.776 92.0265 37.232 92.6345 36.24C93.2425 35.248 93.7545 34.52 94.1705 34.056C94.6025 33.592 94.9865 33.36 95.3225 33.36C95.6585 33.36 95.9545 33.472 96.2105 33.696C96.4825 33.92 96.6185 34.2 96.6185 34.536C96.6185 35.24 96.5385 36.28 96.3785 37.656C96.2345 39.016 96.1625 39.88 96.1625 40.248C96.1625 40.6 96.2105 40.776 96.3065 40.776C96.5785 40.76 96.9545 40.424 97.4345 39.768C97.9145 39.096 98.3865 38.24 98.8505 37.2C99.3305 36.16 99.6185 35.64 99.7145 35.64C99.8265 35.64 99.8825 35.704 99.8825 35.832C99.8825 36.28 99.6505 36.992 99.1865 37.968C97.9225 40.656 96.8585 42 95.9945 42C95.3705 42 94.8985 41.872 94.5785 41.616C94.4665 41.504 94.4105 41.216 94.4105 40.752C94.4105 40.272 94.4505 39.504 94.5305 38.448C94.6265 37.376 94.6745 36.576 94.6745 36.048C94.6745 35.52 94.5785 35.256 94.3865 35.256C94.2105 35.256 93.7305 35.808 92.9465 36.912C92.1625 38 91.7465 38.696 91.6985 39C91.6025 39.56 91.5545 40.088 91.5545 40.584ZM93.1145 29.904C93.1145 29.232 93.0265 28.896 92.8505 28.896C92.5625 28.896 92.2825 29.784 92.0105 31.56C91.8665 32.504 91.7625 33.6 91.6985 34.848C92.6425 32.88 93.1145 31.232 93.1145 29.904Z" fill="url(#paint8_linear)"/>
<path d="M105.981 36.672C106.621 36.464 107.061 36.288 107.301 36.144C107.557 35.984 107.749 35.864 107.877 35.784L108.165 35.616C108.245 35.568 108.309 35.544 108.357 35.544C108.485 35.544 108.549 35.616 108.549 35.76C108.549 35.904 108.301 36.16 107.805 36.528C107.309 36.88 106.693 37.2 105.957 37.488C105.845 38.832 105.421 39.92 104.685 40.752C103.949 41.584 102.901 42 101.541 42C100.549 42 99.7887 41.608 99.2607 40.824C98.7327 40.024 98.4688 39.096 98.4688 38.04C98.4688 36.968 98.7807 35.96 99.4047 35.016C100.045 34.072 100.861 33.6 101.853 33.6C102.301 33.28 102.829 33.12 103.437 33.12C104.061 33.12 104.637 33.448 105.165 34.104C105.693 34.76 105.965 35.616 105.981 36.672ZM104.421 37.896L103.557 37.944C102.821 37.944 102.197 37.728 101.685 37.296C101.173 36.848 100.917 36.36 100.917 35.832C100.917 35.304 101.005 34.848 101.181 34.464C100.493 35.008 100.149 36.08 100.149 37.68C100.149 38.448 100.309 39.184 100.629 39.888C100.949 40.576 101.453 40.92 102.141 40.92C102.829 40.92 103.365 40.632 103.749 40.056C104.133 39.464 104.357 38.744 104.421 37.896ZM102.933 33.912C102.677 33.912 102.477 34.032 102.333 34.272C102.189 34.496 102.117 34.744 102.117 35.016C102.117 35.608 102.317 36.088 102.717 36.456C103.133 36.824 103.613 37.008 104.157 37.008H104.445C104.413 36.224 104.277 35.512 104.037 34.872C103.813 34.232 103.445 33.912 102.933 33.912Z" fill="url(#paint9_linear)"/>
<path d="M111.507 36.048L111.699 34.824C111.699 34.648 111.643 34.488 111.531 34.344C111.419 34.2 111.275 34.128 111.099 34.128C110.507 34.128 109.995 34.576 109.563 35.472C109.131 36.352 108.915 37.2 108.915 38.016C108.915 38.832 109.083 39.496 109.419 40.008C109.755 40.504 110.163 40.752 110.643 40.752C111.139 40.752 111.579 40.64 111.963 40.416C112.347 40.192 112.699 39.872 113.019 39.456C113.691 38.576 114.267 37.576 114.747 36.456C114.875 36.168 114.971 35.96 115.035 35.832C115.115 35.704 115.195 35.64 115.275 35.64C115.371 35.64 115.419 35.704 115.419 35.832C115.419 36.36 115.235 36.992 114.867 37.728C114.499 38.464 114.187 39.032 113.931 39.432C113.691 39.816 113.379 40.224 112.995 40.656C112.195 41.552 111.195 42 109.995 42C109.083 42 108.387 41.68 107.907 41.04C107.443 40.384 107.211 39.688 107.211 38.952C107.211 37.128 107.603 35.744 108.387 34.8C109.187 33.84 110.195 33.36 111.411 33.36C111.923 33.36 112.323 33.496 112.611 33.768C112.915 34.024 113.067 34.32 113.067 34.656C113.067 35.28 112.955 35.744 112.731 36.048C112.507 36.352 112.235 36.504 111.915 36.504C111.643 36.504 111.507 36.352 111.507 36.048Z" fill="url(#paint10_linear)"/>
<path d="M121.59 36.672C122.23 36.464 122.67 36.288 122.91 36.144C123.166 35.984 123.358 35.864 123.486 35.784L123.774 35.616C123.854 35.568 123.918 35.544 123.966 35.544C124.094 35.544 124.158 35.616 124.158 35.76C124.158 35.904 123.91 36.16 123.414 36.528C122.918 36.88 122.302 37.2 121.566 37.488C121.454 38.832 121.03 39.92 120.294 40.752C119.558 41.584 118.51 42 117.15 42C116.158 42 115.398 41.608 114.87 40.824C114.342 40.024 114.078 39.096 114.078 38.04C114.078 36.968 114.39 35.96 115.014 35.016C115.654 34.072 116.47 33.6 117.462 33.6C117.91 33.28 118.438 33.12 119.046 33.12C119.67 33.12 120.246 33.448 120.774 34.104C121.302 34.76 121.574 35.616 121.59 36.672ZM120.03 37.896L119.166 37.944C118.43 37.944 117.806 37.728 117.294 37.296C116.782 36.848 116.526 36.36 116.526 35.832C116.526 35.304 116.614 34.848 116.79 34.464C116.102 35.008 115.758 36.08 115.758 37.68C115.758 38.448 115.918 39.184 116.238 39.888C116.558 40.576 117.062 40.92 117.75 40.92C118.438 40.92 118.974 40.632 119.358 40.056C119.742 39.464 119.966 38.744 120.03 37.896ZM118.542 33.912C118.286 33.912 118.086 34.032 117.942 34.272C117.798 34.496 117.726 34.744 117.726 35.016C117.726 35.608 117.926 36.088 118.326 36.456C118.742 36.824 119.222 37.008 119.766 37.008H120.054C120.022 36.224 119.886 35.512 119.646 34.872C119.422 34.232 119.054 33.912 118.542 33.912Z" fill="url(#paint11_linear)"/>
<path d="M124.572 42C124.22 42 123.892 41.96 123.588 41.88C123.3 41.784 123.124 41.696 123.06 41.616C122.9 41.424 122.82 40.432 122.82 38.64C122.82 36.832 123.02 34.384 123.42 31.296C123.756 28.752 124.54 27.48 125.772 27.48C126.06 27.48 126.268 27.64 126.396 27.96C126.524 28.264 126.588 28.56 126.588 28.848C126.588 30.928 125.956 33.256 124.692 35.832C124.644 37.16 124.62 38.32 124.62 39.312C124.62 40.288 124.708 40.776 124.884 40.776C125.156 40.76 125.532 40.424 126.012 39.768C126.492 39.096 126.964 38.24 127.428 37.2C127.908 36.16 128.196 35.64 128.292 35.64C128.404 35.64 128.46 35.704 128.46 35.832C128.46 36.28 128.228 36.992 127.764 37.968C126.5 40.656 125.436 42 124.572 42ZM125.988 29.064C125.988 28.552 125.924 28.296 125.796 28.296C125.316 28.296 124.964 30.288 124.74 34.272C125.572 32.08 125.988 30.344 125.988 29.064Z" fill="url(#paint12_linear)"/>
<path d="M133.76 42C133.136 42 132.664 41.872 132.344 41.616C132.232 41.504 132.176 41.224 132.176 40.776C132.176 40.312 132.192 39.696 132.224 38.928C131.808 39.968 131.392 40.744 130.976 41.256C130.576 41.752 130.056 42 129.416 42C128.776 42 128.216 41.704 127.736 41.112C127.256 40.504 127.016 39.56 127.016 38.28C127.016 36.984 127.376 35.84 128.096 34.848C128.832 33.856 129.792 33.36 130.976 33.36C131.488 33.36 132.064 33.696 132.704 34.368C132.832 34.192 133.056 33.984 133.376 33.744C133.712 33.488 133.992 33.36 134.216 33.36C134.456 33.36 134.576 33.664 134.576 34.272C134.576 34.432 134.528 34.744 134.432 35.208C134.352 35.672 134.256 36.008 134.144 36.216C134 36.584 133.928 37.888 133.928 40.128C133.928 40.56 133.976 40.776 134.072 40.776C134.344 40.76 134.72 40.424 135.2 39.768C135.68 39.096 136.152 38.24 136.616 37.2C137.096 36.16 137.384 35.64 137.48 35.64C137.592 35.64 137.648 35.704 137.648 35.832C137.648 36.28 137.416 36.992 136.952 37.968C135.688 40.656 134.624 42 133.76 42ZM130.832 34.32C130.384 34.32 129.904 34.656 129.392 35.328C128.896 35.984 128.648 36.76 128.648 37.656C128.648 38.552 128.776 39.288 129.032 39.864C129.304 40.44 129.656 40.728 130.088 40.728C130.616 40.728 131.392 39.408 132.416 36.768C132.432 36.64 132.448 36.424 132.464 36.12C132.496 35.8 132.52 35.56 132.536 35.4C132.392 35.144 132.136 34.904 131.768 34.68C131.416 34.44 131.104 34.32 130.832 34.32Z" fill="url(#paint13_linear)"/>
<path d="M141.579 37.968C140.315 40.656 139.243 42 138.363 42C137.499 42 136.987 41.896 136.827 41.688C136.683 41.48 136.611 40.792 136.611 39.624C136.611 38.456 136.723 36.768 136.947 34.56C136.147 34.4 135.723 34.072 135.675 33.576C135.675 33.32 135.843 33.192 136.179 33.192C136.515 33.192 136.811 33.256 137.067 33.384C137.211 32.232 137.379 31.064 137.571 29.88C137.619 29.576 137.771 29.288 138.027 29.016C138.283 28.744 138.531 28.608 138.771 28.608C138.979 28.608 139.083 28.936 139.083 29.592C139.083 29.896 138.971 31.296 138.747 33.792C139.179 33.712 139.651 33.552 140.163 33.312C140.691 33.072 141.003 32.952 141.099 32.952C141.387 32.952 141.531 33.04 141.531 33.216C141.547 33.376 141.251 33.6 140.643 33.888C140.035 34.16 139.379 34.368 138.675 34.512C138.483 36.848 138.387 38.616 138.387 39.816C138.387 40.456 138.483 40.776 138.675 40.776C138.963 40.76 139.347 40.424 139.827 39.768C140.307 39.112 140.779 38.264 141.243 37.224C141.723 36.168 142.011 35.64 142.107 35.64C142.219 35.64 142.275 35.704 142.275 35.832C142.275 36.28 142.043 36.992 141.579 37.968Z" fill="url(#paint14_linear)"/>
<path d="M143.959 42C143.063 42 142.351 41.664 141.823 40.992C141.295 40.304 141.031 39.528 141.031 38.664C141.031 36.92 141.399 35.6 142.135 34.704C142.871 33.808 143.823 33.36 144.991 33.36C145.535 33.36 145.983 33.512 146.335 33.816C146.687 34.104 146.863 34.504 146.863 35.016C146.863 35.976 146.455 36.784 145.639 37.44C144.839 38.08 143.855 38.416 142.687 38.448C142.751 39.072 142.959 39.616 143.311 40.08C143.679 40.528 144.103 40.752 144.583 40.752C145.063 40.752 145.495 40.64 145.879 40.416C146.263 40.192 146.615 39.872 146.935 39.456C147.607 38.576 148.183 37.576 148.663 36.456C148.791 36.168 148.887 35.96 148.951 35.832C149.031 35.704 149.111 35.64 149.191 35.64C149.287 35.64 149.335 35.704 149.335 35.832C149.335 36.632 148.847 37.832 147.871 39.432C146.815 41.144 145.511 42 143.959 42ZM142.687 37.872C143.631 37.712 144.319 37.408 144.751 36.96C145.199 36.512 145.423 35.928 145.423 35.208C145.423 34.488 145.191 34.128 144.727 34.128C144.167 34.128 143.695 34.52 143.311 35.304C142.927 36.072 142.719 36.928 142.687 37.872Z" fill="url(#paint15_linear)"/>
<path d="M75.6356 20.4604C73.2639 25.3154 71.2524 27.7429 69.6012 27.7429C67.98 27.7429 67.0194 27.5551 66.7191 27.1794C66.4489 26.8037 66.3138 25.561 66.3138 23.4514C66.3138 23.2678 66.3154 23.077 66.3186 22.8791C66.3293 22.2182 66.3577 21.4778 66.4038 20.6581C66.5026 18.904 66.6828 16.7862 66.9443 14.3049C65.4432 14.0159 64.6476 13.4235 64.5576 12.5277C64.5576 12.0653 64.8728 11.8341 65.5033 11.8341C66.1337 11.8341 66.6891 11.9497 67.1695 12.1809C67.4397 10.1002 67.7549 7.99053 68.1151 5.85202C68.2052 5.30294 68.4904 4.78276 68.9708 4.29148C69.4511 3.8002 69.9164 3.55456 70.3668 3.55456C70.757 3.55456 70.9522 4.14699 70.9522 5.33184C70.9522 5.88092 70.742 8.40957 70.3217 12.9178C71.1323 12.7733 72.018 12.4843 72.9786 12.0508C73.9694 11.6173 74.5548 11.4006 74.7349 11.4006C75.2753 11.4006 75.5455 11.5595 75.5455 11.8774C75.5755 12.1664 75.0201 12.571 73.8793 13.0912C72.7385 13.5825 71.5076 13.9581 70.1866 14.2182C69.8264 18.4375 69.6462 21.6308 69.6462 23.7982C69.6462 24.9542 69.8264 25.5321 70.1866 25.5321C70.727 25.5032 71.4475 24.8964 72.3482 23.7115C73.2488 22.5267 74.1345 20.995 75.0051 19.1166C75.9058 17.2093 76.4461 16.2556 76.6263 16.2556C76.8364 16.2556 76.9415 16.3712 76.9415 16.6024C76.9415 17.4116 76.5062 18.6976 75.6356 20.4604Z" fill="url(#paint16_linear)"/>
<path d="M77.4446 11.9641L77.7148 14.7384C77.7148 15.0274 77.5497 15.2586 77.2194 15.432C76.9192 15.6054 76.664 15.6921 76.4539 15.6921C76.0336 15.6921 75.6583 15.3742 75.3281 14.7384C75.0279 14.0737 74.8777 13.4669 74.8777 12.9178C74.8777 10.7793 75.6433 8.9731 77.1744 7.49925C78.7355 5.99651 80.7019 4.86946 83.0736 4.11809C83.0736 3.13553 83.2838 2.21076 83.7041 1.3438C84.1544 0.447932 84.8449 0 85.7756 0C86.1658 0 86.361 0.534629 86.361 1.60389V3.42451C87.3217 3.30892 88.0272 3.25112 88.4775 3.25112C92.4704 3.25112 95.6227 4.33483 97.9343 6.50224C100.276 8.64076 101.447 11.3428 101.447 14.6084C101.447 16.8625 101.027 18.8565 100.186 20.5904C99.3453 22.3244 98.2045 23.6971 96.7635 24.7085C93.8814 26.7314 90.4289 27.7429 86.406 27.7429H85.4603C85.3703 28.581 85.2502 29 85.1001 29C83.689 29 82.7434 28.8122 82.2631 28.4365C82.0529 28.2342 81.9328 27.8874 81.9028 27.3961C79.2309 26.6736 77.8949 25.8789 77.8949 25.012C77.8949 24.723 78 24.5062 78.2101 24.3617C78.4203 24.1883 78.6455 24.1016 78.8856 24.1016C79.1558 24.1016 80.1616 24.4484 81.9028 25.142C82.173 17.5705 82.5182 11.0683 82.9385 5.63528C81.2873 6.18436 79.9514 7.00797 78.9307 8.10613C77.94 9.20429 77.4446 10.4903 77.4446 11.9641ZM87.2616 4.9417C86.8413 4.9417 86.5261 4.95615 86.3159 4.98505C86.1959 10.0424 86.0458 14.2905 85.8656 17.7294C85.7155 22.2088 85.6104 25.0264 85.5504 26.1824C86.1508 26.2691 86.7813 26.3124 87.4418 26.3124C90.2938 26.3124 92.7706 25.3009 94.8721 23.278C96.9736 21.2262 98.0244 18.712 98.0244 15.7354C98.0244 12.7588 97.0187 10.2157 95.0072 8.10613C92.9958 5.99651 90.4139 4.9417 87.2616 4.9417Z" fill="url(#paint17_linear)"/>
<path d="M106.639 16.2123L109.116 15.9522C109.356 15.9522 109.566 16.0822 109.746 16.3423C109.926 16.6024 110.016 16.8769 110.016 17.1659C110.016 17.4549 109.911 18.4375 109.701 20.1136C109.521 21.7897 109.431 23.1191 109.431 24.1016C109.431 25.0553 109.521 25.5321 109.701 25.5321C110.212 25.5032 110.917 24.8964 111.818 23.7115C112.718 22.4978 113.604 20.9517 114.475 19.0732C115.375 17.1948 115.916 16.2556 116.096 16.2556C116.306 16.2556 116.411 16.3712 116.411 16.6024C116.411 17.4116 115.976 18.6976 115.105 20.4604C112.733 25.3154 110.737 27.7429 109.116 27.7429C107.945 27.7429 107.059 27.5117 106.459 27.0493C106.249 26.847 106.144 25.5899 106.144 23.278C106.144 20.9661 106.399 18.9865 106.909 17.3393C105.168 17.3393 103.952 16.8047 103.262 15.7354C102.901 15.1863 102.721 14.565 102.721 13.8715C102.721 13.1779 102.871 12.571 103.171 12.0508C103.472 11.5306 103.892 11.2706 104.432 11.2706C105.003 11.2706 105.513 11.5595 105.963 12.1375C106.444 12.6866 106.684 13.3079 106.684 14.0015C106.684 14.6951 106.474 15.3886 106.054 16.0822C106.174 16.1689 106.369 16.2123 106.639 16.2123Z" fill="url(#paint18_linear)"/>
<path d="M119.018 27.7429C117.336 27.7429 116 27.136 115.01 25.9223C114.019 24.6796 113.524 23.278 113.524 21.7175C113.524 18.5675 114.214 16.1834 115.595 14.565C116.976 12.9467 118.762 12.1375 120.954 12.1375C121.975 12.1375 122.815 12.4121 123.476 12.9611C124.136 13.4813 124.467 14.2038 124.467 15.1286C124.467 16.8625 123.701 18.3219 122.17 19.5067C120.669 20.6627 118.822 21.2696 116.631 21.3274C116.751 22.4544 117.141 23.437 117.802 24.275C118.492 25.0842 119.288 25.4888 120.188 25.4888C121.089 25.4888 121.9 25.2865 122.62 24.8819C123.341 24.4773 124.001 23.8994 124.602 23.148C125.863 21.5585 126.943 19.7524 127.844 17.7294C128.084 17.2093 128.264 16.8336 128.384 16.6024C128.534 16.3712 128.685 16.2556 128.835 16.2556C129.015 16.2556 129.105 16.3712 129.105 16.6024C129.105 18.0473 128.189 20.2147 126.358 23.1046C124.376 26.1968 121.93 27.7429 119.018 27.7429ZM116.631 20.287C118.402 19.998 119.693 19.4489 120.504 18.6398C121.344 17.8306 121.765 16.7758 121.765 15.4753C121.765 14.1749 121.329 13.5247 120.459 13.5247C119.408 13.5247 118.522 14.2327 117.802 15.6487C117.081 17.0359 116.691 18.582 116.631 20.287Z" fill="url(#paint19_linear)"/>
<path d="M138.695 27.7429C137.525 27.7429 136.639 27.5117 136.038 27.0493C135.828 26.847 135.723 26.3413 135.723 25.5321C135.723 24.6941 135.753 23.5815 135.813 22.1943C135.033 24.0727 134.252 25.4743 133.472 26.3991C132.721 27.295 131.745 27.7429 130.544 27.7429C129.344 27.7429 128.293 27.2083 127.392 26.139C126.492 25.0409 126.041 23.3358 126.041 21.0239C126.041 18.6831 126.717 16.6168 128.068 14.8251C129.449 13.0334 131.25 12.1375 133.472 12.1375C134.432 12.1375 135.513 12.7444 136.714 13.9581C136.954 13.6403 137.374 13.2646 137.975 12.8311C138.605 12.3687 139.131 12.1375 139.551 12.1375C140.001 12.1375 140.226 12.6866 140.226 13.7848C140.226 14.0737 140.136 14.6373 139.956 15.4753C139.806 16.3134 139.626 16.9203 139.416 17.296C139.146 17.9606 139.011 20.3159 139.011 24.3617C139.011 25.142 139.101 25.5321 139.281 25.5321C139.791 25.5032 140.497 24.8964 141.397 23.7115C142.298 22.4978 143.184 20.9517 144.054 19.0732C144.955 17.1948 145.495 16.2556 145.675 16.2556C145.886 16.2556 145.991 16.3712 145.991 16.6024C145.991 17.4116 145.555 18.6976 144.685 20.4604C142.313 25.3154 140.317 27.7429 138.695 27.7429ZM133.201 13.8715C132.361 13.8715 131.46 14.4783 130.499 15.6921C129.569 16.8769 129.103 18.2785 129.103 19.8969C129.103 21.5152 129.344 22.8445 129.824 23.8849C130.334 24.9253 130.995 25.4454 131.805 25.4454C132.796 25.4454 134.252 23.0613 136.174 18.293C136.204 18.0618 136.234 17.6716 136.264 17.1226C136.324 16.5446 136.369 16.1111 136.399 15.8221C136.129 15.3597 135.648 14.9263 134.958 14.5217C134.297 14.0882 133.712 13.8715 133.201 13.8715Z" fill="url(#paint20_linear)"/>
<path d="M146.342 25.1854L146.387 26.5292C146.387 27.3383 146.147 27.7429 145.667 27.7429C144.946 27.7429 144.256 27.6562 143.595 27.4828C142.935 27.2805 142.605 27.0204 142.605 26.7025C142.605 26.3558 142.68 25.2143 142.83 23.278C143.01 21.3129 143.1 19.8391 143.1 18.8565V16.299C143.1 14.9118 143.25 14.0737 143.55 13.7848C143.851 13.4958 144.376 13.0767 145.127 12.5277C145.907 11.9786 146.463 11.704 146.793 11.704C147.153 11.704 147.378 11.7618 147.468 11.8774C147.558 11.993 147.603 12.2098 147.603 12.5277C147.603 14.0593 147.303 15.5042 146.703 16.8625C146.553 18.5097 146.478 19.6512 146.478 20.287C148.069 17.426 149.179 15.5476 149.81 14.6517C150.921 12.9756 151.926 12.1375 152.827 12.1375C153.398 12.1375 153.923 12.3543 154.403 12.7877C154.914 13.2212 155.169 13.7559 155.169 14.3916C155.169 15.0274 155.154 15.6343 155.124 16.2123C155.124 16.7613 155.109 17.1948 155.079 17.5127C155.049 17.8306 155.034 18.0329 155.034 18.1196C155.154 17.8884 155.664 17.2382 156.565 16.1689C157.465 15.0997 158.066 14.4061 158.366 14.0882C158.696 13.7703 159.042 13.4524 159.402 13.1345C160.092 12.4699 160.708 12.1375 161.248 12.1375C161.819 12.1375 162.344 12.3398 162.824 12.7444C163.335 13.149 163.59 13.6547 163.59 14.2616C163.59 15.5331 163.44 17.4116 163.14 19.8969C162.869 22.3533 162.734 23.9138 162.734 24.5785C162.734 25.2143 162.824 25.5321 163.004 25.5321C163.515 25.5032 164.22 24.8964 165.121 23.7115C166.022 22.4978 166.907 20.9517 167.778 19.0732C168.679 17.1948 169.219 16.2556 169.399 16.2556C169.609 16.2556 169.714 16.3712 169.714 16.6024C169.714 17.4116 169.279 18.6976 168.408 20.4604C166.037 25.3154 164.04 27.7429 162.419 27.7429C161.398 27.7429 160.588 27.5117 159.987 27.0493C159.777 26.847 159.672 26.3269 159.672 25.4888C159.672 24.6218 159.747 23.2347 159.897 21.3274C160.077 19.3911 160.167 17.9462 160.167 16.9925C160.167 16.0389 160.002 15.562 159.672 15.562C159.282 15.562 158.426 16.1978 157.105 17.4694C155.814 18.7409 155.124 19.6368 155.034 20.157C154.854 21.1395 154.764 23.2636 154.764 26.5292C154.764 27.3383 154.538 27.7429 154.088 27.7429C153.398 27.7429 152.737 27.6562 152.107 27.4828C151.506 27.2805 151.206 27.0204 151.206 26.7025C151.206 26.3558 151.296 24.9253 151.476 22.4111C151.656 19.8969 151.746 18.134 151.746 17.1226C151.746 16.0822 151.566 15.562 151.206 15.562C150.876 15.562 150.05 16.559 148.729 18.5531C147.408 20.5182 146.673 21.8909 146.523 22.6712C146.402 23.4514 146.342 24.2895 146.342 25.1854Z" fill="url(#paint21_linear)"/>
<path d="M173.001 14.2616L173.091 13.6114C173.091 13.0912 172.776 12.8311 172.146 12.8311C171.545 12.8311 170.96 13.2212 170.39 14.0015C169.819 14.7529 169.534 15.3742 169.534 15.8655C169.534 16.3568 169.564 16.7469 169.624 17.0359C169.684 17.3249 169.744 17.5705 169.804 17.7728C169.894 17.9462 170.029 18.1629 170.209 18.423C170.39 18.6831 170.525 18.871 170.615 18.9865L171.11 19.5934C171.32 19.8824 171.47 20.0703 171.56 20.157C173.121 18.9143 174.983 17.5272 177.144 15.9955C177.264 15.9088 177.4 15.8655 177.55 15.8655C177.85 15.8655 178 16.0244 178 16.3423C178 16.6602 177.865 16.9058 177.595 17.0792C175.673 18.2641 173.857 19.5501 172.146 20.9372C172.806 21.862 173.137 22.8734 173.137 23.9716C173.137 25.0698 172.701 26.009 171.831 26.7892C170.96 27.5695 169.849 27.9596 168.498 27.9596C167.147 27.9596 166.472 27.3383 166.472 26.0957C166.472 25.1998 167.462 23.8271 169.444 21.9776C169.294 21.8042 169.024 21.5296 168.633 21.154C168.243 20.7494 167.943 20.4315 167.733 20.2003C167.552 19.9691 167.327 19.6657 167.057 19.29C166.577 18.5675 166.337 17.7872 166.337 16.9492C166.337 15.2441 166.907 13.8715 168.048 12.8311C169.189 11.7618 170.405 11.2272 171.695 11.2272C172.506 11.2272 173.136 11.4439 173.587 11.8774C174.037 12.282 174.262 12.701 174.262 13.1345C174.262 14.1171 174.022 14.6084 173.542 14.6084C173.182 14.6084 173.001 14.4928 173.001 14.2616ZM170.119 22.8012C168.918 23.9572 168.318 24.8964 168.318 25.6188C168.318 26.3124 168.693 26.6592 169.444 26.6592C169.894 26.6592 170.269 26.4858 170.57 26.139C171.23 25.272 171.08 24.1594 170.119 22.8012Z" fill="url(#paint22_linear)"/>
<path fill-rule="evenodd" clip-rule="evenodd" d="M15.5939 6.50224L15.3687 7.6293C15.3987 8.06278 15.7139 8.27952 16.3144 8.27952C16.9448 8.27952 17.4402 8.04833 17.8004 7.58595C18.1607 7.12357 18.3408 6.54559 18.3408 5.85202C18.3108 4.66717 17.6954 3.78575 16.4945 3.20777C15.2936 2.6298 13.9577 2.34081 12.4866 2.34081C10.295 2.34081 8.32861 2.91879 6.58736 4.07474C4.87612 5.23069 4.02051 6.77678 4.02051 8.71301C4.02051 9.81116 4.4258 10.7937 5.23638 11.6607C6.04697 12.5277 7.02267 13.2646 8.16349 13.8715C9.33434 14.4783 10.4902 15.0852 11.631 15.6921C11.8881 15.8224 12.1369 15.9593 12.3773 16.1027C7.58453 17.618 3.77634 18.1629 0.990739 20.6338C0.330263 21.3852 2.50776e-05 22.2232 2.50776e-05 23.148C2.50776e-05 24.8819 1.72385 25.8356 3.34502 26.7025C4.96619 27.5406 6.99265 27.9596 9.4244 27.9596C11.8562 27.9596 14.1228 27.2227 16.2243 25.7489C18.3258 24.275 19.3766 22.2521 19.3766 19.6801C19.1645 17.1535 16.9129 15.1409 16.9129 15.1409C19.9687 13.5928 22.5417 13.2832 22.5417 13.2832C19.9687 14.9861 21.6211 27.7429 23.9932 27.7429C25.3141 27.7429 26.5901 26.8615 27.821 25.0987C28.5115 26.8615 29.6373 27.7429 31.1984 27.7429C32.7595 27.7429 34.0504 27.0349 35.0712 25.6188C36.0919 24.1739 36.8425 22.3822 37.3228 20.2436L40.5054 21.1787C40.5053 21.3549 40.5079 21.5345 40.5131 21.7175C40.5131 23.278 41.0084 24.6796 41.9991 25.9223C42.9899 27.136 44.3258 27.7429 46.007 27.7429C48.2456 27.7429 51.6139 26.0596 54.2942 24.5777C54.3545 25.0118 54.313 25.4281 54.5168 25.9223C55.1552 27.4708 56.8434 27.7429 58.5246 27.7429C61.4367 27.7429 63.9847 26.5436 65.9661 23.4514C66.0881 23.2589 66.2056 23.0681 66.3186 22.8791C66.3293 22.2182 66.3577 21.4778 66.4038 20.6581C66.124 21.6264 65.8017 22.5397 65.162 23.3461C64.5615 24.0975 63.1484 24.9542 62.4279 25.3587C61.7073 25.7633 60.5944 26.2876 59.6938 26.2876C58.7931 26.2876 57.4413 26.3826 56.638 25.5321C56.0354 24.8942 56.3163 23.3461 56.3163 23.3461C58.2463 22.5721 60.1008 21.4477 61.6769 19.5067C62.9023 17.9977 63.9736 16.8625 63.9736 15.1286C63.9736 14.2038 63.6433 13.4813 62.9829 12.9611C62.3224 12.4121 61.4818 12.1375 60.461 12.1375C58.4147 12.1375 53.211 14.7561 54.2075 23.8799C52.5352 24.9199 49.9599 26.042 47.1779 25.4888C46.2772 25.4888 45.4816 25.0842 44.7911 24.275C44.1307 23.437 43.7404 22.4544 43.6203 21.3274C45.8119 21.2696 47.6582 20.6627 49.1593 19.5067C50.6904 18.3219 51.456 16.8625 51.456 15.1286C51.456 14.2038 51.1257 13.4813 50.4652 12.9611C49.8048 12.4121 48.9642 12.1375 47.9434 12.1375C45.9039 12.1375 41.0172 13.1297 40.5426 20.0651C39.3982 19.8201 38.625 19.6306 37.66 18.6398C37.7501 17.8306 37.8182 16.7469 37.8182 15.9955C37.8182 13.1345 37.1277 11.704 35.7467 11.704C34.7259 11.704 33.9454 12.0942 33.405 12.8744C32.8946 13.6258 32.6394 14.5361 32.6394 15.6054C32.6394 16.6457 32.9396 17.5705 33.5401 18.3797C34.1405 19.1888 34.9961 19.7379 36.1069 20.0269C35.7767 21.5874 35.3114 22.9168 34.7109 24.0149C34.1105 25.0842 33.375 25.6188 32.5043 25.6188C31.9039 25.6188 31.3485 25.1854 30.8381 24.3184C30.3578 23.4225 30.0576 22.3388 29.9375 21.0673C30.7481 18.871 31.1534 17.0359 31.1534 15.562C31.1534 15.013 31.0933 14.6662 30.9732 14.5217C30.8832 14.3772 30.718 14.3049 30.4779 14.3049C29.7273 14.3049 29.0819 14.7818 28.5415 15.7354C28.0011 16.6891 27.6408 17.6428 27.4607 18.5964C27.2806 19.5212 27.1905 20.4026 27.1905 21.2407C27.1905 22.0498 27.2656 22.8156 27.4157 23.5381C26.545 24.9253 25.8095 25.6188 25.2091 25.6188C24.6086 25.6188 24.1433 25.1276 23.8131 24.145C23.5128 23.1335 23.3627 21.9776 23.3627 20.6771C23.3627 19.3478 23.3521 18.7919 23.507 17.8161C23.8111 15.9005 24.8338 14.7095 24.8938 13.3513C24.8938 12.8311 24.6687 12.571 24.2184 12.571C23.9181 12.571 23.1928 12.7385 22.5417 12.8744C20.1332 13.3772 16.5439 14.7635 16.5439 14.7635C16.1501 14.4658 15.7284 14.1974 15.2786 13.9581C14.1678 13.3224 13.042 12.7444 11.9012 12.2242C10.7904 11.6751 9.82969 11.0683 9.01911 10.4036C8.23855 9.71002 7.84826 8.9153 7.84826 8.01943C7.84826 7.09467 8.28358 6.2277 9.15421 5.41854C10.0549 4.58047 11.1056 4.16144 12.3065 4.16144C14.378 4.16144 15.4738 4.94171 15.5939 6.50224ZM5.8218 25.0987C4.92116 24.3184 4.23711 23.2161 4.20709 22.2624C4.68983 19.7854 5.97623 18.5469 13.0114 16.5101C13.5806 16.9032 14.0962 17.3385 14.5581 17.8161C15.3687 18.6542 15.774 19.5934 15.774 20.6338C15.774 22.1943 15.1735 23.5237 13.9727 24.6218C12.8018 25.72 11.3758 26.2691 9.6946 26.2691C8.04341 26.2691 6.75248 25.8789 5.8218 25.0987ZM35.0261 14.8251C35.0261 13.8426 35.1612 13.3513 35.4314 13.3513C36.1219 13.3513 36.4672 14.5361 36.4672 16.9058C36.4672 17.1948 36.4522 17.4116 36.4221 17.5561C35.4915 16.718 35.0261 15.8077 35.0261 14.8251ZM47.4931 18.6398C46.6825 19.4489 45.3916 19.998 43.6203 20.287C43.6803 18.582 44.0706 17.0359 44.7911 15.6487C45.5117 14.2327 46.3973 13.5247 47.4481 13.5247C48.3187 13.5247 48.754 14.1749 48.754 15.4753C48.754 16.7758 48.3337 17.8306 47.4931 18.6398ZM60.4979 18.6398C59.4954 20.4857 56.1555 22.4173 56.1555 22.4173C56.1555 22.4173 55.8338 19.0113 57.3088 15.6487C58.0293 14.2327 58.9149 13.5247 59.9657 13.5247C60.8363 13.5247 61.2716 14.1749 61.2716 15.4753C61.2716 16.7758 61.1089 17.5147 60.4979 18.6398Z" fill="url(#paint23_linear)"/>
<defs>
<linearGradient id="paint0_linear" x1="29" y1="40.0848" x2="149.334" y2="40.5157" gradientUnits="userSpaceOnUse">
<stop stop-color="#FF5777"/>
<stop offset="0.484375" stop-color="#894252"/>
<stop offset="1" stop-color="#C54D65"/>
</linearGradient>
<linearGradient id="paint1_linear" x1="29" y1="40.0848" x2="149.334" y2="40.5157" gradientUnits="userSpaceOnUse">
<stop stop-color="#FF5777"/>
<stop offset="0.484375" stop-color="#894252"/>
<stop offset="1" stop-color="#C54D65"/>
</linearGradient>
<linearGradient id="paint2_linear" x1="29" y1="40.0848" x2="149.334" y2="40.5157" gradientUnits="userSpaceOnUse">
<stop stop-color="#FF5777"/>
<stop offset="0.484375" stop-color="#894252"/>
<stop offset="1" stop-color="#C54D65"/>
</linearGradient>
<linearGradient id="paint3_linear" x1="29" y1="40.0848" x2="149.334" y2="40.5157" gradientUnits="userSpaceOnUse">
<stop stop-color="#FF5777"/>
<stop offset="0.484375" stop-color="#894252"/>
<stop offset="1" stop-color="#C54D65"/>
</linearGradient>
<linearGradient id="paint4_linear" x1="29" y1="40.0848" x2="149.334" y2="40.5157" gradientUnits="userSpaceOnUse">
<stop stop-color="#FF5777"/>
<stop offset="0.484375" stop-color="#894252"/>
<stop offset="1" stop-color="#C54D65"/>
</linearGradient>
<linearGradient id="paint5_linear" x1="29" y1="40.0848" x2="149.334" y2="40.5157" gradientUnits="userSpaceOnUse">
<stop stop-color="#FF5777"/>
<stop offset="0.484375" stop-color="#894252"/>
<stop offset="1" stop-color="#C54D65"/>
</linearGradient>
<linearGradient id="paint6_linear" x1="29" y1="40.0848" x2="149.334" y2="40.5157" gradientUnits="userSpaceOnUse">
<stop stop-color="#FF5777"/>
<stop offset="0.484375" stop-color="#894252"/>
<stop offset="1" stop-color="#C54D65"/>
</linearGradient>
<linearGradient id="paint7_linear" x1="29" y1="40.0848" x2="149.334" y2="40.5157" gradientUnits="userSpaceOnUse">
<stop stop-color="#FF5777"/>
<stop offset="0.484375" stop-color="#894252"/>
<stop offset="1" stop-color="#C54D65"/>
</linearGradient>
<linearGradient id="paint8_linear" x1="29" y1="40.0848" x2="149.334" y2="40.5157" gradientUnits="userSpaceOnUse">
<stop stop-color="#FF5777"/>
<stop offset="0.484375" stop-color="#894252"/>
<stop offset="1" stop-color="#C54D65"/>
</linearGradient>
<linearGradient id="paint9_linear" x1="29" y1="40.0848" x2="149.334" y2="40.5157" gradientUnits="userSpaceOnUse">
<stop stop-color="#FF5777"/>
<stop offset="0.484375" stop-color="#894252"/>
<stop offset="1" stop-color="#C54D65"/>
</linearGradient>
<linearGradient id="paint10_linear" x1="29" y1="40.0848" x2="149.334" y2="40.5157" gradientUnits="userSpaceOnUse">
<stop stop-color="#FF5777"/>
<stop offset="0.484375" stop-color="#894252"/>
<stop offset="1" stop-color="#C54D65"/>
</linearGradient>
<linearGradient id="paint11_linear" x1="29" y1="40.0848" x2="149.334" y2="40.5157" gradientUnits="userSpaceOnUse">
<stop stop-color="#FF5777"/>
<stop offset="0.484375" stop-color="#894252"/>
<stop offset="1" stop-color="#C54D65"/>
</linearGradient>
<linearGradient id="paint12_linear" x1="29" y1="40.0848" x2="149.334" y2="40.5157" gradientUnits="userSpaceOnUse">
<stop stop-color="#FF5777"/>
<stop offset="0.484375" stop-color="#894252"/>
<stop offset="1" stop-color="#C54D65"/>
</linearGradient>
<linearGradient id="paint13_linear" x1="29" y1="40.0848" x2="149.334" y2="40.5157" gradientUnits="userSpaceOnUse">
<stop stop-color="#FF5777"/>
<stop offset="0.484375" stop-color="#894252"/>
<stop offset="1" stop-color="#C54D65"/>
</linearGradient>
<linearGradient id="paint14_linear" x1="29" y1="40.0848" x2="149.334" y2="40.5157" gradientUnits="userSpaceOnUse">
<stop stop-color="#FF5777"/>
<stop offset="0.484375" stop-color="#894252"/>
<stop offset="1" stop-color="#C54D65"/>
</linearGradient>
<linearGradient id="paint15_linear" x1="29" y1="40.0848" x2="149.334" y2="40.5157" gradientUnits="userSpaceOnUse">
<stop stop-color="#FF5777"/>
<stop offset="0.484375" stop-color="#894252"/>
<stop offset="1" stop-color="#C54D65"/>
</linearGradient>
<linearGradient id="paint16_linear" x1="7.8615e-09" y1="16.82" x2="177.998" y2="17.5535" gradientUnits="userSpaceOnUse">
<stop stop-color="#FF5777"/>
<stop offset="0.484375" stop-color="#894252"/>
<stop offset="1" stop-color="#C54D65"/>
</linearGradient>
<linearGradient id="paint17_linear" x1="7.8615e-09" y1="16.82" x2="177.998" y2="17.5535" gradientUnits="userSpaceOnUse">
<stop stop-color="#FF5777"/>
<stop offset="0.484375" stop-color="#894252"/>
<stop offset="1" stop-color="#C54D65"/>
</linearGradient>
<linearGradient id="paint18_linear" x1="7.8615e-09" y1="16.82" x2="177.998" y2="17.5535" gradientUnits="userSpaceOnUse">
<stop stop-color="#FF5777"/>
<stop offset="0.484375" stop-color="#894252"/>
<stop offset="1" stop-color="#C54D65"/>
</linearGradient>
<linearGradient id="paint19_linear" x1="7.8615e-09" y1="16.82" x2="177.998" y2="17.5535" gradientUnits="userSpaceOnUse">
<stop stop-color="#FF5777"/>
<stop offset="0.484375" stop-color="#894252"/>
<stop offset="1" stop-color="#C54D65"/>
</linearGradient>
<linearGradient id="paint20_linear" x1="7.8615e-09" y1="16.82" x2="177.998" y2="17.5535" gradientUnits="userSpaceOnUse">
<stop stop-color="#FF5777"/>
<stop offset="0.484375" stop-color="#894252"/>
<stop offset="1" stop-color="#C54D65"/>
</linearGradient>
<linearGradient id="paint21_linear" x1="7.8615e-09" y1="16.82" x2="177.998" y2="17.5535" gradientUnits="userSpaceOnUse">
<stop stop-color="#FF5777"/>
<stop offset="0.484375" stop-color="#894252"/>
<stop offset="1" stop-color="#C54D65"/>
</linearGradient>
<linearGradient id="paint22_linear" x1="7.8615e-09" y1="16.82" x2="177.998" y2="17.5535" gradientUnits="userSpaceOnUse">
<stop stop-color="#FF5777"/>
<stop offset="0.484375" stop-color="#894252"/>
<stop offset="1" stop-color="#C54D65"/>
</linearGradient>
<linearGradient id="paint23_linear" x1="7.8615e-09" y1="16.82" x2="177.998" y2="17.5535" gradientUnits="userSpaceOnUse">
<stop stop-color="#FF5777"/>
<stop offset="0.484375" stop-color="#894252"/>
<stop offset="1" stop-color="#C54D65"/>
</linearGradient>
</defs>
</svg>
