<svg width="178" height="51" viewBox="0 0 178 51" fill="none" xmlns="http://www.w3.org/2000/svg">
<path d="M34.296 37.048L34.488 35.824C34.488 35.648 34.432 35.488 34.32 35.344C34.208 35.2 34.064 35.128 33.888 35.128C33.296 35.128 32.784 35.576 32.352 36.472C31.92 37.352 31.704 38.2 31.704 39.016C31.704 39.832 31.872 40.496 32.208 41.008C32.544 41.504 32.952 41.752 33.432 41.752C33.928 41.752 34.368 41.64 34.752 41.416C35.136 41.192 35.488 40.872 35.808 40.456C36.48 39.576 37.056 38.576 37.536 37.456C37.664 37.168 37.76 36.96 37.824 36.832C37.904 36.704 37.984 36.64 38.064 36.64C38.16 36.64 38.208 36.704 38.208 36.832C38.208 37.36 38.024 37.992 37.656 38.728C37.288 39.464 36.976 40.032 36.72 40.432C36.48 40.816 36.168 41.224 35.784 41.656C34.984 42.552 33.984 43 32.784 43C31.872 43 31.176 42.68 30.696 42.04C30.232 41.384 30 40.688 30 39.952C30 38.128 30.392 36.744 31.176 35.8C31.976 34.84 32.984 34.36 34.2 34.36C34.712 34.36 35.112 34.496 35.4 34.768C35.704 35.024 35.856 35.32 35.856 35.656C35.856 36.28 35.744 36.744 35.52 37.048C35.296 37.352 35.024 37.504 34.704 37.504C34.432 37.504 34.296 37.352 34.296 37.048Z" fill="url(#paint0_linear)"/>
<path d="M38.9552 36.616L40.2752 36.472C40.4032 36.472 40.5152 36.544 40.6112 36.688C40.7072 36.832 40.7552 36.984 40.7552 37.144C40.7552 37.304 40.6992 37.848 40.5872 38.776C40.4912 39.704 40.4432 40.44 40.4432 40.984C40.4432 41.512 40.4912 41.776 40.5872 41.776C40.8592 41.76 41.2352 41.424 41.7152 40.768C42.1952 40.096 42.6672 39.24 43.1312 38.2C43.6112 37.16 43.8992 36.64 43.9952 36.64C44.1072 36.64 44.1632 36.704 44.1632 36.832C44.1632 37.28 43.9312 37.992 43.4672 38.968C42.2032 41.656 41.1392 43 40.2752 43C39.6512 43 39.1792 42.872 38.8592 42.616C38.7472 42.504 38.6912 41.808 38.6912 40.528C38.6912 39.248 38.8272 38.152 39.0992 37.24C38.1712 37.24 37.5232 36.944 37.1552 36.352C36.9632 36.048 36.8672 35.704 36.8672 35.32C36.8672 34.936 36.9472 34.6 37.1072 34.312C37.2672 34.024 37.4912 33.88 37.7792 33.88C38.0832 33.88 38.3552 34.04 38.5952 34.36C38.8512 34.664 38.9792 35.008 38.9792 35.392C38.9792 35.776 38.8672 36.16 38.6432 36.544C38.7072 36.592 38.8112 36.616 38.9552 36.616Z" fill="url(#paint1_linear)"/>
<path d="M49.7284 43C49.1044 43 48.6324 42.872 48.3124 42.616C48.2004 42.504 48.1444 42.224 48.1444 41.776C48.1444 41.312 48.1604 40.696 48.1924 39.928C47.7764 40.968 47.3604 41.744 46.9444 42.256C46.5444 42.752 46.0244 43 45.3844 43C44.7444 43 44.1844 42.704 43.7044 42.112C43.2244 41.504 42.9844 40.56 42.9844 39.28C42.9844 37.984 43.3444 36.84 44.0644 35.848C44.8004 34.856 45.7604 34.36 46.9444 34.36C47.4564 34.36 48.0324 34.696 48.6724 35.368C48.8004 35.192 49.0244 34.984 49.3444 34.744C49.6804 34.488 49.9604 34.36 50.1844 34.36C50.4244 34.36 50.5444 34.664 50.5444 35.272C50.5444 35.432 50.4964 35.744 50.4004 36.208C50.3204 36.672 50.2244 37.008 50.1124 37.216C49.9684 37.584 49.8964 38.888 49.8964 41.128C49.8964 41.56 49.9444 41.776 50.0404 41.776C50.3124 41.76 50.6884 41.424 51.1684 40.768C51.6484 40.096 52.1204 39.24 52.5844 38.2C53.0644 37.16 53.3524 36.64 53.4484 36.64C53.5604 36.64 53.6164 36.704 53.6164 36.832C53.6164 37.28 53.3844 37.992 52.9204 38.968C51.6564 41.656 50.5924 43 49.7284 43ZM46.8004 35.32C46.3524 35.32 45.8724 35.656 45.3604 36.328C44.8644 36.984 44.6164 37.76 44.6164 38.656C44.6164 39.552 44.7444 40.288 45.0004 40.864C45.2724 41.44 45.6244 41.728 46.0564 41.728C46.5844 41.728 47.3604 40.408 48.3844 37.768C48.4004 37.64 48.4164 37.424 48.4324 37.12C48.4644 36.8 48.4884 36.56 48.5044 36.4C48.3604 36.144 48.1044 35.904 47.7364 35.68C47.3844 35.44 47.0724 35.32 46.8004 35.32Z" fill="url(#paint2_linear)"/>
<path d="M55.7479 37.816C56.6119 37.608 57.3319 37.344 57.9079 37.024C58.4999 36.704 58.8119 36.544 58.8439 36.544C58.9399 36.544 58.9879 36.624 58.9879 36.784C58.9879 36.944 58.8279 37.144 58.5079 37.384C57.8359 37.88 56.9959 38.304 55.9879 38.656C56.4039 40.24 56.6119 41.92 56.6119 43.696C56.6119 45.184 56.4439 46.608 56.1079 47.968C55.9159 48.736 55.6119 49.36 55.1959 49.84C54.7959 50.32 54.2999 50.56 53.7079 50.56C53.1959 50.56 52.8439 50.336 52.6519 49.888C52.4119 49.36 52.2759 48.856 52.2439 48.376C52.1959 47.624 52.1719 46.4 52.1719 44.704C52.1719 43.008 52.2999 40.96 52.5559 38.56C51.9799 38.144 51.6919 37.64 51.6919 37.048C51.6919 36.44 51.8199 35.976 52.0759 35.656C52.3319 35.32 52.6519 35.104 53.0359 35.008C53.2599 33.616 53.4759 32.416 53.6839 31.408C53.9079 30.4 54.2439 29.584 54.6919 28.96C55.1399 28.32 55.5879 28 56.0359 28C56.5479 28 56.8039 28.568 56.8039 29.704C56.8039 31.496 56.1399 33.512 54.8119 35.752C55.1479 36.232 55.4599 36.92 55.7479 37.816ZM54.0679 39.016C53.9239 40.984 53.8519 43.24 53.8519 45.784C53.8519 48.344 53.9879 49.624 54.2599 49.624C54.7399 49.624 55.1399 48.992 55.4599 47.728C55.7799 46.48 55.9399 45.072 55.9399 43.504C55.9399 41.952 55.7639 40.392 55.4119 38.824C54.9319 38.952 54.4839 39.016 54.0679 39.016ZM54.4279 35.416C54.8919 34.648 55.3159 33.744 55.6999 32.704C56.0839 31.648 56.2759 30.768 56.2759 30.064C56.2759 29.36 56.2039 29.008 56.0599 29.008C55.8039 29.008 55.5239 29.592 55.2199 30.76C54.9319 31.928 54.6679 33.48 54.4279 35.416ZM54.4279 36.376L54.2839 36.616L54.1639 37.84C54.3719 37.904 54.5559 37.936 54.7159 37.936C54.8919 37.936 55.0359 37.928 55.1479 37.912C54.9399 37.288 54.6999 36.776 54.4279 36.376ZM52.9399 35.608C52.6999 35.688 52.5799 35.872 52.5799 36.16C52.5799 36.448 52.6439 36.696 52.7719 36.904C52.8359 36.328 52.8919 35.896 52.9399 35.608Z" fill="url(#paint3_linear)"/>
<path d="M62.9854 38.968C61.7214 41.656 60.6494 43 59.7694 43C58.9054 43 58.3934 42.896 58.2334 42.688C58.0894 42.48 58.0174 41.792 58.0174 40.624C58.0174 39.456 58.1294 37.768 58.3534 35.56C57.5534 35.4 57.1294 35.072 57.0814 34.576C57.0814 34.32 57.2494 34.192 57.5854 34.192C57.9214 34.192 58.2174 34.256 58.4734 34.384C58.6174 33.232 58.7854 32.064 58.9774 30.88C59.0254 30.576 59.1774 30.288 59.4334 30.016C59.6894 29.744 59.9374 29.608 60.1774 29.608C60.3854 29.608 60.4894 29.936 60.4894 30.592C60.4894 30.896 60.3774 32.296 60.1534 34.792C60.5854 34.712 61.0574 34.552 61.5694 34.312C62.0974 34.072 62.4094 33.952 62.5054 33.952C62.7934 33.952 62.9374 34.04 62.9374 34.216C62.9534 34.376 62.6574 34.6 62.0494 34.888C61.4414 35.16 60.7854 35.368 60.0814 35.512C59.8894 37.848 59.7934 39.616 59.7934 40.816C59.7934 41.456 59.8894 41.776 60.0814 41.776C60.3694 41.76 60.7534 41.424 61.2334 40.768C61.7134 40.112 62.1854 39.264 62.6494 38.224C63.1294 37.168 63.4174 36.64 63.5134 36.64C63.6254 36.64 63.6814 36.704 63.6814 36.832C63.6814 37.28 63.4494 37.992 62.9854 38.968Z" fill="url(#paint4_linear)"/>
<path d="M65.3655 43C64.4695 43 63.7575 42.664 63.2295 41.992C62.7015 41.304 62.4375 40.528 62.4375 39.664C62.4375 37.92 62.8055 36.6 63.5415 35.704C64.2775 34.808 65.2295 34.36 66.3975 34.36C66.9415 34.36 67.3895 34.512 67.7415 34.816C68.0935 35.104 68.2695 35.504 68.2695 36.016C68.2695 36.976 67.8615 37.784 67.0455 38.44C66.2455 39.08 65.2615 39.416 64.0935 39.448C64.1575 40.072 64.3655 40.616 64.7175 41.08C65.0855 41.528 65.5095 41.752 65.9895 41.752C66.4695 41.752 66.9015 41.64 67.2855 41.416C67.6695 41.192 68.0215 40.872 68.3415 40.456C69.0135 39.576 69.5895 38.576 70.0695 37.456C70.1975 37.168 70.2935 36.96 70.3575 36.832C70.4375 36.704 70.5175 36.64 70.5975 36.64C70.6935 36.64 70.7415 36.704 70.7415 36.832C70.7415 37.632 70.2535 38.832 69.2775 40.432C68.2215 42.144 66.9175 43 65.3655 43ZM64.0935 38.872C65.0375 38.712 65.7255 38.408 66.1575 37.96C66.6055 37.512 66.8295 36.928 66.8295 36.208C66.8295 35.488 66.5975 35.128 66.1335 35.128C65.5735 35.128 65.1015 35.52 64.7175 36.304C64.3335 37.072 64.1255 37.928 64.0935 38.872Z" fill="url(#paint5_linear)"/>
<path d="M76.3088 43C75.7648 43 75.3408 42.88 75.0368 42.64C74.9088 42.512 74.8447 42.176 74.8447 41.632C74.8447 41.088 74.8688 40.376 74.9168 39.496C74.4848 40.648 74.0447 41.52 73.5967 42.112C73.1487 42.704 72.5807 43 71.8927 43C71.2207 43 70.6447 42.704 70.1647 42.112C69.7007 41.52 69.4688 40.576 69.4688 39.28C69.4688 37.984 69.8288 36.84 70.5488 35.848C71.2848 34.856 72.2447 34.36 73.4287 34.36C74.0047 34.36 74.6048 34.584 75.2288 35.032C75.4848 31.912 75.7168 30.152 75.9248 29.752C76.0208 29.576 76.2448 29.32 76.5968 28.984C76.9648 28.648 77.2688 28.48 77.5088 28.48C77.7488 28.48 77.8688 28.856 77.8688 29.608C77.8688 30.488 77.7888 31.248 77.6287 31.888C77.1968 33.536 76.9248 34.584 76.8128 35.032C76.5888 36.76 76.4767 38.792 76.4767 41.128C76.4767 41.56 76.5248 41.776 76.6208 41.776C76.9088 41.76 77.2928 41.424 77.7728 40.768C78.2528 40.112 78.7248 39.264 79.1888 38.224C79.6688 37.168 79.9567 36.64 80.0527 36.64C80.1647 36.64 80.2207 36.704 80.2207 36.832C80.2207 37.28 79.9887 37.992 79.5247 38.968C78.2607 41.656 77.1887 43 76.3088 43ZM73.2848 35.224C72.8528 35.224 72.4208 35.568 71.9888 36.256C71.5568 36.944 71.3408 37.744 71.3408 38.656C71.3408 39.552 71.4528 40.288 71.6768 40.864C71.9168 41.44 72.2128 41.728 72.5648 41.728C73.2848 41.728 74.1088 40.288 75.0368 37.408C75.1168 36.528 75.1567 36.008 75.1567 35.848C74.6927 35.432 74.0688 35.224 73.2848 35.224Z" fill="url(#paint6_linear)"/>
<path d="M87.9913 37.048L88.1833 35.824C88.1833 35.648 88.1273 35.488 88.0153 35.344C87.9033 35.2 87.7593 35.128 87.5833 35.128C86.9913 35.128 86.4793 35.576 86.0473 36.472C85.6153 37.352 85.3993 38.2 85.3993 39.016C85.3993 39.832 85.5673 40.496 85.9033 41.008C86.2393 41.504 86.6473 41.752 87.1273 41.752C87.6233 41.752 88.0633 41.64 88.4473 41.416C88.8313 41.192 89.1833 40.872 89.5033 40.456C90.1753 39.576 90.7513 38.576 91.2313 37.456C91.3593 37.168 91.4553 36.96 91.5193 36.832C91.5993 36.704 91.6793 36.64 91.7593 36.64C91.8553 36.64 91.9033 36.704 91.9033 36.832C91.9033 37.36 91.7193 37.992 91.3513 38.728C90.9833 39.464 90.6713 40.032 90.4153 40.432C90.1753 40.816 89.8633 41.224 89.4793 41.656C88.6793 42.552 87.6793 43 86.4793 43C85.5673 43 84.8713 42.68 84.3913 42.04C83.9273 41.384 83.6953 40.688 83.6953 39.952C83.6953 38.128 84.0873 36.744 84.8713 35.8C85.6713 34.84 86.6793 34.36 87.8953 34.36C88.4073 34.36 88.8073 34.496 89.0953 34.768C89.3993 35.024 89.5513 35.32 89.5513 35.656C89.5513 36.28 89.4393 36.744 89.2153 37.048C88.9913 37.352 88.7193 37.504 88.3993 37.504C88.1273 37.504 87.9913 37.352 87.9913 37.048Z" fill="url(#paint7_linear)"/>
<path d="M92.5545 41.584L92.5785 42.328C92.5785 42.776 92.4505 43 92.1945 43C91.8105 43 91.4425 42.952 91.0905 42.856C90.7385 42.744 90.5625 42.6 90.5625 42.424C90.5625 42.232 90.6025 41.6 90.6825 40.528C90.7785 39.44 90.8265 38.624 90.8265 38.08V36.688C90.8265 32.592 91.5545 29.984 93.0105 28.864C93.3465 28.608 93.6905 28.48 94.0425 28.48C94.2025 28.48 94.3625 28.656 94.5225 29.008C94.6825 29.36 94.7625 29.816 94.7625 30.376C94.7625 31.752 94.5305 33.04 94.0665 34.24C93.6025 35.44 93.1305 36.36 92.6505 37C92.6345 37.4 92.6265 38.024 92.6265 38.872C92.6905 38.776 93.0265 38.232 93.6345 37.24C94.2425 36.248 94.7545 35.52 95.1705 35.056C95.6025 34.592 95.9865 34.36 96.3225 34.36C96.6585 34.36 96.9545 34.472 97.2105 34.696C97.4825 34.92 97.6185 35.2 97.6185 35.536C97.6185 36.24 97.5385 37.28 97.3785 38.656C97.2345 40.016 97.1625 40.88 97.1625 41.248C97.1625 41.6 97.2105 41.776 97.3065 41.776C97.5785 41.76 97.9545 41.424 98.4345 40.768C98.9145 40.096 99.3865 39.24 99.8505 38.2C100.331 37.16 100.619 36.64 100.715 36.64C100.827 36.64 100.882 36.704 100.882 36.832C100.882 37.28 100.651 37.992 100.187 38.968C98.9225 41.656 97.8585 43 96.9945 43C96.3705 43 95.8985 42.872 95.5785 42.616C95.4665 42.504 95.4105 42.216 95.4105 41.752C95.4105 41.272 95.4505 40.504 95.5305 39.448C95.6265 38.376 95.6745 37.576 95.6745 37.048C95.6745 36.52 95.5785 36.256 95.3865 36.256C95.2105 36.256 94.7305 36.808 93.9465 37.912C93.1625 39 92.7465 39.696 92.6985 40C92.6025 40.56 92.5545 41.088 92.5545 41.584ZM94.1145 30.904C94.1145 30.232 94.0265 29.896 93.8505 29.896C93.5625 29.896 93.2825 30.784 93.0105 32.56C92.8665 33.504 92.7625 34.6 92.6985 35.848C93.6425 33.88 94.1145 32.232 94.1145 30.904Z" fill="url(#paint8_linear)"/>
<path d="M106.981 37.672C107.621 37.464 108.061 37.288 108.301 37.144C108.557 36.984 108.749 36.864 108.877 36.784L109.165 36.616C109.245 36.568 109.309 36.544 109.357 36.544C109.485 36.544 109.549 36.616 109.549 36.76C109.549 36.904 109.301 37.16 108.805 37.528C108.309 37.88 107.693 38.2 106.957 38.488C106.845 39.832 106.421 40.92 105.685 41.752C104.949 42.584 103.901 43 102.541 43C101.549 43 100.789 42.608 100.261 41.824C99.7327 41.024 99.4688 40.096 99.4688 39.04C99.4688 37.968 99.7807 36.96 100.405 36.016C101.045 35.072 101.861 34.6 102.853 34.6C103.301 34.28 103.829 34.12 104.437 34.12C105.061 34.12 105.637 34.448 106.165 35.104C106.693 35.76 106.965 36.616 106.981 37.672ZM105.421 38.896L104.557 38.944C103.821 38.944 103.197 38.728 102.685 38.296C102.173 37.848 101.917 37.36 101.917 36.832C101.917 36.304 102.005 35.848 102.181 35.464C101.493 36.008 101.149 37.08 101.149 38.68C101.149 39.448 101.309 40.184 101.629 40.888C101.949 41.576 102.453 41.92 103.141 41.92C103.829 41.92 104.365 41.632 104.749 41.056C105.133 40.464 105.357 39.744 105.421 38.896ZM103.933 34.912C103.677 34.912 103.477 35.032 103.333 35.272C103.189 35.496 103.117 35.744 103.117 36.016C103.117 36.608 103.317 37.088 103.717 37.456C104.133 37.824 104.613 38.008 105.157 38.008H105.445C105.413 37.224 105.277 36.512 105.037 35.872C104.813 35.232 104.445 34.912 103.933 34.912Z" fill="url(#paint9_linear)"/>
<path d="M112.507 37.048L112.699 35.824C112.699 35.648 112.643 35.488 112.531 35.344C112.419 35.2 112.275 35.128 112.099 35.128C111.507 35.128 110.995 35.576 110.563 36.472C110.131 37.352 109.915 38.2 109.915 39.016C109.915 39.832 110.083 40.496 110.419 41.008C110.755 41.504 111.163 41.752 111.643 41.752C112.139 41.752 112.579 41.64 112.963 41.416C113.347 41.192 113.699 40.872 114.019 40.456C114.691 39.576 115.267 38.576 115.747 37.456C115.875 37.168 115.971 36.96 116.035 36.832C116.115 36.704 116.195 36.64 116.275 36.64C116.371 36.64 116.419 36.704 116.419 36.832C116.419 37.36 116.235 37.992 115.867 38.728C115.499 39.464 115.187 40.032 114.931 40.432C114.691 40.816 114.379 41.224 113.995 41.656C113.195 42.552 112.195 43 110.995 43C110.083 43 109.387 42.68 108.907 42.04C108.443 41.384 108.211 40.688 108.211 39.952C108.211 38.128 108.603 36.744 109.387 35.8C110.187 34.84 111.195 34.36 112.411 34.36C112.923 34.36 113.323 34.496 113.611 34.768C113.915 35.024 114.067 35.32 114.067 35.656C114.067 36.28 113.955 36.744 113.731 37.048C113.507 37.352 113.235 37.504 112.915 37.504C112.643 37.504 112.507 37.352 112.507 37.048Z" fill="url(#paint10_linear)"/>
<path d="M122.59 37.672C123.23 37.464 123.67 37.288 123.91 37.144C124.166 36.984 124.358 36.864 124.486 36.784L124.774 36.616C124.854 36.568 124.918 36.544 124.966 36.544C125.094 36.544 125.158 36.616 125.158 36.76C125.158 36.904 124.91 37.16 124.414 37.528C123.918 37.88 123.302 38.2 122.566 38.488C122.454 39.832 122.03 40.92 121.294 41.752C120.558 42.584 119.51 43 118.15 43C117.158 43 116.398 42.608 115.87 41.824C115.342 41.024 115.078 40.096 115.078 39.04C115.078 37.968 115.39 36.96 116.014 36.016C116.654 35.072 117.47 34.6 118.462 34.6C118.91 34.28 119.438 34.12 120.046 34.12C120.67 34.12 121.246 34.448 121.774 35.104C122.302 35.76 122.574 36.616 122.59 37.672ZM121.03 38.896L120.166 38.944C119.43 38.944 118.806 38.728 118.294 38.296C117.782 37.848 117.526 37.36 117.526 36.832C117.526 36.304 117.614 35.848 117.79 35.464C117.102 36.008 116.758 37.08 116.758 38.68C116.758 39.448 116.918 40.184 117.238 40.888C117.558 41.576 118.062 41.92 118.75 41.92C119.438 41.92 119.974 41.632 120.358 41.056C120.742 40.464 120.966 39.744 121.03 38.896ZM119.542 34.912C119.286 34.912 119.086 35.032 118.942 35.272C118.798 35.496 118.726 35.744 118.726 36.016C118.726 36.608 118.926 37.088 119.326 37.456C119.742 37.824 120.222 38.008 120.766 38.008H121.054C121.022 37.224 120.886 36.512 120.646 35.872C120.422 35.232 120.054 34.912 119.542 34.912Z" fill="url(#paint11_linear)"/>
<path d="M125.572 43C125.22 43 124.892 42.96 124.588 42.88C124.3 42.784 124.124 42.696 124.06 42.616C123.9 42.424 123.82 41.432 123.82 39.64C123.82 37.832 124.02 35.384 124.42 32.296C124.756 29.752 125.54 28.48 126.772 28.48C127.06 28.48 127.268 28.64 127.396 28.96C127.524 29.264 127.588 29.56 127.588 29.848C127.588 31.928 126.956 34.256 125.692 36.832C125.644 38.16 125.62 39.32 125.62 40.312C125.62 41.288 125.708 41.776 125.884 41.776C126.156 41.76 126.532 41.424 127.012 40.768C127.492 40.096 127.964 39.24 128.428 38.2C128.908 37.16 129.196 36.64 129.292 36.64C129.404 36.64 129.46 36.704 129.46 36.832C129.46 37.28 129.228 37.992 128.764 38.968C127.5 41.656 126.436 43 125.572 43ZM126.988 30.064C126.988 29.552 126.924 29.296 126.796 29.296C126.316 29.296 125.964 31.288 125.74 35.272C126.572 33.08 126.988 31.344 126.988 30.064Z" fill="url(#paint12_linear)"/>
<path d="M134.76 43C134.136 43 133.664 42.872 133.344 42.616C133.232 42.504 133.176 42.224 133.176 41.776C133.176 41.312 133.192 40.696 133.224 39.928C132.808 40.968 132.392 41.744 131.976 42.256C131.576 42.752 131.056 43 130.416 43C129.776 43 129.216 42.704 128.736 42.112C128.256 41.504 128.016 40.56 128.016 39.28C128.016 37.984 128.376 36.84 129.096 35.848C129.832 34.856 130.792 34.36 131.976 34.36C132.488 34.36 133.064 34.696 133.704 35.368C133.832 35.192 134.056 34.984 134.376 34.744C134.712 34.488 134.992 34.36 135.216 34.36C135.456 34.36 135.576 34.664 135.576 35.272C135.576 35.432 135.528 35.744 135.432 36.208C135.352 36.672 135.256 37.008 135.144 37.216C135 37.584 134.928 38.888 134.928 41.128C134.928 41.56 134.976 41.776 135.072 41.776C135.344 41.76 135.72 41.424 136.2 40.768C136.68 40.096 137.152 39.24 137.616 38.2C138.096 37.16 138.384 36.64 138.48 36.64C138.592 36.64 138.648 36.704 138.648 36.832C138.648 37.28 138.416 37.992 137.952 38.968C136.688 41.656 135.624 43 134.76 43ZM131.832 35.32C131.384 35.32 130.904 35.656 130.392 36.328C129.896 36.984 129.648 37.76 129.648 38.656C129.648 39.552 129.776 40.288 130.032 40.864C130.304 41.44 130.656 41.728 131.088 41.728C131.616 41.728 132.392 40.408 133.416 37.768C133.432 37.64 133.448 37.424 133.464 37.12C133.496 36.8 133.52 36.56 133.536 36.4C133.392 36.144 133.136 35.904 132.768 35.68C132.416 35.44 132.104 35.32 131.832 35.32Z" fill="url(#paint13_linear)"/>
<path d="M142.579 38.968C141.315 41.656 140.243 43 139.363 43C138.499 43 137.987 42.896 137.827 42.688C137.683 42.48 137.611 41.792 137.611 40.624C137.611 39.456 137.723 37.768 137.947 35.56C137.147 35.4 136.723 35.072 136.675 34.576C136.675 34.32 136.843 34.192 137.179 34.192C137.515 34.192 137.811 34.256 138.067 34.384C138.211 33.232 138.379 32.064 138.571 30.88C138.619 30.576 138.771 30.288 139.027 30.016C139.283 29.744 139.531 29.608 139.771 29.608C139.979 29.608 140.083 29.936 140.083 30.592C140.083 30.896 139.971 32.296 139.747 34.792C140.179 34.712 140.651 34.552 141.163 34.312C141.691 34.072 142.003 33.952 142.099 33.952C142.387 33.952 142.531 34.04 142.531 34.216C142.547 34.376 142.251 34.6 141.643 34.888C141.035 35.16 140.379 35.368 139.675 35.512C139.483 37.848 139.387 39.616 139.387 40.816C139.387 41.456 139.483 41.776 139.675 41.776C139.963 41.76 140.347 41.424 140.827 40.768C141.307 40.112 141.779 39.264 142.243 38.224C142.723 37.168 143.011 36.64 143.107 36.64C143.219 36.64 143.275 36.704 143.275 36.832C143.275 37.28 143.043 37.992 142.579 38.968Z" fill="url(#paint14_linear)"/>
<path d="M144.959 43C144.063 43 143.351 42.664 142.823 41.992C142.295 41.304 142.031 40.528 142.031 39.664C142.031 37.92 142.399 36.6 143.135 35.704C143.871 34.808 144.823 34.36 145.991 34.36C146.535 34.36 146.983 34.512 147.335 34.816C147.687 35.104 147.863 35.504 147.863 36.016C147.863 36.976 147.455 37.784 146.639 38.44C145.839 39.08 144.855 39.416 143.687 39.448C143.751 40.072 143.959 40.616 144.311 41.08C144.679 41.528 145.103 41.752 145.583 41.752C146.063 41.752 146.495 41.64 146.879 41.416C147.263 41.192 147.615 40.872 147.935 40.456C148.607 39.576 149.183 38.576 149.663 37.456C149.791 37.168 149.887 36.96 149.951 36.832C150.031 36.704 150.111 36.64 150.191 36.64C150.287 36.64 150.335 36.704 150.335 36.832C150.335 37.632 149.847 38.832 148.871 40.432C147.815 42.144 146.511 43 144.959 43ZM143.687 38.872C144.631 38.712 145.319 38.408 145.751 37.96C146.199 37.512 146.423 36.928 146.423 36.208C146.423 35.488 146.191 35.128 145.727 35.128C145.167 35.128 144.695 35.52 144.311 36.304C143.927 37.072 143.719 37.928 143.687 38.872Z" fill="url(#paint15_linear)"/>
<path d="M75.6356 20.4604C73.2639 25.3154 71.2524 27.7429 69.6012 27.7429C67.98 27.7429 67.0194 27.5551 66.7191 27.1794C66.4489 26.8037 66.3138 25.561 66.3138 23.4514C66.3138 23.2678 66.3154 23.077 66.3186 22.8791C66.3293 22.2182 66.3577 21.4778 66.4038 20.6581C66.5026 18.904 66.6828 16.7862 66.9443 14.3049C65.4432 14.0159 64.6476 13.4235 64.5576 12.5277C64.5576 12.0653 64.8728 11.8341 65.5033 11.8341C66.1337 11.8341 66.6891 11.9497 67.1695 12.1809C67.4397 10.1002 67.7549 7.99053 68.1151 5.85202C68.2052 5.30294 68.4904 4.78276 68.9708 4.29148C69.4511 3.8002 69.9164 3.55456 70.3668 3.55456C70.757 3.55456 70.9522 4.14699 70.9522 5.33184C70.9522 5.88092 70.742 8.40957 70.3217 12.9178C71.1323 12.7733 72.018 12.4843 72.9786 12.0508C73.9694 11.6173 74.5548 11.4006 74.7349 11.4006C75.2753 11.4006 75.5455 11.5595 75.5455 11.8774C75.5755 12.1664 75.0201 12.571 73.8793 13.0912C72.7385 13.5825 71.5076 13.9581 70.1866 14.2182C69.8264 18.4375 69.6462 21.6308 69.6462 23.7982C69.6462 24.9542 69.8264 25.5321 70.1866 25.5321C70.727 25.5032 71.4475 24.8964 72.3482 23.7115C73.2488 22.5267 74.1345 20.995 75.0051 19.1166C75.9058 17.2093 76.4461 16.2556 76.6263 16.2556C76.8364 16.2556 76.9415 16.3712 76.9415 16.6024C76.9415 17.4116 76.5062 18.6976 75.6356 20.4604Z" fill="url(#paint16_linear)"/>
<path d="M77.4446 11.9641L77.7148 14.7384C77.7148 15.0274 77.5497 15.2586 77.2194 15.432C76.9192 15.6054 76.664 15.6921 76.4539 15.6921C76.0336 15.6921 75.6583 15.3742 75.3281 14.7384C75.0279 14.0737 74.8777 13.4669 74.8777 12.9178C74.8777 10.7793 75.6433 8.9731 77.1744 7.49925C78.7355 5.99651 80.7019 4.86946 83.0736 4.11809C83.0736 3.13553 83.2838 2.21076 83.7041 1.3438C84.1544 0.447932 84.8449 0 85.7756 0C86.1658 0 86.361 0.534629 86.361 1.60389V3.42451C87.3217 3.30892 88.0272 3.25112 88.4775 3.25112C92.4704 3.25112 95.6226 4.33483 97.9343 6.50224C100.276 8.64076 101.447 11.3428 101.447 14.6084C101.447 16.8625 101.027 18.8565 100.186 20.5904C99.3453 22.3244 98.2045 23.6971 96.7635 24.7085C93.8814 26.7314 90.4289 27.7429 86.406 27.7429H85.4603C85.3703 28.581 85.2502 29 85.1001 29C83.6891 29 82.7434 28.8122 82.2631 28.4365C82.0529 28.2342 81.9328 27.8874 81.9028 27.3961C79.2309 26.6736 77.8949 25.8789 77.8949 25.012C77.8949 24.723 78 24.5062 78.2101 24.3617C78.4203 24.1883 78.6455 24.1016 78.8856 24.1016C79.1558 24.1016 80.1616 24.4484 81.9028 25.142C82.173 17.5705 82.5182 11.0683 82.9385 5.63528C81.2873 6.18436 79.9514 7.00797 78.9307 8.10613C77.94 9.20429 77.4446 10.4903 77.4446 11.9641ZM87.2616 4.9417C86.8413 4.9417 86.5261 4.95615 86.3159 4.98505C86.1959 10.0424 86.0458 14.2905 85.8656 17.7294C85.7155 22.2088 85.6104 25.0264 85.5504 26.1824C86.1508 26.2691 86.7813 26.3124 87.4418 26.3124C90.2938 26.3124 92.7706 25.3009 94.8721 23.278C96.9736 21.2262 98.0244 18.712 98.0244 15.7354C98.0244 12.7588 97.0187 10.2157 95.0072 8.10613C92.9958 5.99651 90.4139 4.9417 87.2616 4.9417Z" fill="url(#paint17_linear)"/>
<path d="M106.639 16.2123L109.116 15.9522C109.356 15.9522 109.566 16.0822 109.746 16.3423C109.926 16.6024 110.016 16.8769 110.016 17.1659C110.016 17.4549 109.911 18.4375 109.701 20.1136C109.521 21.7897 109.431 23.1191 109.431 24.1016C109.431 25.0553 109.521 25.5321 109.701 25.5321C110.212 25.5032 110.917 24.8964 111.818 23.7115C112.718 22.4978 113.604 20.9517 114.475 19.0732C115.375 17.1948 115.916 16.2556 116.096 16.2556C116.306 16.2556 116.411 16.3712 116.411 16.6024C116.411 17.4116 115.976 18.6976 115.105 20.4604C112.733 25.3154 110.737 27.7429 109.116 27.7429C107.945 27.7429 107.059 27.5117 106.459 27.0493C106.249 26.847 106.144 25.5899 106.144 23.278C106.144 20.9661 106.399 18.9865 106.909 17.3393C105.168 17.3393 103.952 16.8047 103.262 15.7354C102.901 15.1863 102.721 14.565 102.721 13.8715C102.721 13.1779 102.871 12.571 103.171 12.0508C103.472 11.5306 103.892 11.2706 104.432 11.2706C105.003 11.2706 105.513 11.5595 105.963 12.1375C106.444 12.6866 106.684 13.3079 106.684 14.0015C106.684 14.6951 106.474 15.3886 106.054 16.0822C106.174 16.1689 106.369 16.2123 106.639 16.2123Z" fill="url(#paint18_linear)"/>
<path d="M119.018 27.7429C117.336 27.7429 116 27.136 115.01 25.9223C114.019 24.6796 113.524 23.278 113.524 21.7175C113.524 18.5675 114.214 16.1834 115.595 14.565C116.976 12.9467 118.762 12.1375 120.954 12.1375C121.975 12.1375 122.815 12.4121 123.476 12.9611C124.136 13.4813 124.467 14.2038 124.467 15.1286C124.467 16.8625 123.701 18.3219 122.17 19.5067C120.669 20.6627 118.822 21.2696 116.631 21.3274C116.751 22.4544 117.141 23.437 117.802 24.275C118.492 25.0842 119.288 25.4888 120.188 25.4888C121.089 25.4888 121.9 25.2865 122.62 24.8819C123.341 24.4773 124.001 23.8994 124.602 23.148C125.863 21.5585 126.943 19.7524 127.844 17.7294C128.084 17.2093 128.264 16.8336 128.384 16.6024C128.534 16.3712 128.685 16.2556 128.835 16.2556C129.015 16.2556 129.105 16.3712 129.105 16.6024C129.105 18.0473 128.189 20.2147 126.358 23.1046C124.376 26.1968 121.93 27.7429 119.018 27.7429ZM116.631 20.287C118.402 19.998 119.693 19.4489 120.504 18.6398C121.344 17.8306 121.765 16.7758 121.765 15.4753C121.765 14.1749 121.329 13.5247 120.459 13.5247C119.408 13.5247 118.522 14.2327 117.802 15.6487C117.081 17.0359 116.691 18.582 116.631 20.287Z" fill="url(#paint19_linear)"/>
<path d="M138.695 27.7429C137.525 27.7429 136.639 27.5117 136.038 27.0493C135.828 26.847 135.723 26.3413 135.723 25.5321C135.723 24.6941 135.753 23.5815 135.813 22.1943C135.033 24.0727 134.252 25.4743 133.472 26.3991C132.721 27.295 131.745 27.7429 130.544 27.7429C129.344 27.7429 128.293 27.2083 127.392 26.139C126.492 25.0409 126.041 23.3358 126.041 21.0239C126.041 18.6831 126.717 16.6168 128.068 14.8251C129.449 13.0334 131.25 12.1375 133.472 12.1375C134.432 12.1375 135.513 12.7444 136.714 13.9581C136.954 13.6403 137.374 13.2646 137.975 12.8311C138.605 12.3687 139.131 12.1375 139.551 12.1375C140.001 12.1375 140.226 12.6866 140.226 13.7848C140.226 14.0737 140.136 14.6373 139.956 15.4753C139.806 16.3134 139.626 16.9203 139.416 17.296C139.146 17.9606 139.011 20.3159 139.011 24.3617C139.011 25.142 139.101 25.5321 139.281 25.5321C139.791 25.5032 140.497 24.8964 141.397 23.7115C142.298 22.4978 143.184 20.9517 144.054 19.0732C144.955 17.1948 145.495 16.2556 145.675 16.2556C145.886 16.2556 145.991 16.3712 145.991 16.6024C145.991 17.4116 145.555 18.6976 144.685 20.4604C142.313 25.3154 140.317 27.7429 138.695 27.7429ZM133.201 13.8715C132.361 13.8715 131.46 14.4783 130.499 15.6921C129.569 16.8769 129.103 18.2785 129.103 19.8969C129.103 21.5152 129.344 22.8445 129.824 23.8849C130.334 24.9253 130.995 25.4454 131.805 25.4454C132.796 25.4454 134.252 23.0613 136.174 18.293C136.204 18.0618 136.234 17.6717 136.264 17.1226C136.324 16.5446 136.369 16.1111 136.399 15.8221C136.129 15.3597 135.648 14.9263 134.958 14.5217C134.297 14.0882 133.712 13.8715 133.201 13.8715Z" fill="url(#paint20_linear)"/>
<path d="M146.342 25.1854L146.387 26.5291C146.387 27.3383 146.147 27.7429 145.667 27.7429C144.946 27.7429 144.256 27.6562 143.595 27.4828C142.935 27.2805 142.605 27.0204 142.605 26.7025C142.605 26.3558 142.68 25.2143 142.83 23.278C143.01 21.3129 143.1 19.8391 143.1 18.8565V16.299C143.1 14.9118 143.25 14.0737 143.55 13.7848C143.851 13.4958 144.376 13.0767 145.127 12.5277C145.907 11.9786 146.463 11.704 146.793 11.704C147.153 11.704 147.378 11.7618 147.468 11.8774C147.558 11.993 147.603 12.2098 147.603 12.5277C147.603 14.0593 147.303 15.5042 146.703 16.8625C146.553 18.5097 146.478 19.6512 146.478 20.287C148.069 17.426 149.179 15.5476 149.81 14.6517C150.921 12.9756 151.926 12.1375 152.827 12.1375C153.398 12.1375 153.923 12.3543 154.403 12.7877C154.914 13.2212 155.169 13.7559 155.169 14.3916C155.169 15.0274 155.154 15.6343 155.124 16.2123C155.124 16.7613 155.109 17.1948 155.079 17.5127C155.049 17.8306 155.034 18.0329 155.034 18.1196C155.154 17.8884 155.664 17.2382 156.565 16.1689C157.465 15.0997 158.066 14.4061 158.366 14.0882C158.696 13.7703 159.042 13.4524 159.402 13.1345C160.092 12.4699 160.708 12.1375 161.248 12.1375C161.819 12.1375 162.344 12.3398 162.824 12.7444C163.335 13.149 163.59 13.6547 163.59 14.2616C163.59 15.5331 163.44 17.4116 163.14 19.8969C162.869 22.3533 162.734 23.9138 162.734 24.5785C162.734 25.2143 162.824 25.5321 163.004 25.5321C163.515 25.5032 164.22 24.8964 165.121 23.7115C166.022 22.4978 166.907 20.9517 167.778 19.0732C168.679 17.1948 169.219 16.2556 169.399 16.2556C169.609 16.2556 169.714 16.3712 169.714 16.6024C169.714 17.4116 169.279 18.6976 168.408 20.4604C166.037 25.3154 164.04 27.7429 162.419 27.7429C161.398 27.7429 160.588 27.5117 159.987 27.0493C159.777 26.847 159.672 26.3269 159.672 25.4888C159.672 24.6218 159.747 23.2347 159.897 21.3274C160.077 19.3911 160.167 17.9462 160.167 16.9925C160.167 16.0389 160.002 15.562 159.672 15.562C159.282 15.562 158.426 16.1978 157.105 17.4694C155.814 18.7409 155.124 19.6368 155.034 20.157C154.854 21.1395 154.764 23.2636 154.764 26.5291C154.764 27.3383 154.538 27.7429 154.088 27.7429C153.398 27.7429 152.737 27.6562 152.107 27.4828C151.506 27.2805 151.206 27.0204 151.206 26.7025C151.206 26.3558 151.296 24.9253 151.476 22.4111C151.656 19.8969 151.746 18.134 151.746 17.1226C151.746 16.0822 151.566 15.562 151.206 15.562C150.876 15.562 150.05 16.559 148.729 18.5531C147.408 20.5182 146.673 21.8909 146.523 22.6712C146.402 23.4514 146.342 24.2895 146.342 25.1854Z" fill="url(#paint21_linear)"/>
<path d="M173.001 14.2616L173.091 13.6114C173.091 13.0912 172.776 12.8311 172.146 12.8311C171.545 12.8311 170.96 13.2212 170.39 14.0015C169.819 14.7529 169.534 15.3742 169.534 15.8655C169.534 16.3568 169.564 16.7469 169.624 17.0359C169.684 17.3249 169.744 17.5705 169.804 17.7728C169.894 17.9462 170.029 18.1629 170.209 18.423C170.39 18.6831 170.525 18.871 170.615 18.9865L171.11 19.5934C171.32 19.8824 171.47 20.0703 171.56 20.157C173.121 18.9143 174.983 17.5272 177.144 15.9955C177.264 15.9088 177.4 15.8655 177.55 15.8655C177.85 15.8655 178 16.0244 178 16.3423C178 16.6602 177.865 16.9058 177.595 17.0792C175.673 18.2641 173.857 19.5501 172.146 20.9372C172.806 21.862 173.137 22.8734 173.137 23.9716C173.137 25.0698 172.701 26.009 171.831 26.7892C170.96 27.5695 169.849 27.9596 168.498 27.9596C167.147 27.9596 166.472 27.3383 166.472 26.0957C166.472 25.1998 167.462 23.8271 169.444 21.9776C169.294 21.8042 169.024 21.5296 168.633 21.154C168.243 20.7494 167.943 20.4315 167.733 20.2003C167.552 19.9691 167.327 19.6657 167.057 19.29C166.577 18.5675 166.337 17.7872 166.337 16.9492C166.337 15.2441 166.907 13.8715 168.048 12.8311C169.189 11.7618 170.405 11.2272 171.695 11.2272C172.506 11.2272 173.136 11.4439 173.587 11.8774C174.037 12.282 174.262 12.701 174.262 13.1345C174.262 14.1171 174.022 14.6084 173.542 14.6084C173.182 14.6084 173.001 14.4928 173.001 14.2616ZM170.119 22.8012C168.918 23.9572 168.318 24.8964 168.318 25.6188C168.318 26.3124 168.693 26.6592 169.444 26.6592C169.894 26.6592 170.269 26.4858 170.57 26.139C171.23 25.272 171.08 24.1594 170.119 22.8012Z" fill="url(#paint22_linear)"/>
<path fill-rule="evenodd" clip-rule="evenodd" d="M15.5939 6.50224L15.3687 7.6293C15.3987 8.06278 15.7139 8.27952 16.3144 8.27952C16.9448 8.27952 17.4402 8.04833 17.8004 7.58595C18.1607 7.12357 18.3408 6.54559 18.3408 5.85202C18.3108 4.66717 17.6954 3.78575 16.4945 3.20777C15.2936 2.6298 13.9577 2.34081 12.4866 2.34081C10.295 2.34081 8.32861 2.91879 6.58736 4.07474C4.87612 5.23069 4.02051 6.77678 4.02051 8.71301C4.02051 9.81116 4.4258 10.7937 5.23638 11.6607C6.04697 12.5277 7.02267 13.2646 8.16349 13.8715C9.33434 14.4783 10.4902 15.0852 11.631 15.6921C11.8881 15.8224 12.1369 15.9593 12.3773 16.1027C7.58453 17.618 3.77634 18.1629 0.990739 20.6338C0.330263 21.3852 2.50776e-05 22.2232 2.50776e-05 23.148C2.50776e-05 24.8819 1.72385 25.8356 3.34502 26.7025C4.96619 27.5406 6.99265 27.9596 9.4244 27.9596C11.8562 27.9596 14.1228 27.2227 16.2243 25.7489C18.3258 24.275 19.3766 22.2521 19.3766 19.6801C19.1645 17.1535 16.9129 15.1409 16.9129 15.1409C19.9687 13.5928 22.5417 13.2832 22.5417 13.2832C19.9687 14.9861 21.6211 27.7429 23.9932 27.7429C25.3141 27.7429 26.5901 26.8615 27.821 25.0987C28.5115 26.8615 29.6373 27.7429 31.1984 27.7429C32.7595 27.7429 34.0504 27.0349 35.0712 25.6188C36.0919 24.1739 36.8425 22.3822 37.3228 20.2436L40.5054 21.1787C40.5053 21.3549 40.5079 21.5345 40.5131 21.7175C40.5131 23.278 41.0084 24.6796 41.9991 25.9223C42.9899 27.136 44.3258 27.7429 46.007 27.7429C48.2456 27.7429 51.6139 26.0596 54.2942 24.5777C54.3545 25.0118 54.313 25.4281 54.5168 25.9223C55.1552 27.4708 56.8434 27.7429 58.5246 27.7429C61.4367 27.7429 63.9847 26.5436 65.9661 23.4514C66.0881 23.2589 66.2056 23.0681 66.3186 22.8791C66.3293 22.2182 66.3577 21.4778 66.4038 20.6581C66.124 21.6264 65.8017 22.5397 65.162 23.3461C64.5615 24.0975 63.1484 24.9542 62.4279 25.3587C61.7073 25.7633 60.5944 26.2876 59.6938 26.2876C58.7931 26.2876 57.4413 26.3826 56.638 25.5321C56.0354 24.8942 56.3163 23.3461 56.3163 23.3461C58.2463 22.5721 60.1008 21.4477 61.6769 19.5067C62.9023 17.9977 63.9736 16.8625 63.9736 15.1286C63.9736 14.2038 63.6433 13.4813 62.9829 12.9611C62.3224 12.4121 61.4818 12.1375 60.461 12.1375C58.4147 12.1375 53.211 14.7561 54.2075 23.8799C52.5352 24.9199 49.9599 26.042 47.1779 25.4888C46.2772 25.4888 45.4816 25.0842 44.7911 24.275C44.1307 23.437 43.7404 22.4544 43.6203 21.3274C45.8119 21.2696 47.6582 20.6627 49.1593 19.5067C50.6904 18.3219 51.456 16.8625 51.456 15.1286C51.456 14.2038 51.1257 13.4813 50.4652 12.9611C49.8048 12.4121 48.9642 12.1375 47.9434 12.1375C45.9039 12.1375 41.0172 13.1297 40.5426 20.0651C39.3982 19.8201 38.625 19.6306 37.66 18.6398C37.7501 17.8306 37.8182 16.7469 37.8182 15.9955C37.8182 13.1345 37.1277 11.704 35.7467 11.704C34.7259 11.704 33.9454 12.0942 33.405 12.8744C32.8946 13.6258 32.6394 14.5361 32.6394 15.6054C32.6394 16.6457 32.9396 17.5705 33.5401 18.3797C34.1405 19.1888 34.9961 19.7379 36.1069 20.0269C35.7767 21.5874 35.3114 22.9168 34.7109 24.0149C34.1105 25.0842 33.375 25.6188 32.5043 25.6188C31.9039 25.6188 31.3485 25.1854 30.8381 24.3184C30.3578 23.4225 30.0576 22.3388 29.9375 21.0673C30.7481 18.871 31.1534 17.0359 31.1534 15.562C31.1534 15.013 31.0933 14.6662 30.9732 14.5217C30.8832 14.3772 30.718 14.3049 30.4779 14.3049C29.7273 14.3049 29.0819 14.7818 28.5415 15.7354C28.0011 16.6891 27.6408 17.6428 27.4607 18.5964C27.2806 19.5212 27.1905 20.4026 27.1905 21.2407C27.1905 22.0498 27.2656 22.8156 27.4157 23.5381C26.545 24.9253 25.8095 25.6188 25.2091 25.6188C24.6086 25.6188 24.1433 25.1276 23.8131 24.145C23.5128 23.1335 23.3627 21.9776 23.3627 20.6771C23.3627 19.3478 23.3521 18.7919 23.507 17.8161C23.8111 15.9005 24.8338 14.7095 24.8938 13.3513C24.8938 12.8311 24.6687 12.571 24.2184 12.571C23.9181 12.571 23.1928 12.7385 22.5417 12.8744C20.1332 13.3772 16.5439 14.7635 16.5439 14.7635C16.1501 14.4658 15.7284 14.1974 15.2786 13.9581C14.1678 13.3224 13.042 12.7444 11.9012 12.2242C10.7904 11.6751 9.82969 11.0683 9.01911 10.4036C8.23855 9.71002 7.84826 8.9153 7.84826 8.01943C7.84826 7.09467 8.28358 6.2277 9.15421 5.41854C10.0549 4.58047 11.1056 4.16144 12.3065 4.16144C14.378 4.16144 15.4738 4.94171 15.5939 6.50224ZM5.8218 25.0987C4.92116 24.3184 4.23711 23.2161 4.20709 22.2624C4.68983 19.7854 5.97623 18.5469 13.0114 16.5101C13.5806 16.9032 14.0962 17.3385 14.5581 17.8161C15.3687 18.6542 15.774 19.5934 15.774 20.6338C15.774 22.1943 15.1735 23.5237 13.9727 24.6218C12.8018 25.72 11.3758 26.2691 9.6946 26.2691C8.04341 26.2691 6.75248 25.8789 5.8218 25.0987ZM35.0261 14.8251C35.0261 13.8426 35.1612 13.3513 35.4314 13.3513C36.1219 13.3513 36.4672 14.5361 36.4672 16.9058C36.4672 17.1948 36.4522 17.4116 36.4222 17.5561C35.4915 16.718 35.0261 15.8077 35.0261 14.8251ZM47.4931 18.6398C46.6825 19.4489 45.3916 19.998 43.6203 20.287C43.6803 18.582 44.0706 17.0359 44.7911 15.6487C45.5117 14.2327 46.3973 13.5247 47.4481 13.5247C48.3187 13.5247 48.754 14.1749 48.754 15.4753C48.754 16.7758 48.3337 17.8306 47.4931 18.6398ZM60.4979 18.6398C59.4954 20.4857 56.1555 22.4173 56.1555 22.4173C56.1555 22.4173 55.8338 19.0113 57.3088 15.6487C58.0293 14.2327 58.9149 13.5247 59.9657 13.5247C60.8363 13.5247 61.2716 14.1749 61.2716 15.4753C61.2716 16.7758 61.1089 17.5147 60.4979 18.6398Z" fill="url(#paint23_linear)"/>
<defs>
<linearGradient id="paint0_linear" x1="30" y1="41.0848" x2="150.334" y2="41.5157" gradientUnits="userSpaceOnUse">
<stop stop-color="#FF5777"/>
<stop offset="0.484375" stop-color="#894252"/>
<stop offset="1" stop-color="#FF5777"/>
</linearGradient>
<linearGradient id="paint1_linear" x1="30" y1="41.0848" x2="150.334" y2="41.5157" gradientUnits="userSpaceOnUse">
<stop stop-color="#FF5777"/>
<stop offset="0.484375" stop-color="#894252"/>
<stop offset="1" stop-color="#FF5777"/>
</linearGradient>
<linearGradient id="paint2_linear" x1="30" y1="41.0848" x2="150.334" y2="41.5157" gradientUnits="userSpaceOnUse">
<stop stop-color="#FF5777"/>
<stop offset="0.484375" stop-color="#894252"/>
<stop offset="1" stop-color="#FF5777"/>
</linearGradient>
<linearGradient id="paint3_linear" x1="30" y1="41.0848" x2="150.334" y2="41.5157" gradientUnits="userSpaceOnUse">
<stop stop-color="#FF5777"/>
<stop offset="0.484375" stop-color="#894252"/>
<stop offset="1" stop-color="#FF5777"/>
</linearGradient>
<linearGradient id="paint4_linear" x1="30" y1="41.0848" x2="150.334" y2="41.5157" gradientUnits="userSpaceOnUse">
<stop stop-color="#FF5777"/>
<stop offset="0.484375" stop-color="#894252"/>
<stop offset="1" stop-color="#FF5777"/>
</linearGradient>
<linearGradient id="paint5_linear" x1="30" y1="41.0848" x2="150.334" y2="41.5157" gradientUnits="userSpaceOnUse">
<stop stop-color="#FF5777"/>
<stop offset="0.484375" stop-color="#894252"/>
<stop offset="1" stop-color="#FF5777"/>
</linearGradient>
<linearGradient id="paint6_linear" x1="30" y1="41.0848" x2="150.334" y2="41.5157" gradientUnits="userSpaceOnUse">
<stop stop-color="#FF5777"/>
<stop offset="0.484375" stop-color="#894252"/>
<stop offset="1" stop-color="#FF5777"/>
</linearGradient>
<linearGradient id="paint7_linear" x1="30" y1="41.0848" x2="150.334" y2="41.5157" gradientUnits="userSpaceOnUse">
<stop stop-color="#FF5777"/>
<stop offset="0.484375" stop-color="#894252"/>
<stop offset="1" stop-color="#FF5777"/>
</linearGradient>
<linearGradient id="paint8_linear" x1="30" y1="41.0848" x2="150.334" y2="41.5157" gradientUnits="userSpaceOnUse">
<stop stop-color="#FF5777"/>
<stop offset="0.484375" stop-color="#894252"/>
<stop offset="1" stop-color="#FF5777"/>
</linearGradient>
<linearGradient id="paint9_linear" x1="30" y1="41.0848" x2="150.334" y2="41.5157" gradientUnits="userSpaceOnUse">
<stop stop-color="#FF5777"/>
<stop offset="0.484375" stop-color="#894252"/>
<stop offset="1" stop-color="#FF5777"/>
</linearGradient>
<linearGradient id="paint10_linear" x1="30" y1="41.0848" x2="150.334" y2="41.5157" gradientUnits="userSpaceOnUse">
<stop stop-color="#FF5777"/>
<stop offset="0.484375" stop-color="#894252"/>
<stop offset="1" stop-color="#FF5777"/>
</linearGradient>
<linearGradient id="paint11_linear" x1="30" y1="41.0848" x2="150.334" y2="41.5157" gradientUnits="userSpaceOnUse">
<stop stop-color="#FF5777"/>
<stop offset="0.484375" stop-color="#894252"/>
<stop offset="1" stop-color="#FF5777"/>
</linearGradient>
<linearGradient id="paint12_linear" x1="30" y1="41.0848" x2="150.334" y2="41.5157" gradientUnits="userSpaceOnUse">
<stop stop-color="#FF5777"/>
<stop offset="0.484375" stop-color="#894252"/>
<stop offset="1" stop-color="#FF5777"/>
</linearGradient>
<linearGradient id="paint13_linear" x1="30" y1="41.0848" x2="150.334" y2="41.5157" gradientUnits="userSpaceOnUse">
<stop stop-color="#FF5777"/>
<stop offset="0.484375" stop-color="#894252"/>
<stop offset="1" stop-color="#FF5777"/>
</linearGradient>
<linearGradient id="paint14_linear" x1="30" y1="41.0848" x2="150.334" y2="41.5157" gradientUnits="userSpaceOnUse">
<stop stop-color="#FF5777"/>
<stop offset="0.484375" stop-color="#894252"/>
<stop offset="1" stop-color="#FF5777"/>
</linearGradient>
<linearGradient id="paint15_linear" x1="30" y1="41.0848" x2="150.334" y2="41.5157" gradientUnits="userSpaceOnUse">
<stop stop-color="#FF5777"/>
<stop offset="0.484375" stop-color="#894252"/>
<stop offset="1" stop-color="#FF5777"/>
</linearGradient>
<linearGradient id="paint16_linear" x1="7.8615e-09" y1="16.82" x2="177.998" y2="17.5535" gradientUnits="userSpaceOnUse">
<stop stop-color="#FF5777"/>
<stop offset="0.484375" stop-color="#894252"/>
<stop offset="1" stop-color="#FF5777"/>
</linearGradient>
<linearGradient id="paint17_linear" x1="7.8615e-09" y1="16.82" x2="177.998" y2="17.5535" gradientUnits="userSpaceOnUse">
<stop stop-color="#FF5777"/>
<stop offset="0.484375" stop-color="#894252"/>
<stop offset="1" stop-color="#FF5777"/>
</linearGradient>
<linearGradient id="paint18_linear" x1="7.8615e-09" y1="16.82" x2="177.998" y2="17.5535" gradientUnits="userSpaceOnUse">
<stop stop-color="#FF5777"/>
<stop offset="0.484375" stop-color="#894252"/>
<stop offset="1" stop-color="#FF5777"/>
</linearGradient>
<linearGradient id="paint19_linear" x1="7.8615e-09" y1="16.82" x2="177.998" y2="17.5535" gradientUnits="userSpaceOnUse">
<stop stop-color="#FF5777"/>
<stop offset="0.484375" stop-color="#894252"/>
<stop offset="1" stop-color="#FF5777"/>
</linearGradient>
<linearGradient id="paint20_linear" x1="7.8615e-09" y1="16.82" x2="177.998" y2="17.5535" gradientUnits="userSpaceOnUse">
<stop stop-color="#FF5777"/>
<stop offset="0.484375" stop-color="#894252"/>
<stop offset="1" stop-color="#FF5777"/>
</linearGradient>
<linearGradient id="paint21_linear" x1="7.8615e-09" y1="16.82" x2="177.998" y2="17.5535" gradientUnits="userSpaceOnUse">
<stop stop-color="#FF5777"/>
<stop offset="0.484375" stop-color="#894252"/>
<stop offset="1" stop-color="#FF5777"/>
</linearGradient>
<linearGradient id="paint22_linear" x1="7.8615e-09" y1="16.82" x2="177.998" y2="17.5535" gradientUnits="userSpaceOnUse">
<stop stop-color="#FF5777"/>
<stop offset="0.484375" stop-color="#894252"/>
<stop offset="1" stop-color="#FF5777"/>
</linearGradient>
<linearGradient id="paint23_linear" x1="7.8615e-09" y1="16.82" x2="177.998" y2="17.5535" gradientUnits="userSpaceOnUse">
<stop stop-color="#FF5777"/>
<stop offset="0.484375" stop-color="#894252"/>
<stop offset="1" stop-color="#FF5777"/>
</linearGradient>
</defs>
</svg>
