<svg width="146" height="24" viewBox="0 0 146 24" fill="none" xmlns="http://www.w3.org/2000/svg">
<path d="M62.0382 16.9327C60.0928 20.9507 58.443 22.9596 57.0886 22.9596C55.7589 22.9596 54.9709 22.8042 54.7247 22.4933C54.5031 22.1824 54.3923 21.154 54.3923 19.4081C54.3923 19.2561 54.3936 19.0982 54.3962 18.9344C54.4049 18.3875 54.4282 17.7748 54.4661 17.0964C54.5471 15.6447 54.6949 13.8921 54.9094 11.8386C53.6781 11.5994 53.0256 11.1091 52.9517 10.3677C52.9517 9.98505 53.2103 9.79372 53.7274 9.79372C54.2445 9.79372 54.7001 9.88939 55.0941 10.0807C55.3157 8.35875 55.5742 6.61286 55.8697 4.84305C55.9436 4.38864 56.1775 3.95815 56.5715 3.55157C56.9655 3.14499 57.3472 2.9417 57.7166 2.9417C58.0367 2.9417 58.1967 3.43199 58.1967 4.41256C58.1967 4.86697 58.0244 6.95964 57.6796 10.6906C58.3445 10.571 59.0709 10.3318 59.8589 9.97309C60.6715 9.61435 61.1517 9.43498 61.2994 9.43498C61.7427 9.43498 61.9643 9.56652 61.9643 9.8296C61.9889 10.0688 61.5334 10.4036 60.5976 10.8341C59.6619 11.2407 58.6523 11.5516 57.5688 11.7668C57.2733 15.2586 57.1256 17.9013 57.1256 19.6951C57.1256 20.6517 57.2733 21.13 57.5688 21.13C58.0121 21.1061 58.603 20.6039 59.3418 19.6233C60.0805 18.6428 60.8069 17.3752 61.521 15.8206C62.2598 14.2422 62.703 13.4529 62.8508 13.4529C63.0231 13.4529 63.1093 13.5486 63.1093 13.7399C63.1093 14.4096 62.7523 15.4738 62.0382 16.9327Z" fill="url(#paint0_linear)"/>
<path d="M63.522 9.90135L63.7436 12.1973C63.7436 12.4365 63.6082 12.6278 63.3373 12.7713C63.091 12.9148 62.8817 12.9865 62.7094 12.9865C62.3646 12.9865 62.0568 12.7235 61.7859 12.1973C61.5397 11.6472 61.4166 11.145 61.4166 10.6906C61.4166 8.92078 62.0445 7.42601 63.3003 6.20628C64.5808 4.96263 66.1937 4.0299 68.139 3.40807C68.139 2.59492 68.3114 1.8296 68.6561 1.11211C69.0255 0.370703 69.5919 0 70.3552 0C70.6754 0 70.8354 0.442451 70.8354 1.32735V2.83408C71.6234 2.73842 72.2021 2.69058 72.5714 2.69058C75.8465 2.69058 78.4321 3.58745 80.3281 5.38117C82.2489 7.15097 83.2092 9.38715 83.2092 12.0897C83.2092 13.9552 82.8645 15.6054 82.175 17.0404C81.4855 18.4753 80.5498 19.6114 79.3678 20.4484C77.0038 22.1226 74.172 22.9596 70.8723 22.9596H70.0967C70.0228 23.6532 69.9243 24 69.8012 24C68.6438 24 67.8682 23.8445 67.4742 23.5336C67.3018 23.3662 67.2033 23.0792 67.1787 22.6726C64.9871 22.0747 63.8913 21.417 63.8913 20.6996C63.8913 20.4604 63.9775 20.281 64.1499 20.1614C64.3223 20.0179 64.5069 19.9462 64.7039 19.9462C64.9256 19.9462 65.7505 20.2332 67.1787 20.8072C67.4003 14.5411 67.6835 9.15994 68.0282 4.66368C66.6739 5.11809 65.5781 5.7997 64.7409 6.70852C63.9283 7.61734 63.522 8.68162 63.522 9.90135ZM71.5741 4.08969C71.2294 4.08969 70.9708 4.10165 70.7985 4.12556C70.7 8.31091 70.5769 11.8266 70.4291 14.6726C70.306 18.3797 70.2198 20.7115 70.1705 21.6682C70.663 21.7399 71.1802 21.7758 71.7219 21.7758C74.0612 21.7758 76.0927 20.9387 77.8165 19.2646C79.5402 17.5665 80.402 15.4858 80.402 13.0224C80.402 10.559 79.5771 8.45441 77.9273 6.70852C76.2774 4.96263 74.1597 4.08969 71.5741 4.08969Z" fill="url(#paint1_linear)"/>
<path d="M87.4679 13.417L89.4994 13.2018C89.6964 13.2018 89.8688 13.3094 90.0165 13.5247C90.1643 13.7399 90.2382 13.9671 90.2382 14.2063C90.2382 14.4454 90.152 15.2586 89.9796 16.6457C89.8318 18.0329 89.758 19.133 89.758 19.9462C89.758 20.7354 89.8318 21.13 89.9796 21.13C90.3982 21.1061 90.9769 20.6039 91.7156 19.6233C92.4544 18.6188 93.1808 17.3393 93.8949 15.7848C94.6336 14.2302 95.0769 13.4529 95.2246 13.4529C95.397 13.4529 95.4832 13.5486 95.4832 13.7399C95.4832 14.4096 95.1261 15.4738 94.412 16.9327C92.4667 20.9507 90.8291 22.9596 89.4994 22.9596C88.5391 22.9596 87.8126 22.7683 87.3202 22.3857C87.1478 22.2182 87.0616 21.1779 87.0616 19.2646C87.0616 17.3513 87.2709 15.713 87.6895 14.3498C86.2613 14.3498 85.264 13.9073 84.6976 13.0224C84.4021 12.568 84.2544 12.0538 84.2544 11.4798C84.2544 10.9058 84.3775 10.4036 84.6238 9.97309C84.87 9.5426 85.2148 9.32735 85.658 9.32735C86.1259 9.32735 86.5445 9.56652 86.9138 10.0448C87.3078 10.4993 87.5048 11.0135 87.5048 11.5874C87.5048 12.1614 87.3325 12.7354 86.9877 13.3094C87.0862 13.3812 87.2463 13.417 87.4679 13.417Z" fill="url(#paint2_linear)"/>
<path d="M97.6212 22.9596C96.2422 22.9596 95.1464 22.4574 94.3338 21.4529C93.5212 20.4245 93.1149 19.2646 93.1149 17.9731C93.1149 15.3662 93.6813 13.3931 94.814 12.0538C95.9467 10.7145 97.4119 10.0448 99.2094 10.0448C100.047 10.0448 100.736 10.272 101.278 10.7265C101.82 11.157 102.091 11.7549 102.091 12.5202C102.091 13.9552 101.463 15.1629 100.207 16.1435C98.9755 17.1002 97.4611 17.6024 95.6635 17.6502C95.762 18.583 96.0821 19.3961 96.6239 20.0897C97.1902 20.7593 97.8428 21.0942 98.5815 21.0942C99.3203 21.0942 99.9851 20.9268 100.576 20.5919C101.167 20.2571 101.709 19.7788 102.201 19.157C103.236 17.8416 104.122 16.3468 104.861 14.6726C105.058 14.2422 105.206 13.9312 105.304 13.7399C105.427 13.5486 105.55 13.4529 105.673 13.4529C105.821 13.4529 105.895 13.5486 105.895 13.7399C105.895 14.9357 105.144 16.7294 103.642 19.1211C102.017 21.6801 100.01 22.9596 97.6212 22.9596ZM95.6635 16.7892C97.1164 16.5501 98.1752 16.0957 98.8401 15.426C99.5296 14.7564 99.8743 13.8834 99.8743 12.8072C99.8743 11.7309 99.5173 11.1928 98.8031 11.1928C97.9413 11.1928 97.2149 11.7788 96.6239 12.9507C96.0329 14.0987 95.7128 15.3782 95.6635 16.7892Z" fill="url(#paint3_linear)"/>
<path d="M113.761 22.9596C112.801 22.9596 112.075 22.7683 111.582 22.3857C111.41 22.2182 111.324 21.7997 111.324 21.13C111.324 20.4365 111.348 19.5157 111.397 18.3677C110.757 19.9223 110.117 21.0822 109.477 21.8475C108.861 22.5889 108.061 22.9596 107.076 22.9596C106.091 22.9596 105.229 22.5172 104.49 21.6323C103.752 20.7235 103.382 19.3124 103.382 17.3991C103.382 15.4619 103.936 13.7519 105.044 12.2691C106.177 10.7862 107.654 10.0448 109.477 10.0448C110.265 10.0448 111.151 10.5471 112.136 11.5516C112.333 11.2885 112.678 10.9776 113.17 10.6188C113.687 10.2362 114.118 10.0448 114.463 10.0448C114.833 10.0448 115.017 10.4993 115.017 11.4081C115.017 11.6472 114.943 12.1136 114.796 12.8072C114.672 13.5007 114.525 14.003 114.352 14.3139C114.131 14.864 114.02 16.8132 114.02 20.1614C114.02 20.8072 114.094 21.13 114.242 21.13C114.66 21.1061 115.239 20.6039 115.978 19.6233C116.716 18.6188 117.443 17.3393 118.157 15.7848C118.896 14.2302 119.339 13.4529 119.487 13.4529C119.659 13.4529 119.745 13.5486 119.745 13.7399C119.745 14.4096 119.388 15.4738 118.674 16.9327C116.729 20.9507 115.091 22.9596 113.761 22.9596ZM109.255 11.4798C108.566 11.4798 107.827 11.9821 107.039 12.9865C106.276 13.9671 105.894 15.1271 105.894 16.4664C105.894 17.8057 106.091 18.9058 106.485 19.7668C106.903 20.6278 107.445 21.0583 108.11 21.0583C108.923 21.0583 110.117 19.0852 111.693 15.139C111.718 14.9477 111.742 14.6248 111.767 14.1704C111.816 13.6921 111.853 13.3333 111.878 13.0942C111.656 12.7115 111.262 12.3528 110.696 12.0179C110.154 11.6592 109.674 11.4798 109.255 11.4798Z" fill="url(#paint4_linear)"/>
<path d="M120.034 20.8431L120.071 21.9552C120.071 22.6248 119.874 22.9596 119.48 22.9596C118.889 22.9596 118.322 22.8879 117.781 22.7444C117.239 22.577 116.968 22.3617 116.968 22.0987C116.968 21.8117 117.029 20.867 117.153 19.2646C117.3 17.6383 117.374 16.4185 117.374 15.6054V13.4888C117.374 12.3408 117.497 11.6472 117.744 11.4081C117.99 11.1689 118.421 10.8221 119.036 10.3677C119.677 9.91331 120.132 9.6861 120.403 9.6861C120.699 9.6861 120.883 9.73393 120.957 9.8296C121.031 9.92526 121.068 10.1046 121.068 10.3677C121.068 11.6353 120.822 12.8311 120.329 13.9552C120.206 15.3184 120.144 16.2631 120.144 16.7892C121.45 14.4215 122.361 12.867 122.878 12.1256C123.789 10.7384 124.614 10.0448 125.353 10.0448C125.82 10.0448 126.251 10.2242 126.645 10.583C127.064 10.9417 127.273 11.3842 127.273 11.9103C127.273 12.4365 127.261 12.9387 127.236 13.417C127.236 13.8715 127.224 14.2302 127.199 14.4933C127.175 14.7564 127.162 14.9238 127.162 14.9955C127.261 14.8042 127.68 14.2661 128.418 13.3812C129.157 12.4963 129.65 11.9223 129.896 11.6592C130.167 11.3961 130.45 11.133 130.745 10.87C131.312 10.3199 131.816 10.0448 132.26 10.0448C132.728 10.0448 133.159 10.2123 133.553 10.5471C133.971 10.8819 134.18 11.3005 134.18 11.8027C134.18 12.855 134.057 14.4096 133.811 16.4664C133.589 18.4993 133.479 19.7907 133.479 20.3408C133.479 20.867 133.553 21.13 133.7 21.13C134.119 21.1061 134.698 20.6039 135.436 19.6233C136.175 18.6188 136.902 17.3393 137.616 15.7848C138.354 14.2302 138.798 13.4529 138.945 13.4529C139.118 13.4529 139.204 13.5486 139.204 13.7399C139.204 14.4096 138.847 15.4738 138.133 16.9327C136.187 20.9507 134.55 22.9596 133.22 22.9596C132.383 22.9596 131.718 22.7683 131.226 22.3857C131.053 22.2182 130.967 21.7877 130.967 21.0942C130.967 20.3767 131.029 19.2287 131.152 17.6502C131.299 16.0478 131.373 14.852 131.373 14.0628C131.373 13.2735 131.238 12.8789 130.967 12.8789C130.647 12.8789 129.945 13.4051 128.862 14.4574C127.803 15.5097 127.236 16.2511 127.162 16.6816C127.015 17.4948 126.941 19.2526 126.941 21.9552C126.941 22.6248 126.756 22.9596 126.387 22.9596C125.82 22.9596 125.279 22.8879 124.762 22.7444C124.269 22.577 124.023 22.3617 124.023 22.0987C124.023 21.8117 124.097 20.6278 124.244 18.5471C124.392 16.4664 124.466 15.0075 124.466 14.1704C124.466 13.3094 124.318 12.8789 124.023 12.8789C123.752 12.8789 123.075 13.704 121.991 15.3543C120.908 16.9806 120.305 18.1166 120.181 18.7623C120.083 19.4081 120.034 20.1016 120.034 20.8431Z" fill="url(#paint5_linear)"/>
<path d="M141.9 11.8027L141.974 11.2646C141.974 10.8341 141.715 10.6188 141.198 10.6188C140.706 10.6188 140.226 10.9417 139.758 11.5874C139.29 12.2093 139.056 12.7235 139.056 13.13C139.056 13.5366 139.081 13.8595 139.13 14.0987C139.179 14.3378 139.228 14.5411 139.278 14.7085C139.351 14.852 139.462 15.0314 139.61 15.2466C139.758 15.4619 139.869 15.6173 139.942 15.713L140.349 16.2152C140.521 16.4544 140.644 16.6099 140.718 16.6816C141.999 15.6532 143.525 14.5052 145.298 13.2377C145.397 13.1659 145.508 13.13 145.631 13.13C145.877 13.13 146 13.2616 146 13.5247C146 13.7877 145.889 13.991 145.668 14.1345C144.092 15.1151 142.602 16.1794 141.198 17.3274C141.74 18.0927 142.011 18.9297 142.011 19.8386C142.011 20.7474 141.654 21.5247 140.94 22.1704C140.226 22.8161 139.314 23.139 138.206 23.139C137.098 23.139 136.544 22.6248 136.544 21.5964C136.544 20.855 137.357 19.719 138.982 18.1883C138.859 18.0448 138.637 17.8176 138.317 17.5067C137.997 17.1719 137.751 16.9088 137.578 16.7175C137.431 16.5262 137.246 16.275 137.024 15.9641C136.63 15.3662 136.433 14.7205 136.433 14.0269C136.433 12.6158 136.901 11.4798 137.837 10.6188C138.773 9.73393 139.77 9.29148 140.829 9.29148C141.494 9.29148 142.011 9.47085 142.38 9.8296C142.75 10.1644 142.934 10.5112 142.934 10.87C142.934 11.6831 142.737 12.0897 142.343 12.0897C142.048 12.0897 141.9 11.994 141.9 11.8027ZM139.536 18.87C138.551 19.8266 138.059 20.6039 138.059 21.2018C138.059 21.7758 138.366 22.0628 138.982 22.0628C139.351 22.0628 139.659 21.9193 139.905 21.6323C140.447 20.9148 140.324 19.994 139.536 18.87Z" fill="url(#paint6_linear)"/>
<path fill-rule="evenodd" clip-rule="evenodd" d="M12.7905 5.38117L12.6058 6.3139C12.6304 6.67265 12.889 6.85202 13.3815 6.85202C13.8986 6.85202 14.3049 6.66069 14.6004 6.27803C14.8959 5.89537 15.0436 5.41704 15.0436 4.84305C15.019 3.86248 14.5142 3.13304 13.5292 2.65471C12.5442 2.17638 11.4484 1.93722 10.2418 1.93722C8.44424 1.93722 6.83133 2.41555 5.40311 3.3722C3.99952 4.32885 3.29772 5.60837 3.29772 7.21076C3.29772 8.11958 3.63015 8.93274 4.29501 9.65023C4.95987 10.3677 5.76017 10.9776 6.6959 11.4798C7.65625 11.9821 8.6043 12.4843 9.54003 12.9865C9.75095 13.0944 9.955 13.2077 10.1522 13.3264C6.22102 14.5804 3.09745 15.0314 0.812629 17.0762C0.27089 17.6981 2.05692e-05 18.3916 2.05692e-05 19.157C2.05692e-05 20.5919 1.41395 21.3812 2.74367 22.0987C4.07339 22.7922 5.73554 23.139 7.73013 23.139C9.72471 23.139 11.5839 22.5291 13.3076 21.3094C15.0313 20.0897 15.8931 18.4155 15.8931 16.287C15.7192 14.196 13.8724 12.5304 13.8724 12.5304C16.3788 11.2492 18.4893 10.993 18.4893 10.993C16.3788 12.4023 17.7341 22.9596 19.6798 22.9596C20.7633 22.9596 21.8098 22.2302 22.8194 20.7713C23.3858 22.2302 24.3092 22.9596 25.5897 22.9596C26.8702 22.9596 27.929 22.3737 28.7662 21.2018C29.6035 20.006 30.2191 18.5232 30.6131 16.7534L33.2235 17.5272C33.2235 17.673 33.2255 17.8217 33.2298 17.9731C33.2298 19.2646 33.6361 20.4245 34.4487 21.4529C35.2613 22.4574 36.3571 22.9596 37.7361 22.9596C39.5722 22.9596 42.335 21.5666 44.5334 20.3402C44.5829 20.6995 44.5489 21.0439 44.716 21.4529C45.2396 22.7344 46.6244 22.9596 48.0034 22.9596C50.3919 22.9596 52.4818 21.9671 54.107 19.4081C54.2071 19.2488 54.3035 19.0908 54.3962 18.9344C54.4049 18.3875 54.4282 17.7748 54.4661 17.0964C54.2365 17.8977 53.9722 18.6535 53.4475 19.321C52.955 19.9428 51.7959 20.6517 51.2049 20.9865C50.6139 21.3214 49.701 21.7553 48.9623 21.7553C48.2236 21.7553 47.1148 21.8339 46.4559 21.13C45.9616 20.6021 46.192 19.321 46.192 19.321C47.775 18.6803 49.2962 17.7498 50.5889 16.1435C51.594 14.8946 52.4727 13.9552 52.4727 12.5202C52.4727 11.7549 52.2018 11.157 51.6601 10.7265C51.1184 10.272 50.4289 10.0448 49.5916 10.0448C47.9132 10.0448 43.6449 12.2119 44.4623 19.7627C43.0907 20.6233 40.9784 21.552 38.6964 21.0942C37.9577 21.0942 37.3052 20.7593 36.7388 20.0897C36.1971 19.3961 35.8769 18.583 35.7784 17.6502C37.576 17.6024 39.0904 17.1002 40.3217 16.1435C41.5775 15.1629 42.2054 13.9552 42.2054 12.5202C42.2054 11.7549 41.9346 11.157 41.3928 10.7265C40.8511 10.272 40.1616 10.0448 39.3244 10.0448C37.6515 10.0448 33.6433 10.866 33.2541 16.6056C32.3154 16.4028 31.6812 16.246 30.8897 15.426C30.9636 14.7564 31.0194 13.8595 31.0194 13.2377C31.0194 10.87 30.453 9.6861 29.3203 9.6861C28.4831 9.6861 27.8428 10.009 27.3996 10.6547C26.981 11.2765 26.7717 12.0299 26.7717 12.9148C26.7717 13.7758 27.0179 14.5411 27.5104 15.2108C28.0029 15.8804 28.7047 16.3348 29.6158 16.574C29.3449 17.8655 28.9632 18.9656 28.4708 19.8744C27.9783 20.7593 27.375 21.2018 26.6609 21.2018C26.1684 21.2018 25.7128 20.8431 25.2942 20.1256C24.9002 19.3842 24.654 18.4873 24.5555 17.435C25.2203 15.6173 25.5528 14.0987 25.5528 12.8789C25.5528 12.4245 25.5035 12.1375 25.405 12.0179C25.3311 11.8984 25.1957 11.8386 24.9987 11.8386C24.3831 11.8386 23.8537 12.2332 23.4104 13.0224C22.9672 13.8117 22.6717 14.6009 22.5239 15.3901C22.3762 16.1555 22.3023 16.8849 22.3023 17.5785C22.3023 18.2481 22.3639 18.8819 22.487 19.4798C21.7729 20.6278 21.1696 21.2018 20.6771 21.2018C20.1846 21.2018 19.8029 20.7952 19.5321 19.9821C19.2858 19.145 19.1627 18.1883 19.1627 17.1121C19.1627 16.012 19.1539 15.5519 19.281 14.7444C19.5304 13.159 20.3693 12.1734 20.4185 11.0493C20.4185 10.6188 20.2339 10.4036 19.8645 10.4036C19.6183 10.4036 19.0233 10.5422 18.4893 10.6547C16.5138 11.0708 13.5697 12.218 13.5697 12.218C13.2467 11.9717 12.9008 11.7496 12.5319 11.5516C11.6208 11.0254 10.6974 10.5471 9.76165 10.1166C8.85054 9.66218 8.06256 9.15994 7.3977 8.60987C6.75746 8.03588 6.43734 7.37818 6.43734 6.63677C6.43734 5.87145 6.7944 5.15396 7.50851 4.48431C8.24724 3.79073 9.1091 3.44395 10.0941 3.44395C11.7932 3.44395 12.692 4.08969 12.7905 5.38117ZM4.77519 20.7713C4.03645 20.1256 3.47538 19.2133 3.45076 18.4241C3.84672 16.3741 4.90185 15.3491 10.6723 13.6635C11.1392 13.9888 11.562 14.3491 11.9409 14.7444C12.6058 15.438 12.9382 16.2152 12.9382 17.0762C12.9382 18.3677 12.4457 19.4679 11.4607 20.3767C10.5004 21.2855 9.33072 21.7399 7.95175 21.7399C6.5974 21.7399 5.53855 21.417 4.77519 20.7713ZM28.7293 12.2691C28.7293 11.4559 28.8401 11.0493 29.0617 11.0493C29.6281 11.0493 29.9113 12.0299 29.9113 13.991C29.9113 14.2302 29.899 14.4096 29.8743 14.5291C29.111 13.8356 28.7293 13.0822 28.7293 12.2691ZM38.955 15.426C38.2901 16.0957 37.2313 16.5501 35.7784 16.7892C35.8277 15.3782 36.1478 14.0987 36.7388 12.9507C37.3298 11.7788 38.0562 11.1928 38.9181 11.1928C39.6322 11.1928 39.9892 11.7309 39.9892 12.8072C39.9892 13.8834 39.6445 14.7564 38.955 15.426ZM49.6219 15.426C48.7996 16.9537 46.0601 18.5522 46.0601 18.5522C46.0601 18.5522 45.7963 15.7335 47.0061 12.9507C47.597 11.7788 48.3235 11.1928 49.1853 11.1928C49.8994 11.1928 50.2565 11.7309 50.2565 12.8072C50.2565 13.8834 50.123 14.4949 49.6219 15.426Z" fill="url(#paint7_linear)"/>
<defs>
<linearGradient id="paint0_linear" x1="6.4482e-09" y1="13.92" x2="145.998" y2="14.5163" gradientUnits="userSpaceOnUse">
<stop stop-color="#FF5777"/>
<stop offset="0.484375" stop-color="#894252"/>
<stop offset="1" stop-color="#FF877D"/>
</linearGradient>
<linearGradient id="paint1_linear" x1="6.4482e-09" y1="13.92" x2="145.998" y2="14.5163" gradientUnits="userSpaceOnUse">
<stop stop-color="#FF5777"/>
<stop offset="0.484375" stop-color="#894252"/>
<stop offset="1" stop-color="#FF877D"/>
</linearGradient>
<linearGradient id="paint2_linear" x1="6.4482e-09" y1="13.92" x2="145.998" y2="14.5163" gradientUnits="userSpaceOnUse">
<stop stop-color="#FF5777"/>
<stop offset="0.484375" stop-color="#894252"/>
<stop offset="1" stop-color="#FF877D"/>
</linearGradient>
<linearGradient id="paint3_linear" x1="6.4482e-09" y1="13.92" x2="145.998" y2="14.5163" gradientUnits="userSpaceOnUse">
<stop stop-color="#FF5777"/>
<stop offset="0.484375" stop-color="#894252"/>
<stop offset="1" stop-color="#FF877D"/>
</linearGradient>
<linearGradient id="paint4_linear" x1="6.4482e-09" y1="13.92" x2="145.998" y2="14.5163" gradientUnits="userSpaceOnUse">
<stop stop-color="#FF5777"/>
<stop offset="0.484375" stop-color="#894252"/>
<stop offset="1" stop-color="#FF877D"/>
</linearGradient>
<linearGradient id="paint5_linear" x1="6.4482e-09" y1="13.92" x2="145.998" y2="14.5163" gradientUnits="userSpaceOnUse">
<stop stop-color="#FF5777"/>
<stop offset="0.484375" stop-color="#894252"/>
<stop offset="1" stop-color="#FF877D"/>
</linearGradient>
<linearGradient id="paint6_linear" x1="6.4482e-09" y1="13.92" x2="145.998" y2="14.5163" gradientUnits="userSpaceOnUse">
<stop stop-color="#FF5777"/>
<stop offset="0.484375" stop-color="#894252"/>
<stop offset="1" stop-color="#FF877D"/>
</linearGradient>
<linearGradient id="paint7_linear" x1="6.4482e-09" y1="13.92" x2="145.998" y2="14.5163" gradientUnits="userSpaceOnUse">
<stop stop-color="#FF5777"/>
<stop offset="0.484375" stop-color="#894252"/>
<stop offset="1" stop-color="#FF877D"/>
</linearGradient>
</defs>
</svg>
