<svg width="178" height="51" viewBox="0 0 178 51" fill="none" xmlns="http://www.w3.org/2000/svg">
<path d="M30.296 37.048L30.488 35.824C30.488 35.648 30.432 35.488 30.32 35.344C30.208 35.2 30.064 35.128 29.888 35.128C29.296 35.128 28.784 35.576 28.352 36.472C27.92 37.352 27.704 38.2 27.704 39.016C27.704 39.832 27.872 40.496 28.208 41.008C28.544 41.504 28.952 41.752 29.432 41.752C29.928 41.752 30.368 41.64 30.752 41.416C31.136 41.192 31.488 40.872 31.808 40.456C32.48 39.576 33.056 38.576 33.536 37.456C33.664 37.168 33.76 36.96 33.824 36.832C33.904 36.704 33.984 36.64 34.064 36.64C34.16 36.64 34.208 36.704 34.208 36.832C34.208 37.36 34.024 37.992 33.656 38.728C33.288 39.464 32.976 40.032 32.72 40.432C32.48 40.816 32.168 41.224 31.784 41.656C30.984 42.552 29.984 43 28.784 43C27.872 43 27.176 42.68 26.696 42.04C26.232 41.384 26 40.688 26 39.952C26 38.128 26.392 36.744 27.176 35.8C27.976 34.84 28.984 34.36 30.2 34.36C30.712 34.36 31.112 34.496 31.4 34.768C31.704 35.024 31.856 35.32 31.856 35.656C31.856 36.28 31.744 36.744 31.52 37.048C31.296 37.352 31.024 37.504 30.704 37.504C30.432 37.504 30.296 37.352 30.296 37.048Z" fill="url(#paint0_linear)"/>
<path d="M34.9552 36.616L36.2752 36.472C36.4032 36.472 36.5152 36.544 36.6112 36.688C36.7072 36.832 36.7552 36.984 36.7552 37.144C36.7552 37.304 36.6992 37.848 36.5872 38.776C36.4912 39.704 36.4432 40.44 36.4432 40.984C36.4432 41.512 36.4912 41.776 36.5872 41.776C36.8592 41.76 37.2352 41.424 37.7152 40.768C38.1952 40.096 38.6672 39.24 39.1312 38.2C39.6112 37.16 39.8992 36.64 39.9952 36.64C40.1072 36.64 40.1632 36.704 40.1632 36.832C40.1632 37.28 39.9312 37.992 39.4672 38.968C38.2032 41.656 37.1392 43 36.2752 43C35.6512 43 35.1792 42.872 34.8592 42.616C34.7472 42.504 34.6912 41.808 34.6912 40.528C34.6912 39.248 34.8272 38.152 35.0992 37.24C34.1712 37.24 33.5232 36.944 33.1552 36.352C32.9632 36.048 32.8672 35.704 32.8672 35.32C32.8672 34.936 32.9472 34.6 33.1072 34.312C33.2672 34.024 33.4912 33.88 33.7792 33.88C34.0832 33.88 34.3552 34.04 34.5952 34.36C34.8512 34.664 34.9792 35.008 34.9792 35.392C34.9792 35.776 34.8672 36.16 34.6432 36.544C34.7072 36.592 34.8112 36.616 34.9552 36.616Z" fill="url(#paint1_linear)"/>
<path d="M45.7284 43C45.1044 43 44.6324 42.872 44.3124 42.616C44.2004 42.504 44.1444 42.224 44.1444 41.776C44.1444 41.312 44.1604 40.696 44.1924 39.928C43.7764 40.968 43.3604 41.744 42.9444 42.256C42.5444 42.752 42.0244 43 41.3844 43C40.7444 43 40.1844 42.704 39.7044 42.112C39.2244 41.504 38.9844 40.56 38.9844 39.28C38.9844 37.984 39.3444 36.84 40.0644 35.848C40.8004 34.856 41.7604 34.36 42.9444 34.36C43.4564 34.36 44.0324 34.696 44.6724 35.368C44.8004 35.192 45.0244 34.984 45.3444 34.744C45.6804 34.488 45.9604 34.36 46.1844 34.36C46.4244 34.36 46.5444 34.664 46.5444 35.272C46.5444 35.432 46.4964 35.744 46.4004 36.208C46.3204 36.672 46.2244 37.008 46.1124 37.216C45.9684 37.584 45.8964 38.888 45.8964 41.128C45.8964 41.56 45.9444 41.776 46.0404 41.776C46.3124 41.76 46.6884 41.424 47.1684 40.768C47.6484 40.096 48.1204 39.24 48.5844 38.2C49.0644 37.16 49.3524 36.64 49.4484 36.64C49.5604 36.64 49.6164 36.704 49.6164 36.832C49.6164 37.28 49.3844 37.992 48.9204 38.968C47.6564 41.656 46.5924 43 45.7284 43ZM42.8004 35.32C42.3524 35.32 41.8724 35.656 41.3604 36.328C40.8644 36.984 40.6164 37.76 40.6164 38.656C40.6164 39.552 40.7444 40.288 41.0004 40.864C41.2724 41.44 41.6244 41.728 42.0564 41.728C42.5844 41.728 43.3604 40.408 44.3844 37.768C44.4004 37.64 44.4164 37.424 44.4324 37.12C44.4644 36.8 44.4884 36.56 44.5044 36.4C44.3604 36.144 44.1044 35.904 43.7364 35.68C43.3844 35.44 43.0724 35.32 42.8004 35.32Z" fill="url(#paint2_linear)"/>
<path d="M51.7479 37.816C52.6119 37.608 53.3319 37.344 53.9079 37.024C54.4999 36.704 54.8119 36.544 54.8439 36.544C54.9399 36.544 54.9879 36.624 54.9879 36.784C54.9879 36.944 54.8279 37.144 54.5079 37.384C53.8359 37.88 52.9959 38.304 51.9879 38.656C52.4039 40.24 52.6119 41.92 52.6119 43.696C52.6119 45.184 52.4439 46.608 52.1079 47.968C51.9159 48.736 51.6119 49.36 51.1959 49.84C50.7959 50.32 50.2999 50.56 49.7079 50.56C49.1959 50.56 48.8439 50.336 48.6519 49.888C48.4119 49.36 48.2759 48.856 48.2439 48.376C48.1959 47.624 48.1719 46.4 48.1719 44.704C48.1719 43.008 48.2999 40.96 48.5559 38.56C47.9799 38.144 47.6919 37.64 47.6919 37.048C47.6919 36.44 47.8199 35.976 48.0759 35.656C48.3319 35.32 48.6519 35.104 49.0359 35.008C49.2599 33.616 49.4759 32.416 49.6839 31.408C49.9079 30.4 50.2439 29.584 50.6919 28.96C51.1399 28.32 51.5879 28 52.0359 28C52.5479 28 52.8039 28.568 52.8039 29.704C52.8039 31.496 52.1399 33.512 50.8119 35.752C51.1479 36.232 51.4599 36.92 51.7479 37.816ZM50.0679 39.016C49.9239 40.984 49.8519 43.24 49.8519 45.784C49.8519 48.344 49.9879 49.624 50.2599 49.624C50.7399 49.624 51.1399 48.992 51.4599 47.728C51.7799 46.48 51.9399 45.072 51.9399 43.504C51.9399 41.952 51.7639 40.392 51.4119 38.824C50.9319 38.952 50.4839 39.016 50.0679 39.016ZM50.4279 35.416C50.8919 34.648 51.3159 33.744 51.6999 32.704C52.0839 31.648 52.2759 30.768 52.2759 30.064C52.2759 29.36 52.2039 29.008 52.0599 29.008C51.8039 29.008 51.5239 29.592 51.2199 30.76C50.9319 31.928 50.6679 33.48 50.4279 35.416ZM50.4279 36.376L50.2839 36.616L50.1639 37.84C50.3719 37.904 50.5559 37.936 50.7159 37.936C50.8919 37.936 51.0359 37.928 51.1479 37.912C50.9399 37.288 50.6999 36.776 50.4279 36.376ZM48.9399 35.608C48.6999 35.688 48.5799 35.872 48.5799 36.16C48.5799 36.448 48.6439 36.696 48.7719 36.904C48.8359 36.328 48.8919 35.896 48.9399 35.608Z" fill="url(#paint3_linear)"/>
<path d="M58.9854 38.968C57.7214 41.656 56.6494 43 55.7694 43C54.9054 43 54.3934 42.896 54.2334 42.688C54.0894 42.48 54.0174 41.792 54.0174 40.624C54.0174 39.456 54.1294 37.768 54.3534 35.56C53.5534 35.4 53.1294 35.072 53.0814 34.576C53.0814 34.32 53.2494 34.192 53.5854 34.192C53.9214 34.192 54.2174 34.256 54.4734 34.384C54.6174 33.232 54.7854 32.064 54.9774 30.88C55.0254 30.576 55.1774 30.288 55.4334 30.016C55.6894 29.744 55.9374 29.608 56.1774 29.608C56.3854 29.608 56.4894 29.936 56.4894 30.592C56.4894 30.896 56.3774 32.296 56.1534 34.792C56.5854 34.712 57.0574 34.552 57.5694 34.312C58.0974 34.072 58.4094 33.952 58.5054 33.952C58.7934 33.952 58.9374 34.04 58.9374 34.216C58.9534 34.376 58.6574 34.6 58.0494 34.888C57.4414 35.16 56.7854 35.368 56.0814 35.512C55.8894 37.848 55.7934 39.616 55.7934 40.816C55.7934 41.456 55.8894 41.776 56.0814 41.776C56.3694 41.76 56.7534 41.424 57.2334 40.768C57.7134 40.112 58.1854 39.264 58.6494 38.224C59.1294 37.168 59.4174 36.64 59.5134 36.64C59.6254 36.64 59.6814 36.704 59.6814 36.832C59.6814 37.28 59.4494 37.992 58.9854 38.968Z" fill="url(#paint4_linear)"/>
<path d="M61.3655 43C60.4695 43 59.7575 42.664 59.2295 41.992C58.7015 41.304 58.4375 40.528 58.4375 39.664C58.4375 37.92 58.8055 36.6 59.5415 35.704C60.2775 34.808 61.2295 34.36 62.3975 34.36C62.9415 34.36 63.3895 34.512 63.7415 34.816C64.0935 35.104 64.2695 35.504 64.2695 36.016C64.2695 36.976 63.8615 37.784 63.0455 38.44C62.2455 39.08 61.2615 39.416 60.0935 39.448C60.1575 40.072 60.3655 40.616 60.7175 41.08C61.0855 41.528 61.5095 41.752 61.9895 41.752C62.4695 41.752 62.9015 41.64 63.2855 41.416C63.6695 41.192 64.0215 40.872 64.3415 40.456C65.0135 39.576 65.5895 38.576 66.0695 37.456C66.1975 37.168 66.2935 36.96 66.3575 36.832C66.4375 36.704 66.5175 36.64 66.5975 36.64C66.6935 36.64 66.7415 36.704 66.7415 36.832C66.7415 37.632 66.2535 38.832 65.2775 40.432C64.2215 42.144 62.9175 43 61.3655 43ZM60.0935 38.872C61.0375 38.712 61.7255 38.408 62.1575 37.96C62.6055 37.512 62.8295 36.928 62.8295 36.208C62.8295 35.488 62.5975 35.128 62.1335 35.128C61.5735 35.128 61.1015 35.52 60.7175 36.304C60.3335 37.072 60.1255 37.928 60.0935 38.872Z" fill="url(#paint5_linear)"/>
<path d="M72.3088 43C71.7648 43 71.3408 42.88 71.0368 42.64C70.9088 42.512 70.8447 42.176 70.8447 41.632C70.8447 41.088 70.8688 40.376 70.9168 39.496C70.4848 40.648 70.0447 41.52 69.5967 42.112C69.1488 42.704 68.5807 43 67.8927 43C67.2207 43 66.6447 42.704 66.1647 42.112C65.7007 41.52 65.4688 40.576 65.4688 39.28C65.4688 37.984 65.8288 36.84 66.5488 35.848C67.2848 34.856 68.2448 34.36 69.4287 34.36C70.0047 34.36 70.6048 34.584 71.2288 35.032C71.4848 31.912 71.7168 30.152 71.9248 29.752C72.0208 29.576 72.2448 29.32 72.5968 28.984C72.9648 28.648 73.2688 28.48 73.5088 28.48C73.7488 28.48 73.8688 28.856 73.8688 29.608C73.8688 30.488 73.7887 31.248 73.6287 31.888C73.1968 33.536 72.9248 34.584 72.8128 35.032C72.5888 36.76 72.4767 38.792 72.4767 41.128C72.4767 41.56 72.5247 41.776 72.6208 41.776C72.9088 41.76 73.2928 41.424 73.7728 40.768C74.2528 40.112 74.7248 39.264 75.1888 38.224C75.6688 37.168 75.9567 36.64 76.0527 36.64C76.1647 36.64 76.2207 36.704 76.2207 36.832C76.2207 37.28 75.9888 37.992 75.5247 38.968C74.2607 41.656 73.1888 43 72.3088 43ZM69.2848 35.224C68.8528 35.224 68.4207 35.568 67.9888 36.256C67.5568 36.944 67.3408 37.744 67.3408 38.656C67.3408 39.552 67.4528 40.288 67.6768 40.864C67.9168 41.44 68.2127 41.728 68.5648 41.728C69.2848 41.728 70.1087 40.288 71.0368 37.408C71.1168 36.528 71.1567 36.008 71.1567 35.848C70.6927 35.432 70.0688 35.224 69.2848 35.224Z" fill="url(#paint6_linear)"/>
<path d="M88.0286 35.536L88.0766 35.176C88.0766 34.888 87.9086 34.744 87.5726 34.744C87.2526 34.744 86.9406 34.96 86.6366 35.392C86.3326 35.808 86.1806 36.152 86.1806 36.424C86.1806 36.696 86.1966 36.912 86.2286 37.072C86.2606 37.232 86.2926 37.368 86.3246 37.48C86.3726 37.576 86.4446 37.696 86.5406 37.84C86.6366 37.984 86.7086 38.088 86.7566 38.152L87.0206 38.488C87.1326 38.648 87.2126 38.752 87.2606 38.8C88.0926 38.112 89.0846 37.344 90.2366 36.496C90.3006 36.448 90.3726 36.424 90.4526 36.424C90.6126 36.424 90.6926 36.512 90.6926 36.688C90.6926 36.864 90.6206 37 90.4766 37.096C89.4526 37.752 88.4846 38.464 87.5726 39.232C87.9246 39.744 88.1006 40.304 88.1006 40.912C88.1006 41.52 87.8686 42.04 87.4046 42.472C86.9406 42.904 86.3486 43.12 85.6286 43.12C84.9086 43.12 84.5486 42.776 84.5486 42.088C84.5486 41.592 85.0766 40.832 86.1326 39.808C86.0526 39.712 85.9086 39.56 85.7006 39.352C85.4926 39.128 85.3326 38.952 85.2206 38.824C85.1246 38.696 85.0046 38.528 84.8606 38.32C84.6046 37.92 84.4766 37.488 84.4766 37.024C84.4766 36.08 84.7806 35.32 85.3886 34.744C85.9966 34.152 86.6446 33.856 87.3326 33.856C87.7646 33.856 88.1006 33.976 88.3406 34.216C88.5806 34.44 88.7006 34.672 88.7006 34.912C88.7006 35.456 88.5726 35.728 88.3166 35.728C88.1246 35.728 88.0286 35.664 88.0286 35.536ZM86.4926 40.264C85.8526 40.904 85.5326 41.424 85.5326 41.824C85.5326 42.208 85.7326 42.4 86.1326 42.4C86.3726 42.4 86.5726 42.304 86.7326 42.112C87.0846 41.632 87.0046 41.016 86.4926 40.264Z" fill="url(#paint7_linear)"/>
<path d="M99.4528 37.912C100.125 37.912 100.749 37.624 101.325 37.048C101.613 36.76 101.805 36.616 101.901 36.616C102.013 36.616 102.069 36.696 102.069 36.856C102.069 37.016 101.965 37.208 101.757 37.432C100.909 38.376 99.8447 38.848 98.5648 38.848C98.3088 40.032 97.9088 41.024 97.3648 41.824C96.8208 42.608 96.1328 43 95.3008 43C94.4688 43 93.8687 42.512 93.5007 41.536C92.8447 42.512 92.1647 43 91.4607 43C90.1327 43 89.4688 41.72 89.4688 39.16C89.4688 37.384 89.6447 36.176 89.9967 35.536C90.0608 35.424 90.3008 35.24 90.7168 34.984C91.1328 34.728 91.4207 34.6 91.5807 34.6C91.8207 34.6 91.9408 34.744 91.9408 35.032C91.9088 35.784 91.6848 36.672 91.2688 37.696C91.1728 37.888 91.1247 38.352 91.1247 39.088C91.1247 39.808 91.2048 40.448 91.3648 41.008C91.5408 41.552 91.7887 41.824 92.1087 41.824C92.4287 41.824 92.8208 41.44 93.2848 40.672C93.2048 40.272 93.1647 39.848 93.1647 39.4C93.1647 38.936 93.2128 38.448 93.3088 37.936C93.4048 37.408 93.5967 36.88 93.8848 36.352C94.1728 35.824 94.5167 35.56 94.9167 35.56C95.0447 35.56 95.1328 35.6 95.1807 35.68C95.2448 35.76 95.2767 35.952 95.2767 36.256C95.2767 37.072 95.0608 38.088 94.6288 39.304C94.6928 40.008 94.8528 40.608 95.1087 41.104C95.3808 41.584 95.6768 41.824 95.9967 41.824C96.4607 41.824 96.8528 41.528 97.1728 40.936C97.4928 40.328 97.7407 39.592 97.9167 38.728C97.3247 38.568 96.8688 38.264 96.5488 37.816C96.2288 37.368 96.0687 36.856 96.0687 36.28C96.0687 35.688 96.2048 35.184 96.4768 34.768C96.7648 34.336 97.1807 34.12 97.7247 34.12C98.4607 34.12 98.8288 34.912 98.8288 36.496C98.8288 36.912 98.8047 37.344 98.7568 37.792C98.9967 37.872 99.2288 37.912 99.4528 37.912ZM97.5567 35.032C97.4128 35.032 97.3408 35.304 97.3408 35.848C97.3408 36.392 97.5887 36.896 98.0847 37.36C98.1007 37.28 98.1087 37.16 98.1087 37C98.1087 35.688 97.9247 35.032 97.5567 35.032Z" fill="url(#paint8_linear)"/>
<path d="M103.553 43C102.657 43 101.945 42.664 101.417 41.992C100.889 41.304 100.625 40.528 100.625 39.664C100.625 37.92 100.993 36.6 101.729 35.704C102.465 34.808 103.417 34.36 104.585 34.36C105.129 34.36 105.577 34.512 105.929 34.816C106.281 35.104 106.457 35.504 106.457 36.016C106.457 36.976 106.049 37.784 105.233 38.44C104.433 39.08 103.449 39.416 102.281 39.448C102.345 40.072 102.553 40.616 102.905 41.08C103.273 41.528 103.697 41.752 104.177 41.752C104.657 41.752 105.089 41.64 105.473 41.416C105.857 41.192 106.209 40.872 106.529 40.456C107.201 39.576 107.777 38.576 108.257 37.456C108.385 37.168 108.481 36.96 108.545 36.832C108.625 36.704 108.705 36.64 108.785 36.64C108.881 36.64 108.929 36.704 108.929 36.832C108.929 37.632 108.441 38.832 107.465 40.432C106.409 42.144 105.105 43 103.553 43ZM102.281 38.872C103.225 38.712 103.913 38.408 104.345 37.96C104.793 37.512 105.017 36.928 105.017 36.208C105.017 35.488 104.785 35.128 104.321 35.128C103.761 35.128 103.289 35.52 102.905 36.304C102.521 37.072 102.313 37.928 102.281 38.872Z" fill="url(#paint9_linear)"/>
<path d="M110.584 43C109.688 43 108.976 42.664 108.448 41.992C107.92 41.304 107.656 40.528 107.656 39.664C107.656 37.92 108.024 36.6 108.76 35.704C109.496 34.808 110.448 34.36 111.616 34.36C112.16 34.36 112.608 34.512 112.96 34.816C113.312 35.104 113.488 35.504 113.488 36.016C113.488 36.976 113.08 37.784 112.264 38.44C111.464 39.08 110.48 39.416 109.312 39.448C109.376 40.072 109.584 40.616 109.936 41.08C110.304 41.528 110.728 41.752 111.208 41.752C111.688 41.752 112.12 41.64 112.504 41.416C112.888 41.192 113.24 40.872 113.56 40.456C114.232 39.576 114.808 38.576 115.288 37.456C115.416 37.168 115.512 36.96 115.576 36.832C115.656 36.704 115.736 36.64 115.816 36.64C115.912 36.64 115.96 36.704 115.96 36.832C115.96 37.632 115.472 38.832 114.496 40.432C113.44 42.144 112.136 43 110.584 43ZM109.312 38.872C110.256 38.712 110.944 38.408 111.376 37.96C111.824 37.512 112.048 36.928 112.048 36.208C112.048 35.488 111.816 35.128 111.352 35.128C110.792 35.128 110.32 35.52 109.936 36.304C109.552 37.072 109.344 37.928 109.312 38.872Z" fill="url(#paint10_linear)"/>
<path d="M120.063 38.968C118.799 41.656 117.728 43 116.848 43C115.984 43 115.472 42.896 115.312 42.688C115.168 42.48 115.095 41.792 115.095 40.624C115.095 39.456 115.208 37.768 115.432 35.56C114.632 35.4 114.207 35.072 114.16 34.576C114.16 34.32 114.327 34.192 114.663 34.192C114.999 34.192 115.296 34.256 115.551 34.384C115.695 33.232 115.864 32.064 116.056 30.88C116.104 30.576 116.256 30.288 116.511 30.016C116.767 29.744 117.016 29.608 117.256 29.608C117.464 29.608 117.567 29.936 117.567 30.592C117.567 30.896 117.455 32.296 117.231 34.792C117.663 34.712 118.135 34.552 118.647 34.312C119.175 34.072 119.488 33.952 119.584 33.952C119.872 33.952 120.016 34.04 120.016 34.216C120.032 34.376 119.736 34.6 119.128 34.888C118.52 35.16 117.864 35.368 117.16 35.512C116.967 37.848 116.871 39.616 116.871 40.816C116.871 41.456 116.967 41.776 117.16 41.776C117.448 41.76 117.831 41.424 118.312 40.768C118.792 40.112 119.264 39.264 119.728 38.224C120.208 37.168 120.495 36.64 120.591 36.64C120.703 36.64 120.759 36.704 120.759 36.832C120.759 37.28 120.527 37.992 120.063 38.968Z" fill="url(#paint11_linear)"/>
<path d="M123.068 35.536L123.116 35.176C123.116 34.888 122.948 34.744 122.612 34.744C122.292 34.744 121.98 34.96 121.676 35.392C121.372 35.808 121.22 36.152 121.22 36.424C121.22 36.696 121.236 36.912 121.268 37.072C121.3 37.232 121.332 37.368 121.364 37.48C121.412 37.576 121.484 37.696 121.58 37.84C121.676 37.984 121.748 38.088 121.796 38.152L122.06 38.488C122.172 38.648 122.252 38.752 122.3 38.8C123.132 38.112 124.124 37.344 125.276 36.496C125.34 36.448 125.412 36.424 125.492 36.424C125.652 36.424 125.732 36.512 125.732 36.688C125.732 36.864 125.66 37 125.516 37.096C124.492 37.752 123.524 38.464 122.612 39.232C122.964 39.744 123.14 40.304 123.14 40.912C123.14 41.52 122.908 42.04 122.444 42.472C121.98 42.904 121.388 43.12 120.668 43.12C119.948 43.12 119.588 42.776 119.588 42.088C119.588 41.592 120.116 40.832 121.172 39.808C121.092 39.712 120.948 39.56 120.74 39.352C120.532 39.128 120.372 38.952 120.26 38.824C120.164 38.696 120.044 38.528 119.9 38.32C119.644 37.92 119.516 37.488 119.516 37.024C119.516 36.08 119.82 35.32 120.428 34.744C121.036 34.152 121.684 33.856 122.372 33.856C122.804 33.856 123.14 33.976 123.38 34.216C123.62 34.44 123.74 34.672 123.74 34.912C123.74 35.456 123.612 35.728 123.356 35.728C123.164 35.728 123.068 35.664 123.068 35.536ZM121.532 40.264C120.892 40.904 120.572 41.424 120.572 41.824C120.572 42.208 120.772 42.4 121.172 42.4C121.412 42.4 121.612 42.304 121.772 42.112C122.124 41.632 122.044 41.016 121.532 40.264Z" fill="url(#paint12_linear)"/>
<path d="M75.6356 20.4604C73.2639 25.3154 71.2524 27.7429 69.6012 27.7429C67.98 27.7429 67.0194 27.5551 66.7191 27.1794C66.4489 26.8037 66.3138 25.561 66.3138 23.4514C66.3138 23.2678 66.3154 23.077 66.3186 22.8791C66.3293 22.2182 66.3577 21.4778 66.4038 20.6581C66.5026 18.904 66.6828 16.7862 66.9443 14.3049C65.4432 14.0159 64.6476 13.4235 64.5576 12.5277C64.5576 12.0653 64.8728 11.8341 65.5033 11.8341C66.1337 11.8341 66.6891 11.9497 67.1695 12.1809C67.4397 10.1002 67.7549 7.99053 68.1151 5.85202C68.2052 5.30294 68.4904 4.78276 68.9708 4.29148C69.4511 3.8002 69.9164 3.55456 70.3668 3.55456C70.757 3.55456 70.9522 4.14699 70.9522 5.33184C70.9522 5.88092 70.742 8.40957 70.3217 12.9178C71.1323 12.7733 72.018 12.4843 72.9786 12.0508C73.9694 11.6173 74.5548 11.4006 74.7349 11.4006C75.2753 11.4006 75.5455 11.5595 75.5455 11.8774C75.5755 12.1664 75.0201 12.571 73.8793 13.0912C72.7385 13.5825 71.5076 13.9581 70.1866 14.2182C69.8264 18.4375 69.6462 21.6308 69.6462 23.7982C69.6462 24.9542 69.8264 25.5321 70.1866 25.5321C70.727 25.5032 71.4475 24.8964 72.3482 23.7115C73.2488 22.5267 74.1345 20.995 75.0051 19.1166C75.9058 17.2093 76.4461 16.2556 76.6263 16.2556C76.8364 16.2556 76.9415 16.3712 76.9415 16.6024C76.9415 17.4116 76.5062 18.6976 75.6356 20.4604Z" fill="url(#paint13_linear)"/>
<path d="M77.4446 11.9641L77.7148 14.7384C77.7148 15.0274 77.5497 15.2586 77.2194 15.432C76.9192 15.6054 76.664 15.6921 76.4539 15.6921C76.0336 15.6921 75.6583 15.3742 75.3281 14.7384C75.0279 14.0737 74.8777 13.4669 74.8777 12.9178C74.8777 10.7793 75.6433 8.9731 77.1744 7.49925C78.7355 5.99651 80.7019 4.86946 83.0736 4.11809C83.0736 3.13553 83.2838 2.21076 83.7041 1.3438C84.1544 0.447932 84.8449 0 85.7756 0C86.1658 0 86.361 0.534629 86.361 1.60389V3.42451C87.3217 3.30892 88.0272 3.25112 88.4775 3.25112C92.4704 3.25112 95.6227 4.33483 97.9343 6.50224C100.276 8.64076 101.447 11.3428 101.447 14.6084C101.447 16.8625 101.027 18.8565 100.186 20.5904C99.3453 22.3244 98.2045 23.6971 96.7635 24.7085C93.8814 26.7314 90.4289 27.7429 86.406 27.7429H85.4603C85.3703 28.581 85.2502 29 85.1001 29C83.689 29 82.7434 28.8122 82.2631 28.4365C82.0529 28.2342 81.9328 27.8874 81.9028 27.3961C79.2309 26.6736 77.8949 25.8789 77.8949 25.012C77.8949 24.723 78 24.5062 78.2101 24.3617C78.4203 24.1883 78.6455 24.1016 78.8856 24.1016C79.1558 24.1016 80.1616 24.4484 81.9028 25.142C82.173 17.5705 82.5182 11.0683 82.9385 5.63528C81.2873 6.18436 79.9514 7.00797 78.9307 8.10613C77.94 9.20429 77.4446 10.4903 77.4446 11.9641ZM87.2616 4.9417C86.8413 4.9417 86.5261 4.95615 86.3159 4.98505C86.1959 10.0424 86.0458 14.2905 85.8656 17.7294C85.7155 22.2088 85.6104 25.0264 85.5504 26.1824C86.1508 26.2691 86.7813 26.3124 87.4418 26.3124C90.2938 26.3124 92.7706 25.3009 94.8721 23.278C96.9736 21.2262 98.0244 18.712 98.0244 15.7354C98.0244 12.7588 97.0187 10.2157 95.0072 8.10613C92.9958 5.99651 90.4139 4.9417 87.2616 4.9417Z" fill="url(#paint14_linear)"/>
<path d="M106.639 16.2123L109.116 15.9522C109.356 15.9522 109.566 16.0822 109.746 16.3423C109.926 16.6024 110.016 16.8769 110.016 17.1659C110.016 17.4549 109.911 18.4375 109.701 20.1136C109.521 21.7897 109.431 23.1191 109.431 24.1016C109.431 25.0553 109.521 25.5321 109.701 25.5321C110.212 25.5032 110.917 24.8964 111.818 23.7115C112.718 22.4978 113.604 20.9517 114.475 19.0732C115.375 17.1948 115.916 16.2556 116.096 16.2556C116.306 16.2556 116.411 16.3712 116.411 16.6024C116.411 17.4116 115.976 18.6976 115.105 20.4604C112.733 25.3154 110.737 27.7429 109.116 27.7429C107.945 27.7429 107.059 27.5117 106.459 27.0493C106.249 26.847 106.144 25.5899 106.144 23.278C106.144 20.9661 106.399 18.9865 106.909 17.3393C105.168 17.3393 103.952 16.8047 103.262 15.7354C102.901 15.1863 102.721 14.565 102.721 13.8715C102.721 13.1779 102.871 12.571 103.171 12.0508C103.472 11.5306 103.892 11.2706 104.432 11.2706C105.003 11.2706 105.513 11.5595 105.963 12.1375C106.444 12.6866 106.684 13.3079 106.684 14.0015C106.684 14.6951 106.474 15.3886 106.054 16.0822C106.174 16.1689 106.369 16.2123 106.639 16.2123Z" fill="url(#paint15_linear)"/>
<path d="M119.018 27.7429C117.336 27.7429 116 27.136 115.01 25.9223C114.019 24.6796 113.524 23.278 113.524 21.7175C113.524 18.5675 114.214 16.1834 115.595 14.565C116.976 12.9467 118.762 12.1375 120.954 12.1375C121.975 12.1375 122.815 12.4121 123.476 12.9611C124.136 13.4813 124.467 14.2038 124.467 15.1286C124.467 16.8625 123.701 18.3219 122.17 19.5067C120.669 20.6627 118.822 21.2696 116.631 21.3274C116.751 22.4544 117.141 23.437 117.802 24.275C118.492 25.0842 119.288 25.4888 120.188 25.4888C121.089 25.4888 121.9 25.2865 122.62 24.8819C123.341 24.4773 124.001 23.8994 124.602 23.148C125.863 21.5585 126.943 19.7524 127.844 17.7294C128.084 17.2093 128.264 16.8336 128.384 16.6024C128.534 16.3712 128.685 16.2556 128.835 16.2556C129.015 16.2556 129.105 16.3712 129.105 16.6024C129.105 18.0473 128.189 20.2147 126.358 23.1046C124.376 26.1968 121.93 27.7429 119.018 27.7429ZM116.631 20.287C118.402 19.998 119.693 19.4489 120.504 18.6398C121.344 17.8306 121.765 16.7758 121.765 15.4753C121.765 14.1749 121.329 13.5247 120.459 13.5247C119.408 13.5247 118.522 14.2327 117.802 15.6487C117.081 17.0359 116.691 18.582 116.631 20.287Z" fill="url(#paint16_linear)"/>
<path d="M138.695 27.7429C137.525 27.7429 136.639 27.5117 136.038 27.0493C135.828 26.847 135.723 26.3413 135.723 25.5321C135.723 24.6941 135.753 23.5815 135.813 22.1943C135.033 24.0727 134.252 25.4743 133.472 26.3991C132.721 27.295 131.745 27.7429 130.544 27.7429C129.344 27.7429 128.293 27.2083 127.392 26.139C126.492 25.0409 126.041 23.3358 126.041 21.0239C126.041 18.6831 126.717 16.6168 128.068 14.8251C129.449 13.0334 131.25 12.1375 133.472 12.1375C134.432 12.1375 135.513 12.7444 136.714 13.9581C136.954 13.6403 137.374 13.2646 137.975 12.8311C138.605 12.3687 139.131 12.1375 139.551 12.1375C140.001 12.1375 140.226 12.6866 140.226 13.7848C140.226 14.0737 140.136 14.6373 139.956 15.4753C139.806 16.3134 139.626 16.9203 139.416 17.296C139.146 17.9606 139.011 20.3159 139.011 24.3617C139.011 25.142 139.101 25.5321 139.281 25.5321C139.791 25.5032 140.497 24.8964 141.397 23.7115C142.298 22.4978 143.184 20.9517 144.054 19.0732C144.955 17.1948 145.495 16.2556 145.675 16.2556C145.886 16.2556 145.991 16.3712 145.991 16.6024C145.991 17.4116 145.555 18.6976 144.685 20.4604C142.313 25.3154 140.317 27.7429 138.695 27.7429ZM133.201 13.8715C132.361 13.8715 131.46 14.4783 130.499 15.6921C129.569 16.8769 129.103 18.2785 129.103 19.8969C129.103 21.5152 129.344 22.8445 129.824 23.8849C130.334 24.9253 130.995 25.4454 131.805 25.4454C132.796 25.4454 134.252 23.0613 136.174 18.293C136.204 18.0618 136.234 17.6716 136.264 17.1226C136.324 16.5446 136.369 16.1111 136.399 15.8221C136.129 15.3597 135.648 14.9263 134.958 14.5217C134.297 14.0882 133.712 13.8715 133.201 13.8715Z" fill="url(#paint17_linear)"/>
<path d="M146.342 25.1854L146.387 26.5292C146.387 27.3383 146.147 27.7429 145.667 27.7429C144.946 27.7429 144.256 27.6562 143.595 27.4828C142.935 27.2805 142.605 27.0204 142.605 26.7025C142.605 26.3558 142.68 25.2143 142.83 23.278C143.01 21.3129 143.1 19.8391 143.1 18.8565V16.299C143.1 14.9118 143.25 14.0737 143.55 13.7848C143.851 13.4958 144.376 13.0767 145.127 12.5277C145.907 11.9786 146.463 11.704 146.793 11.704C147.153 11.704 147.378 11.7618 147.468 11.8774C147.558 11.993 147.603 12.2098 147.603 12.5277C147.603 14.0593 147.303 15.5042 146.703 16.8625C146.553 18.5097 146.478 19.6512 146.478 20.287C148.069 17.426 149.179 15.5476 149.81 14.6517C150.921 12.9756 151.926 12.1375 152.827 12.1375C153.398 12.1375 153.923 12.3543 154.403 12.7877C154.914 13.2212 155.169 13.7559 155.169 14.3916C155.169 15.0274 155.154 15.6343 155.124 16.2123C155.124 16.7613 155.109 17.1948 155.079 17.5127C155.049 17.8306 155.034 18.0329 155.034 18.1196C155.154 17.8884 155.664 17.2382 156.565 16.1689C157.465 15.0997 158.066 14.4061 158.366 14.0882C158.696 13.7703 159.042 13.4524 159.402 13.1345C160.092 12.4699 160.708 12.1375 161.248 12.1375C161.819 12.1375 162.344 12.3398 162.824 12.7444C163.335 13.149 163.59 13.6547 163.59 14.2616C163.59 15.5331 163.44 17.4116 163.14 19.8969C162.869 22.3533 162.734 23.9138 162.734 24.5785C162.734 25.2143 162.824 25.5321 163.004 25.5321C163.515 25.5032 164.22 24.8964 165.121 23.7115C166.022 22.4978 166.907 20.9517 167.778 19.0732C168.679 17.1948 169.219 16.2556 169.399 16.2556C169.609 16.2556 169.714 16.3712 169.714 16.6024C169.714 17.4116 169.279 18.6976 168.408 20.4604C166.037 25.3154 164.04 27.7429 162.419 27.7429C161.398 27.7429 160.588 27.5117 159.987 27.0493C159.777 26.847 159.672 26.3269 159.672 25.4888C159.672 24.6218 159.747 23.2347 159.897 21.3274C160.077 19.3911 160.167 17.9462 160.167 16.9925C160.167 16.0389 160.002 15.562 159.672 15.562C159.282 15.562 158.426 16.1978 157.105 17.4694C155.814 18.7409 155.124 19.6368 155.034 20.157C154.854 21.1395 154.764 23.2636 154.764 26.5292C154.764 27.3383 154.538 27.7429 154.088 27.7429C153.398 27.7429 152.737 27.6562 152.107 27.4828C151.506 27.2805 151.206 27.0204 151.206 26.7025C151.206 26.3558 151.296 24.9253 151.476 22.4111C151.656 19.8969 151.746 18.134 151.746 17.1226C151.746 16.0822 151.566 15.562 151.206 15.562C150.876 15.562 150.05 16.559 148.729 18.5531C147.408 20.5182 146.673 21.8909 146.523 22.6712C146.402 23.4514 146.342 24.2895 146.342 25.1854Z" fill="url(#paint18_linear)"/>
<path d="M173.001 14.2616L173.091 13.6114C173.091 13.0912 172.776 12.8311 172.146 12.8311C171.545 12.8311 170.96 13.2212 170.39 14.0015C169.819 14.7529 169.534 15.3742 169.534 15.8655C169.534 16.3568 169.564 16.7469 169.624 17.0359C169.684 17.3249 169.744 17.5705 169.804 17.7728C169.894 17.9462 170.029 18.1629 170.209 18.423C170.39 18.6831 170.525 18.871 170.615 18.9865L171.11 19.5934C171.32 19.8824 171.47 20.0703 171.56 20.157C173.121 18.9143 174.983 17.5272 177.144 15.9955C177.264 15.9088 177.4 15.8655 177.55 15.8655C177.85 15.8655 178 16.0244 178 16.3423C178 16.6602 177.865 16.9058 177.595 17.0792C175.673 18.2641 173.857 19.5501 172.146 20.9372C172.806 21.862 173.137 22.8734 173.137 23.9716C173.137 25.0698 172.701 26.009 171.831 26.7892C170.96 27.5695 169.849 27.9596 168.498 27.9596C167.147 27.9596 166.472 27.3383 166.472 26.0957C166.472 25.1998 167.462 23.8271 169.444 21.9776C169.294 21.8042 169.024 21.5296 168.633 21.154C168.243 20.7494 167.943 20.4315 167.733 20.2003C167.552 19.9691 167.327 19.6657 167.057 19.29C166.577 18.5675 166.337 17.7872 166.337 16.9492C166.337 15.2441 166.907 13.8715 168.048 12.8311C169.189 11.7618 170.405 11.2272 171.695 11.2272C172.506 11.2272 173.136 11.4439 173.587 11.8774C174.037 12.282 174.262 12.701 174.262 13.1345C174.262 14.1171 174.022 14.6084 173.542 14.6084C173.182 14.6084 173.001 14.4928 173.001 14.2616ZM170.119 22.8012C168.918 23.9572 168.318 24.8964 168.318 25.6188C168.318 26.3124 168.693 26.6592 169.444 26.6592C169.894 26.6592 170.269 26.4858 170.57 26.139C171.23 25.272 171.08 24.1594 170.119 22.8012Z" fill="url(#paint19_linear)"/>
<path fill-rule="evenodd" clip-rule="evenodd" d="M15.5939 6.50224L15.3687 7.6293C15.3987 8.06278 15.7139 8.27952 16.3144 8.27952C16.9448 8.27952 17.4402 8.04833 17.8004 7.58595C18.1607 7.12357 18.3408 6.54559 18.3408 5.85202C18.3108 4.66717 17.6954 3.78575 16.4945 3.20777C15.2936 2.6298 13.9577 2.34081 12.4866 2.34081C10.295 2.34081 8.32861 2.91879 6.58736 4.07474C4.87612 5.23069 4.02051 6.77678 4.02051 8.71301C4.02051 9.81116 4.4258 10.7937 5.23638 11.6607C6.04697 12.5277 7.02267 13.2646 8.16349 13.8715C9.33434 14.4783 10.4902 15.0852 11.631 15.6921C11.8881 15.8224 12.1369 15.9593 12.3773 16.1027C7.58453 17.618 3.77634 18.1629 0.990739 20.6338C0.330263 21.3852 2.50776e-05 22.2232 2.50776e-05 23.148C2.50776e-05 24.8819 1.72385 25.8356 3.34502 26.7025C4.96619 27.5406 6.99265 27.9596 9.4244 27.9596C11.8562 27.9596 14.1228 27.2227 16.2243 25.7489C18.3258 24.275 19.3766 22.2521 19.3766 19.6801C19.1645 17.1535 16.9129 15.1409 16.9129 15.1409C19.9687 13.5928 22.5417 13.2832 22.5417 13.2832C19.9687 14.9861 21.6211 27.7429 23.9932 27.7429C25.3141 27.7429 26.5901 26.8615 27.821 25.0987C28.5115 26.8615 29.6373 27.7429 31.1984 27.7429C32.7595 27.7429 34.0504 27.0349 35.0712 25.6188C36.0919 24.1739 36.8425 22.3822 37.3228 20.2436L40.5054 21.1787C40.5053 21.3549 40.5079 21.5345 40.5131 21.7175C40.5131 23.278 41.0084 24.6796 41.9991 25.9223C42.9899 27.136 44.3258 27.7429 46.007 27.7429C48.2456 27.7429 51.6139 26.0596 54.2942 24.5777C54.3545 25.0118 54.313 25.4281 54.5168 25.9223C55.1552 27.4708 56.8434 27.7429 58.5246 27.7429C61.4367 27.7429 63.9847 26.5436 65.9661 23.4514C66.0881 23.2589 66.2056 23.0681 66.3186 22.8791C66.3293 22.2182 66.3577 21.4778 66.4038 20.6581C66.124 21.6264 65.8017 22.5397 65.162 23.3461C64.5615 24.0975 63.1484 24.9542 62.4279 25.3587C61.7073 25.7633 60.5944 26.2876 59.6938 26.2876C58.7931 26.2876 57.4413 26.3826 56.638 25.5321C56.0354 24.8942 56.3163 23.3461 56.3163 23.3461C58.2463 22.5721 60.1008 21.4477 61.6769 19.5067C62.9023 17.9977 63.9736 16.8625 63.9736 15.1286C63.9736 14.2038 63.6433 13.4813 62.9829 12.9611C62.3224 12.4121 61.4818 12.1375 60.461 12.1375C58.4147 12.1375 53.211 14.7561 54.2075 23.8799C52.5352 24.9199 49.9599 26.042 47.1779 25.4888C46.2772 25.4888 45.4816 25.0842 44.7911 24.275C44.1307 23.437 43.7404 22.4544 43.6203 21.3274C45.8119 21.2696 47.6582 20.6627 49.1593 19.5067C50.6904 18.3219 51.456 16.8625 51.456 15.1286C51.456 14.2038 51.1257 13.4813 50.4652 12.9611C49.8048 12.4121 48.9642 12.1375 47.9434 12.1375C45.9039 12.1375 41.0172 13.1297 40.5426 20.0651C39.3982 19.8201 38.625 19.6306 37.66 18.6398C37.7501 17.8306 37.8182 16.7469 37.8182 15.9955C37.8182 13.1345 37.1277 11.704 35.7467 11.704C34.7259 11.704 33.9454 12.0942 33.405 12.8744C32.8946 13.6258 32.6394 14.5361 32.6394 15.6054C32.6394 16.6457 32.9396 17.5705 33.5401 18.3797C34.1405 19.1888 34.9961 19.7379 36.1069 20.0269C35.7767 21.5874 35.3114 22.9168 34.7109 24.0149C34.1105 25.0842 33.375 25.6188 32.5043 25.6188C31.9039 25.6188 31.3485 25.1854 30.8381 24.3184C30.3578 23.4225 30.0576 22.3388 29.9375 21.0673C30.7481 18.871 31.1534 17.0359 31.1534 15.562C31.1534 15.013 31.0933 14.6662 30.9732 14.5217C30.8832 14.3772 30.718 14.3049 30.4779 14.3049C29.7273 14.3049 29.0819 14.7818 28.5415 15.7354C28.0011 16.6891 27.6408 17.6428 27.4607 18.5964C27.2806 19.5212 27.1905 20.4026 27.1905 21.2407C27.1905 22.0498 27.2656 22.8156 27.4157 23.5381C26.545 24.9253 25.8095 25.6188 25.2091 25.6188C24.6086 25.6188 24.1433 25.1276 23.8131 24.145C23.5128 23.1335 23.3627 21.9776 23.3627 20.6771C23.3627 19.3478 23.3521 18.7919 23.507 17.8161C23.8111 15.9005 24.8338 14.7095 24.8938 13.3513C24.8938 12.8311 24.6687 12.571 24.2184 12.571C23.9181 12.571 23.1928 12.7385 22.5417 12.8744C20.1332 13.3772 16.5439 14.7635 16.5439 14.7635C16.1501 14.4658 15.7284 14.1974 15.2786 13.9581C14.1678 13.3224 13.042 12.7444 11.9012 12.2242C10.7904 11.6751 9.82969 11.0683 9.01911 10.4036C8.23855 9.71002 7.84826 8.9153 7.84826 8.01943C7.84826 7.09467 8.28358 6.2277 9.15421 5.41854C10.0549 4.58047 11.1056 4.16144 12.3065 4.16144C14.378 4.16144 15.4738 4.94171 15.5939 6.50224ZM5.8218 25.0987C4.92116 24.3184 4.23711 23.2161 4.20709 22.2624C4.68983 19.7854 5.97623 18.5469 13.0114 16.5101C13.5806 16.9032 14.0962 17.3385 14.5581 17.8161C15.3687 18.6542 15.774 19.5934 15.774 20.6338C15.774 22.1943 15.1735 23.5237 13.9727 24.6218C12.8018 25.72 11.3758 26.2691 9.6946 26.2691C8.04341 26.2691 6.75248 25.8789 5.8218 25.0987ZM35.0261 14.8251C35.0261 13.8426 35.1612 13.3513 35.4314 13.3513C36.1219 13.3513 36.4672 14.5361 36.4672 16.9058C36.4672 17.1948 36.4522 17.4116 36.4221 17.5561C35.4915 16.718 35.0261 15.8077 35.0261 14.8251ZM47.4931 18.6398C46.6825 19.4489 45.3916 19.998 43.6203 20.287C43.6803 18.582 44.0706 17.0359 44.7911 15.6487C45.5117 14.2327 46.3973 13.5247 47.4481 13.5247C48.3187 13.5247 48.754 14.1749 48.754 15.4753C48.754 16.7758 48.3337 17.8306 47.4931 18.6398ZM60.4979 18.6398C59.4954 20.4857 56.1555 22.4173 56.1555 22.4173C56.1555 22.4173 55.8338 19.0113 57.3088 15.6487C58.0293 14.2327 58.9149 13.5247 59.9657 13.5247C60.8363 13.5247 61.2716 14.1749 61.2716 15.4753C61.2716 16.7758 61.1089 17.5147 60.4979 18.6398Z" fill="url(#paint20_linear)"/>
<defs>
<linearGradient id="paint0_linear" x1="26" y1="41.0848" x2="125.731" y2="41.3808" gradientUnits="userSpaceOnUse">
<stop stop-color="#FF5777"/>
<stop offset="0.484375" stop-color="#894252"/>
<stop offset="1" stop-color="#C54D65"/>
</linearGradient>
<linearGradient id="paint1_linear" x1="26" y1="41.0848" x2="125.731" y2="41.3808" gradientUnits="userSpaceOnUse">
<stop stop-color="#FF5777"/>
<stop offset="0.484375" stop-color="#894252"/>
<stop offset="1" stop-color="#C54D65"/>
</linearGradient>
<linearGradient id="paint2_linear" x1="26" y1="41.0848" x2="125.731" y2="41.3808" gradientUnits="userSpaceOnUse">
<stop stop-color="#FF5777"/>
<stop offset="0.484375" stop-color="#894252"/>
<stop offset="1" stop-color="#C54D65"/>
</linearGradient>
<linearGradient id="paint3_linear" x1="26" y1="41.0848" x2="125.731" y2="41.3808" gradientUnits="userSpaceOnUse">
<stop stop-color="#FF5777"/>
<stop offset="0.484375" stop-color="#894252"/>
<stop offset="1" stop-color="#C54D65"/>
</linearGradient>
<linearGradient id="paint4_linear" x1="26" y1="41.0848" x2="125.731" y2="41.3808" gradientUnits="userSpaceOnUse">
<stop stop-color="#FF5777"/>
<stop offset="0.484375" stop-color="#894252"/>
<stop offset="1" stop-color="#C54D65"/>
</linearGradient>
<linearGradient id="paint5_linear" x1="26" y1="41.0848" x2="125.731" y2="41.3808" gradientUnits="userSpaceOnUse">
<stop stop-color="#FF5777"/>
<stop offset="0.484375" stop-color="#894252"/>
<stop offset="1" stop-color="#C54D65"/>
</linearGradient>
<linearGradient id="paint6_linear" x1="26" y1="41.0848" x2="125.731" y2="41.3808" gradientUnits="userSpaceOnUse">
<stop stop-color="#FF5777"/>
<stop offset="0.484375" stop-color="#894252"/>
<stop offset="1" stop-color="#C54D65"/>
</linearGradient>
<linearGradient id="paint7_linear" x1="26" y1="41.0848" x2="125.731" y2="41.3808" gradientUnits="userSpaceOnUse">
<stop stop-color="#FF5777"/>
<stop offset="0.484375" stop-color="#894252"/>
<stop offset="1" stop-color="#C54D65"/>
</linearGradient>
<linearGradient id="paint8_linear" x1="26" y1="41.0848" x2="125.731" y2="41.3808" gradientUnits="userSpaceOnUse">
<stop stop-color="#FF5777"/>
<stop offset="0.484375" stop-color="#894252"/>
<stop offset="1" stop-color="#C54D65"/>
</linearGradient>
<linearGradient id="paint9_linear" x1="26" y1="41.0848" x2="125.731" y2="41.3808" gradientUnits="userSpaceOnUse">
<stop stop-color="#FF5777"/>
<stop offset="0.484375" stop-color="#894252"/>
<stop offset="1" stop-color="#C54D65"/>
</linearGradient>
<linearGradient id="paint10_linear" x1="26" y1="41.0848" x2="125.731" y2="41.3808" gradientUnits="userSpaceOnUse">
<stop stop-color="#FF5777"/>
<stop offset="0.484375" stop-color="#894252"/>
<stop offset="1" stop-color="#C54D65"/>
</linearGradient>
<linearGradient id="paint11_linear" x1="26" y1="41.0848" x2="125.731" y2="41.3808" gradientUnits="userSpaceOnUse">
<stop stop-color="#FF5777"/>
<stop offset="0.484375" stop-color="#894252"/>
<stop offset="1" stop-color="#C54D65"/>
</linearGradient>
<linearGradient id="paint12_linear" x1="26" y1="41.0848" x2="125.731" y2="41.3808" gradientUnits="userSpaceOnUse">
<stop stop-color="#FF5777"/>
<stop offset="0.484375" stop-color="#894252"/>
<stop offset="1" stop-color="#C54D65"/>
</linearGradient>
<linearGradient id="paint13_linear" x1="7.8615e-09" y1="16.82" x2="177.998" y2="17.5535" gradientUnits="userSpaceOnUse">
<stop stop-color="#FF5777"/>
<stop offset="0.484375" stop-color="#894252"/>
<stop offset="1" stop-color="#C54D65"/>
</linearGradient>
<linearGradient id="paint14_linear" x1="7.8615e-09" y1="16.82" x2="177.998" y2="17.5535" gradientUnits="userSpaceOnUse">
<stop stop-color="#FF5777"/>
<stop offset="0.484375" stop-color="#894252"/>
<stop offset="1" stop-color="#C54D65"/>
</linearGradient>
<linearGradient id="paint15_linear" x1="7.8615e-09" y1="16.82" x2="177.998" y2="17.5535" gradientUnits="userSpaceOnUse">
<stop stop-color="#FF5777"/>
<stop offset="0.484375" stop-color="#894252"/>
<stop offset="1" stop-color="#C54D65"/>
</linearGradient>
<linearGradient id="paint16_linear" x1="7.8615e-09" y1="16.82" x2="177.998" y2="17.5535" gradientUnits="userSpaceOnUse">
<stop stop-color="#FF5777"/>
<stop offset="0.484375" stop-color="#894252"/>
<stop offset="1" stop-color="#C54D65"/>
</linearGradient>
<linearGradient id="paint17_linear" x1="7.8615e-09" y1="16.82" x2="177.998" y2="17.5535" gradientUnits="userSpaceOnUse">
<stop stop-color="#FF5777"/>
<stop offset="0.484375" stop-color="#894252"/>
<stop offset="1" stop-color="#C54D65"/>
</linearGradient>
<linearGradient id="paint18_linear" x1="7.8615e-09" y1="16.82" x2="177.998" y2="17.5535" gradientUnits="userSpaceOnUse">
<stop stop-color="#FF5777"/>
<stop offset="0.484375" stop-color="#894252"/>
<stop offset="1" stop-color="#C54D65"/>
</linearGradient>
<linearGradient id="paint19_linear" x1="7.8615e-09" y1="16.82" x2="177.998" y2="17.5535" gradientUnits="userSpaceOnUse">
<stop stop-color="#FF5777"/>
<stop offset="0.484375" stop-color="#894252"/>
<stop offset="1" stop-color="#C54D65"/>
</linearGradient>
<linearGradient id="paint20_linear" x1="7.8615e-09" y1="16.82" x2="177.998" y2="17.5535" gradientUnits="userSpaceOnUse">
<stop stop-color="#FF5777"/>
<stop offset="0.484375" stop-color="#894252"/>
<stop offset="1" stop-color="#C54D65"/>
</linearGradient>
</defs>
</svg>
